<ttFont>
    <TTGlyph name=".notdef" xMin="50" yMin="0" xMax="642" yMax="809">
      <contour>
        <pt x="642" y="0" on="1"/>
        <pt x="50" y="0" on="1"/>
        <pt x="50" y="809" on="1"/>
        <pt x="642" y="809" on="1"/>
      </contour>
      <contour>
        <pt x="612" y="28" on="1"/>
        <pt x="612" y="781" on="1"/>
        <pt x="80" y="781" on="1"/>
        <pt x="80" y="28" on="1"/>
      </contour>
    </TTGlyph>
    <TTGlyph name="A" xMin="0" yMin="0" xMax="400" yMax="483">
      <contour>
        <pt x="400" y="0" on="1"/>
        <pt x="357" y="0" on="1"/>
        <pt x="302" y="153" on="1"/>
        <pt x="97" y="153" on="1"/>
        <pt x="43" y="0" on="1"/>
        <pt x="0" y="0" on="1"/>
        <pt x="180" y="483" on="1"/>
        <pt x="220" y="483" on="1"/>
      </contour>
      <contour>
        <pt x="290" y="186" on="1"/>
        <pt x="200" y="440" on="1"/>
        <pt x="109" y="186" on="1"/>
      </contour>
    </TTGlyph>
    <TTGlyph name="AE" xMin="-7" yMin="0" xMax="544" yMax="476">
      <contour>
        <pt x="544" y="0" on="1"/>
        <pt x="330" y="0" on="1"/>
        <pt x="302" y="196" on="1"/>
        <pt x="138" y="196" on="1"/>
        <pt x="34" y="0" on="1"/>
        <pt x="-7" y="0" on="1"/>
        <pt x="248" y="476" on="1"/>
        <pt x="532" y="476" on="1"/>
        <pt x="532" y="443" on="1"/>
        <pt x="304" y="443" on="1"/>
        <pt x="328" y="267" on="1"/>
        <pt x="521" y="267" on="1"/>
        <pt x="521" y="234" on="1"/>
        <pt x="333" y="234" on="1"/>
        <pt x="363" y="33" on="1"/>
        <pt x="544" y="33" on="1"/>
      </contour>
      <contour>
        <pt x="297" y="228" on="1"/>
        <pt x="270" y="448" on="1"/>
        <pt x="154" y="228" on="1"/>
      </contour>
    </TTGlyph>
    <TTGlyph name="Aacute" xMin="0" yMin="0" xMax="400" yMax="617">
      <component glyphName="A" x="0" y="0" flags="0x204"/>
      <component glyphName="acutecomb" x="310" y="136" flags="0x4"/>
    </TTGlyph>
    <TTGlyph name="Abreve" xMin="0" yMin="0" xMax="649" yMax="1269">
      <component glyphName="A" x="0" y="0" flags="0x204"/>
      <component glyphName="breve" x="50" y="136" flags="0x4"/>
    </TTGlyph>
    <TTGlyph name="Acircumflex" xMin="0" yMin="0" xMax="400" yMax="606">
      <component glyphName="A" x="0" y="0" flags="0x204"/>
      <component glyphName="circumflex" x="94" y="136" flags="0x4"/>
    </TTGlyph>
    <TTGlyph name="Adieresis" xMin="0" yMin="0" xMax="400" yMax="589">
      <component glyphName="A" x="0" y="0" flags="0x204"/>
      <component glyphName="dieresis" x="93" y="136" flags="0x4"/>
    </TTGlyph>
    <TTGlyph name="Agrave" xMin="0" yMin="0" xMax="400" yMax="617">
      <component glyphName="A" x="0" y="0" flags="0x204"/>
      <component glyphName="gravecomb" x="300" y="136" flags="0x4"/>
    </TTGlyph>
    <TTGlyph name="Aring" xMin="0" yMin="0" xMax="400" yMax="651">
      <component glyphName="A" x="0" y="0" flags="0x204"/>
      <component glyphName="ring" x="50" y="136" flags="0x4"/>
    </TTGlyph>
    <TTGlyph name="Atilde" xMin="0" yMin="0" xMax="400" yMax="588">
      <component glyphName="A" x="0" y="0" flags="0x204"/>
      <component glyphName="tildecomb" x="304" y="136" flags="0x4"/>
    </TTGlyph>
    <TTGlyph name="B" xMin="54" yMin="-6" xMax="346" yMax="482">
      <contour>
        <pt x="346" y="133" on="1"/>
        <pt x="346" y="-6" on="0"/>
        <pt x="145" y="-6" on="1"/>
        <pt x="101" y="-6" on="0"/>
        <pt x="54" y="4" on="1"/>
        <pt x="54" y="469" on="1"/>
        <pt x="104" y="482" on="0"/>
        <pt x="154" y="482" on="1"/>
        <pt x="327" y="482" on="0"/>
        <pt x="327" y="362" on="1"/>
        <pt x="327" y="326" on="0"/>
        <pt x="284" y="267" on="0"/>
        <pt x="248" y="254" on="1"/>
        <pt x="284" y="245" on="0"/>
        <pt x="346" y="182" on="0"/>
      </contour>
      <contour>
        <pt x="288" y="361" on="1"/>
        <pt x="288" y="449" on="0"/>
        <pt x="154" y="449" on="1"/>
        <pt x="123" y="449" on="0"/>
        <pt x="93" y="442" on="1"/>
        <pt x="93" y="268" on="1"/>
        <pt x="174" y="268" on="1"/>
        <pt x="227" y="268" on="0"/>
        <pt x="259" y="296" on="1"/>
        <pt x="288" y="322" on="0"/>
      </contour>
      <contour>
        <pt x="308" y="132" on="1"/>
        <pt x="308" y="185" on="0"/>
        <pt x="225" y="236" on="0"/>
        <pt x="162" y="236" on="1"/>
        <pt x="93" y="236" on="1"/>
        <pt x="93" y="32" on="1"/>
        <pt x="120" y="26" on="0"/>
        <pt x="153" y="26" on="1"/>
        <pt x="217" y="26" on="0"/>
        <pt x="258" y="49" on="1"/>
        <pt x="308" y="77" on="0"/>
      </contour>
    </TTGlyph>
    <TTGlyph name="C" xMin="23" yMin="-7" xMax="379" yMax="483">
      <contour>
        <pt x="367" y="50" on="1"/>
        <pt x="379" y="18" on="1"/>
        <pt x="326" y="-7" on="0"/>
        <pt x="249" y="-7" on="1"/>
        <pt x="152" y="-7" on="0"/>
        <pt x="23" y="132" on="0"/>
        <pt x="23" y="239" on="1"/>
        <pt x="23" y="346" on="0"/>
        <pt x="152" y="483" on="0"/>
        <pt x="249" y="483" on="1"/>
        <pt x="326" y="483" on="0"/>
        <pt x="379" y="458" on="1"/>
        <pt x="367" y="426" on="1"/>
        <pt x="313" y="449" on="0"/>
        <pt x="251" y="449" on="1"/>
        <pt x="174" y="449" on="0"/>
        <pt x="120" y="392" on="1"/>
        <pt x="63" y="332" on="0"/>
        <pt x="63" y="238" on="1"/>
        <pt x="63" y="144" on="0"/>
        <pt x="120" y="84" on="1"/>
        <pt x="174" y="27" on="0"/>
        <pt x="251" y="27" on="1"/>
        <pt x="313" y="27" on="0"/>
      </contour>
    </TTGlyph>
    <TTGlyph name="Cacute" xMin="23" yMin="-7" xMax="5345" yMax="1892">
      <component glyphName="C" x="0" y="0" flags="0x204"/>
      <component glyphName="acutecomb" x="313" y="136" flags="0x4"/>
    </TTGlyph>
    <TTGlyph name="Ccaron" xMin="23" yMin="-7" xMax="583" yMax="870">
      <component glyphName="C" x="0" y="0" flags="0x204"/>
      <component glyphName="caron" x="129" y="136" flags="0x4"/>
    </TTGlyph>
    <TTGlyph name="Ccedilla" xMin="23" yMin="-139" xMax="379" yMax="483">
      <component glyphName="C" x="0" y="0" flags="0x204"/>
      <component glyphName="cedilla" x="109" y="0" flags="0x4"/>
    </TTGlyph>
    <TTGlyph name="D" xMin="54" yMin="-4" xMax="402" yMax="481">
      <contour>
        <pt x="402" y="248" on="1"/>
        <pt x="402" y="-4" on="0"/>
        <pt x="176" y="-4" on="1"/>
        <pt x="146" y="-4" on="0"/>
        <pt x="54" y="5" on="1"/>
        <pt x="54" y="469" on="1"/>
        <pt x="146" y="481" on="0"/>
        <pt x="196" y="481" on="1"/>
        <pt x="287" y="481" on="0"/>
        <pt x="344" y="420" on="1"/>
        <pt x="402" y="356" on="0"/>
      </contour>
      <contour>
        <pt x="363" y="248" on="1"/>
        <pt x="363" y="343" on="0"/>
        <pt x="313" y="397" on="1"/>
        <pt x="267" y="447" on="0"/>
        <pt x="193" y="447" on="1"/>
        <pt x="162" y="447" on="0"/>
        <pt x="93" y="439" on="1"/>
        <pt x="93" y="36" on="1"/>
        <pt x="143" y="30" on="0"/>
        <pt x="188" y="30" on="1"/>
        <pt x="269" y="30" on="0"/>
        <pt x="363" y="145" on="0"/>
      </contour>
    </TTGlyph>
    <TTGlyph name="Dcroat" xMin="6" yMin="-4" xMax="402" yMax="481">
      <contour>
        <pt x="402" y="248" on="1"/>
        <pt x="402" y="128" on="0"/>
        <pt x="360" y="68" on="1"/>
        <pt x="310" y="-4" on="0"/>
        <pt x="191" y="-4" on="1"/>
        <pt x="146" y="-4" on="0"/>
        <pt x="54" y="5" on="1"/>
        <pt x="54" y="225" on="1"/>
        <pt x="6" y="225" on="1"/>
        <pt x="6" y="258" on="1"/>
        <pt x="54" y="258" on="1"/>
        <pt x="54" y="469" on="1"/>
        <pt x="146" y="481" on="0"/>
        <pt x="211" y="481" on="1"/>
        <pt x="301" y="481" on="0"/>
        <pt x="402" y="358" on="0"/>
      </contour>
      <contour>
        <pt x="363" y="248" on="1"/>
        <pt x="363" y="344" on="0"/>
        <pt x="321" y="397" on="1"/>
        <pt x="280" y="447" on="0"/>
        <pt x="208" y="447" on="1"/>
        <pt x="162" y="447" on="0"/>
        <pt x="93" y="439" on="1"/>
        <pt x="93" y="258" on="1"/>
        <pt x="244" y="258" on="1"/>
        <pt x="244" y="225" on="1"/>
        <pt x="93" y="225" on="1"/>
        <pt x="93" y="36" on="1"/>
        <pt x="143" y="30" on="0"/>
        <pt x="203" y="30" on="1"/>
        <pt x="363" y="30" on="0"/>
      </contour>
    </TTGlyph>
    <TTGlyph name="Delta" xMin="0" yMin="0" xMax="474" yMax="472">
      <contour>
        <pt x="410" y="35" on="1"/>
        <pt x="237" y="382" on="1"/>
        <pt x="64" y="35" on="1"/>
      </contour>
      <contour>
        <pt x="474" y="0" on="1"/>
        <pt x="0" y="0" on="1"/>
        <pt x="237" y="472" on="1"/>
      </contour>
    </TTGlyph>
    <TTGlyph name="E" xMin="54" yMin="0" xMax="313" yMax="476">
      <contour>
        <pt x="313" y="0" on="1"/>
        <pt x="54" y="0" on="1"/>
        <pt x="54" y="476" on="1"/>
        <pt x="313" y="476" on="1"/>
        <pt x="313" y="443" on="1"/>
        <pt x="93" y="443" on="1"/>
        <pt x="93" y="268" on="1"/>
        <pt x="289" y="268" on="1"/>
        <pt x="289" y="235" on="1"/>
        <pt x="93" y="235" on="1"/>
        <pt x="93" y="33" on="1"/>
        <pt x="313" y="33" on="1"/>
      </contour>
    </TTGlyph>
    <TTGlyph name="Eacute" xMin="54" yMin="0" xMax="530" yMax="753">
      <component glyphName="E" x="0" y="0" flags="0x204"/>
      <component glyphName="acutecomb" x="286" y="136" flags="0x4"/>
    </TTGlyph>
    <TTGlyph name="Ecircumflex" xMin="54" yMin="0" xMax="352" yMax="742">
      <component glyphName="E" x="0" y="0" flags="0x204"/>
      <component glyphName="circumflex" x="69" y="136" flags="0x4"/>
    </TTGlyph>
    <TTGlyph name="Edieresis" xMin="54" yMin="0" xMax="361" yMax="725">
      <component glyphName="E" x="0" y="0" flags="0x204"/>
      <component glyphName="dieresis" x="69" y="136" flags="0x4"/>
    </TTGlyph>
    <TTGlyph name="Egrave" xMin="54" yMin="0" xMax="520" yMax="753">
      <component glyphName="E" x="0" y="0" flags="0x204"/>
      <component glyphName="gravecomb" x="276" y="136" flags="0x4"/>
    </TTGlyph>
    <TTGlyph name="Eth" xMin="5" yMin="-4" xMax="402" yMax="481">
      <contour>
        <pt x="402" y="248" on="1"/>
        <pt x="402" y="-4" on="0"/>
        <pt x="176" y="-4" on="1"/>
        <pt x="146" y="-4" on="0"/>
        <pt x="54" y="5" on="1"/>
        <pt x="54" y="213" on="1"/>
        <pt x="5" y="213" on="1"/>
        <pt x="5" y="246" on="1"/>
        <pt x="54" y="246" on="1"/>
        <pt x="54" y="469" on="1"/>
        <pt x="146" y="481" on="0"/>
        <pt x="196" y="481" on="1"/>
        <pt x="287" y="481" on="0"/>
        <pt x="344" y="420" on="1"/>
        <pt x="402" y="356" on="0"/>
      </contour>
      <contour>
        <pt x="363" y="248" on="1"/>
        <pt x="363" y="343" on="0"/>
        <pt x="313" y="397" on="1"/>
        <pt x="267" y="447" on="0"/>
        <pt x="193" y="447" on="1"/>
        <pt x="162" y="447" on="0"/>
        <pt x="93" y="439" on="1"/>
        <pt x="93" y="246" on="1"/>
        <pt x="261" y="246" on="1"/>
        <pt x="261" y="213" on="1"/>
        <pt x="93" y="213" on="1"/>
        <pt x="93" y="36" on="1"/>
        <pt x="143" y="30" on="0"/>
        <pt x="188" y="30" on="1"/>
        <pt x="269" y="30" on="0"/>
        <pt x="363" y="145" on="0"/>
      </contour>
    </TTGlyph>
    <TTGlyph name="Euro" xMin="0" yMin="-7" xMax="379" yMax="483">
      <contour>
        <pt x="367" y="50" on="1"/>
        <pt x="379" y="18" on="1"/>
        <pt x="326" y="-7" on="0"/>
        <pt x="249" y="-7" on="1"/>
        <pt x="174" y="-7" on="0"/>
        <pt x="60" y="78" on="0"/>
        <pt x="37" y="150" on="1"/>
        <pt x="0" y="150" on="1"/>
        <pt x="0" y="182" on="1"/>
        <pt x="28" y="182" on="1"/>
        <pt x="23" y="212" on="0"/>
        <pt x="23" y="239" on="1"/>
        <pt x="23" y="262" on="0"/>
        <pt x="26" y="283" on="1"/>
        <pt x="0" y="283" on="1"/>
        <pt x="0" y="315" on="1"/>
        <pt x="33" y="315" on="1"/>
        <pt x="54" y="391" on="0"/>
        <pt x="171" y="483" on="0"/>
        <pt x="249" y="483" on="1"/>
        <pt x="326" y="483" on="0"/>
        <pt x="379" y="458" on="1"/>
        <pt x="367" y="426" on="1"/>
        <pt x="313" y="449" on="0"/>
        <pt x="251" y="449" on="1"/>
        <pt x="191" y="449" on="0"/>
        <pt x="94" y="377" on="0"/>
        <pt x="74" y="315" on="1"/>
        <pt x="325" y="315" on="1"/>
        <pt x="325" y="283" on="1"/>
        <pt x="66" y="283" on="1"/>
        <pt x="63" y="262" on="0"/>
        <pt x="63" y="238" on="1"/>
        <pt x="63" y="208" on="0"/>
        <pt x="69" y="182" on="1"/>
        <pt x="325" y="182" on="1"/>
        <pt x="325" y="150" on="1"/>
        <pt x="78" y="150" on="1"/>
        <pt x="100" y="93" on="0"/>
        <pt x="195" y="27" on="0"/>
        <pt x="251" y="27" on="1"/>
        <pt x="313" y="27" on="0"/>
      </contour>
    </TTGlyph>
    <TTGlyph name="F" xMin="54" yMin="0" xMax="323" yMax="476">
      <contour>
        <pt x="308" y="229" on="1"/>
        <pt x="93" y="229" on="1"/>
        <pt x="93" y="0" on="1"/>
        <pt x="54" y="0" on="1"/>
        <pt x="54" y="476" on="1"/>
        <pt x="323" y="476" on="1"/>
        <pt x="323" y="443" on="1"/>
        <pt x="93" y="443" on="1"/>
        <pt x="93" y="262" on="1"/>
        <pt x="308" y="262" on="1"/>
      </contour>
    </TTGlyph>
    <TTGlyph name="G" xMin="23" yMin="-5" xMax="383" yMax="481">
      <contour>
        <pt x="383" y="238" on="1"/>
        <pt x="383" y="10" on="1"/>
        <pt x="375" y="16" on="0"/>
        <pt x="362" y="16" on="1"/>
        <pt x="362" y="16" on="0"/>
        <pt x="244" y="-5" on="0"/>
        <pt x="224" y="-5" on="1"/>
        <pt x="133" y="-5" on="0"/>
        <pt x="23" y="128" on="0"/>
        <pt x="23" y="239" on="1"/>
        <pt x="23" y="345" on="0"/>
        <pt x="80" y="411" on="1"/>
        <pt x="139" y="481" on="0"/>
        <pt x="241" y="481" on="1"/>
        <pt x="314" y="481" on="0"/>
        <pt x="369" y="457" on="1"/>
        <pt x="357" y="425" on="1"/>
        <pt x="297" y="448" on="0"/>
        <pt x="239" y="448" on="1"/>
        <pt x="164" y="448" on="0"/>
        <pt x="63" y="330" on="0"/>
        <pt x="63" y="238" on="1"/>
        <pt x="63" y="140" on="0"/>
        <pt x="150" y="27" on="0"/>
        <pt x="230" y="27" on="1"/>
        <pt x="293" y="27" on="0"/>
        <pt x="345" y="52" on="1"/>
        <pt x="345" y="206" on="1"/>
        <pt x="224" y="206" on="1"/>
        <pt x="224" y="238" on="1"/>
      </contour>
    </TTGlyph>
    <TTGlyph name="Gbreve" xMin="23" yMin="-5" xMax="733" yMax="1405">
      <component glyphName="G" x="0" y="0" flags="0x204"/>
      <component glyphName="breve" x="62" y="136" flags="0x4"/>
    </TTGlyph>
    <TTGlyph name="H" xMin="54" yMin="0" xMax="387" yMax="476">
      <contour>
        <pt x="387" y="0" on="1"/>
        <pt x="348" y="0" on="1"/>
        <pt x="348" y="237" on="1"/>
        <pt x="93" y="237" on="1"/>
        <pt x="93" y="0" on="1"/>
        <pt x="54" y="0" on="1"/>
        <pt x="54" y="476" on="1"/>
        <pt x="93" y="476" on="1"/>
        <pt x="93" y="270" on="1"/>
        <pt x="348" y="270" on="1"/>
        <pt x="348" y="476" on="1"/>
        <pt x="387" y="476" on="1"/>
      </contour>
    </TTGlyph>
    <TTGlyph name="I" xMin="54" yMin="0" xMax="93" yMax="476">
      <contour>
        <pt x="93" y="0" on="1"/>
        <pt x="54" y="0" on="1"/>
        <pt x="54" y="476" on="1"/>
        <pt x="93" y="476" on="1"/>
      </contour>
    </TTGlyph>
    <TTGlyph name="Iacute" xMin="54" yMin="0" xMax="714" yMax="889">
      <component glyphName="I" x="0" y="0" flags="0x204"/>
      <component glyphName="acutecomb" x="184" y="136" flags="0x4"/>
    </TTGlyph>
    <TTGlyph name="Icircumflex" xMin="54" yMin="0" xMax="334" yMax="878">
      <component glyphName="I" x="0" y="0" flags="0x204"/>
      <component glyphName="circumflex" x="-18" y="136" flags="0x4"/>
    </TTGlyph>
    <TTGlyph name="Idieresis" xMin="54" yMin="0" xMax="342" yMax="861">
      <component glyphName="I" x="0" y="0" flags="0x204"/>
      <component glyphName="dieresis" x="-19" y="136" flags="0x4"/>
    </TTGlyph>
    <TTGlyph name="Idotaccent" xMin="53" yMin="0" xMax="121" yMax="575">
      <component glyphName="I" x="0" y="0" flags="0x204"/>
      <component glyphName="dotaccent" x="-64" y="0" flags="0x4"/>
    </TTGlyph>
    <TTGlyph name="Igrave" xMin="54" yMin="0" xMax="694" yMax="889">
      <component glyphName="I" x="0" y="0" flags="0x204"/>
      <component glyphName="gravecomb" x="174" y="136" flags="0x4"/>
    </TTGlyph>
    <TTGlyph name="Itilde" xMin="54" yMin="0" xMax="6826" yMax="2885">
      <component glyphName="I" x="0" y="0" flags="0x204"/>
      <component glyphName="tildecomb" x="178" y="136" flags="0x4"/>
    </TTGlyph>
    <TTGlyph name="J" xMin="-1" yMin="-9" xMax="210" yMax="476">
      <contour>
        <pt x="210" y="156" on="1"/>
        <pt x="210" y="-9" on="0"/>
        <pt x="70" y="-9" on="1"/>
        <pt x="31" y="-9" on="0"/>
        <pt x="-1" y="6" on="1"/>
        <pt x="9" y="37" on="1"/>
        <pt x="32" y="25" on="0"/>
        <pt x="70" y="25" on="1"/>
        <pt x="122" y="25" on="0"/>
        <pt x="171" y="86" on="0"/>
        <pt x="171" y="166" on="1"/>
        <pt x="171" y="476" on="1"/>
        <pt x="210" y="476" on="1"/>
      </contour>
    </TTGlyph>
    <TTGlyph name="K" xMin="54" yMin="-5" xMax="390" yMax="482">
      <contour>
        <pt x="390" y="9" on="1"/>
        <pt x="355" y="-5" on="1"/>
        <pt x="144" y="248" on="1"/>
        <pt x="93" y="197" on="1"/>
        <pt x="93" y="0" on="1"/>
        <pt x="54" y="0" on="1"/>
        <pt x="54" y="476" on="1"/>
        <pt x="93" y="476" on="1"/>
        <pt x="93" y="247" on="1"/>
        <pt x="330" y="482" on="1"/>
        <pt x="369" y="471" on="1"/>
        <pt x="171" y="273" on="1"/>
      </contour>
    </TTGlyph>
    <TTGlyph name="L" xMin="54" yMin="0" xMax="327" yMax="476">
      <contour>
        <pt x="327" y="0" on="1"/>
        <pt x="54" y="0" on="1"/>
        <pt x="54" y="476" on="1"/>
        <pt x="93" y="476" on="1"/>
        <pt x="93" y="33" on="1"/>
        <pt x="327" y="33" on="1"/>
      </contour>
    </TTGlyph>
    <TTGlyph name="Lslash" xMin="18" yMin="0" xMax="333" yMax="476">
      <contour>
        <pt x="333" y="0" on="1"/>
        <pt x="60" y="0" on="1"/>
        <pt x="60" y="194" on="1"/>
        <pt x="27" y="184" on="1"/>
        <pt x="18" y="215" on="1"/>
        <pt x="60" y="228" on="1"/>
        <pt x="60" y="476" on="1"/>
        <pt x="99" y="476" on="1"/>
        <pt x="99" y="241" on="1"/>
        <pt x="316" y="310" on="1"/>
        <pt x="316" y="273" on="1"/>
        <pt x="99" y="207" on="1"/>
        <pt x="99" y="33" on="1"/>
        <pt x="333" y="33" on="1"/>
      </contour>
    </TTGlyph>
    <TTGlyph name="M" xMin="40" yMin="0" xMax="508" yMax="476">
      <contour>
        <pt x="508" y="0" on="1"/>
        <pt x="471" y="0" on="1"/>
        <pt x="441" y="420" on="1"/>
        <pt x="287" y="0" on="1"/>
        <pt x="261" y="0" on="1"/>
        <pt x="107" y="420" on="1"/>
        <pt x="77" y="0" on="1"/>
        <pt x="40" y="0" on="1"/>
        <pt x="73" y="476" on="1"/>
        <pt x="119" y="476" on="1"/>
        <pt x="274" y="49" on="1"/>
        <pt x="429" y="476" on="1"/>
        <pt x="475" y="476" on="1"/>
      </contour>
    </TTGlyph>
    <TTGlyph name="N" xMin="54" yMin="0" xMax="387" yMax="476">
      <contour>
        <pt x="387" y="0" on="1"/>
        <pt x="346" y="0" on="1"/>
        <pt x="94" y="421" on="1"/>
        <pt x="94" y="0" on="1"/>
        <pt x="54" y="0" on="1"/>
        <pt x="54" y="476" on="1"/>
        <pt x="99" y="476" on="1"/>
        <pt x="349" y="61" on="1"/>
        <pt x="349" y="476" on="1"/>
        <pt x="387" y="476" on="1"/>
      </contour>
    </TTGlyph>
    <TTGlyph name="Ntilde" xMin="54" yMin="0" xMax="611" yMax="724">
      <component glyphName="N" x="0" y="0" flags="0x204"/>
      <component glyphName="tildecomb" x="325" y="136" flags="0x4"/>
    </TTGlyph>
    <TTGlyph name="O" xMin="22" yMin="-10" xMax="464" yMax="484">
      <contour>
        <pt x="464" y="237" on="1"/>
        <pt x="464" y="130" on="0"/>
        <pt x="341" y="-10" on="0"/>
        <pt x="243" y="-10" on="1"/>
        <pt x="145" y="-10" on="0"/>
        <pt x="22" y="130" on="0"/>
        <pt x="22" y="237" on="1"/>
        <pt x="22" y="344" on="0"/>
        <pt x="145" y="484" on="0"/>
        <pt x="243" y="484" on="1"/>
        <pt x="341" y="484" on="0"/>
        <pt x="464" y="344" on="0"/>
      </contour>
      <contour>
        <pt x="425" y="237" on="1"/>
        <pt x="425" y="325" on="0"/>
        <pt x="323" y="450" on="0"/>
        <pt x="243" y="450" on="1"/>
        <pt x="163" y="450" on="0"/>
        <pt x="61" y="325" on="0"/>
        <pt x="61" y="237" on="1"/>
        <pt x="61" y="149" on="0"/>
        <pt x="163" y="24" on="0"/>
        <pt x="243" y="24" on="1"/>
        <pt x="323" y="24" on="0"/>
        <pt x="425" y="149" on="0"/>
      </contour>
    </TTGlyph>
    <TTGlyph name="OE" xMin="22" yMin="-10" xMax="673" yMax="484">
      <contour>
        <pt x="673" y="33" on="1"/>
        <pt x="673" y="0" on="1"/>
        <pt x="414" y="0" on="1"/>
        <pt x="414" y="74" on="1"/>
        <pt x="351" y="-10" on="0"/>
        <pt x="243" y="-10" on="1"/>
        <pt x="145" y="-10" on="0"/>
        <pt x="22" y="130" on="0"/>
        <pt x="22" y="237" on="1"/>
        <pt x="22" y="344" on="0"/>
        <pt x="145" y="484" on="0"/>
        <pt x="243" y="484" on="1"/>
        <pt x="351" y="484" on="0"/>
        <pt x="414" y="400" on="1"/>
        <pt x="414" y="476" on="1"/>
        <pt x="673" y="476" on="1"/>
        <pt x="673" y="443" on="1"/>
        <pt x="453" y="443" on="1"/>
        <pt x="453" y="268" on="1"/>
        <pt x="649" y="268" on="1"/>
        <pt x="649" y="235" on="1"/>
        <pt x="453" y="235" on="1"/>
        <pt x="453" y="33" on="1"/>
      </contour>
      <contour>
        <pt x="414" y="145" on="1"/>
        <pt x="414" y="320" on="1"/>
        <pt x="407" y="369" on="0"/>
        <pt x="357" y="409" on="1"/>
        <pt x="304" y="450" on="0"/>
        <pt x="243" y="450" on="1"/>
        <pt x="163" y="450" on="0"/>
        <pt x="61" y="325" on="0"/>
        <pt x="61" y="237" on="1"/>
        <pt x="61" y="149" on="0"/>
        <pt x="163" y="24" on="0"/>
        <pt x="243" y="24" on="1"/>
        <pt x="300" y="24" on="0"/>
        <pt x="391" y="90" on="0"/>
      </contour>
    </TTGlyph>
    <TTGlyph name="Oacute" xMin="22" yMin="-10" xMax="1067" yMax="1025">
      <component glyphName="O" x="0" y="0" flags="0x204"/>
      <component glyphName="acutecomb" x="353" y="136" flags="0x4"/>
    </TTGlyph>
    <TTGlyph name="Ocircumflex" xMin="22" yMin="-10" xMax="471" yMax="1014">
      <component glyphName="O" x="0" y="0" flags="0x204"/>
      <component glyphName="circumflex" x="137" y="136" flags="0x4"/>
    </TTGlyph>
    <TTGlyph name="Odieresis" xMin="22" yMin="-10" xMax="478" yMax="997">
      <component glyphName="O" x="0" y="0" flags="0x204"/>
      <component glyphName="dieresis" x="136" y="136" flags="0x4"/>
    </TTGlyph>
    <TTGlyph name="Ograve" xMin="22" yMin="-10" xMax="1037" yMax="1025">
      <component glyphName="O" x="0" y="0" flags="0x204"/>
      <component glyphName="gravecomb" x="343" y="136" flags="0x4"/>
    </TTGlyph>
    <TTGlyph name="Ohm" xMin="35" yMin="0" xMax="417" yMax="447">
      <contour>
        <pt x="417" y="0" on="1"/>
        <pt x="265" y="0" on="1"/>
        <pt x="265" y="115" on="1"/>
        <pt x="366" y="163" on="0"/>
        <pt x="366" y="266" on="1"/>
        <pt x="366" y="331" on="0"/>
        <pt x="287" y="413" on="0"/>
        <pt x="226" y="413" on="1"/>
        <pt x="165" y="413" on="0"/>
        <pt x="86" y="331" on="0"/>
        <pt x="86" y="266" on="1"/>
        <pt x="86" y="163" on="0"/>
        <pt x="187" y="115" on="1"/>
        <pt x="187" y="0" on="1"/>
        <pt x="35" y="0" on="1"/>
        <pt x="35" y="33" on="1"/>
        <pt x="151" y="33" on="1"/>
        <pt x="151" y="92" on="1"/>
        <pt x="111" y="108" on="0"/>
        <pt x="47" y="203" on="0"/>
        <pt x="47" y="263" on="1"/>
        <pt x="47" y="351" on="0"/>
        <pt x="145" y="447" on="0"/>
        <pt x="226" y="447" on="1"/>
        <pt x="307" y="447" on="0"/>
        <pt x="405" y="351" on="0"/>
        <pt x="405" y="263" on="1"/>
        <pt x="405" y="203" on="0"/>
        <pt x="341" y="108" on="0"/>
        <pt x="301" y="92" on="1"/>
        <pt x="301" y="33" on="1"/>
        <pt x="417" y="33" on="1"/>
      </contour>
    </TTGlyph>
    <TTGlyph name="Ohorn" xMin="22" yMin="-10" xMax="464" yMax="521">
      <contour>
        <pt x="464" y="237" on="1"/>
        <pt x="464" y="130" on="0"/>
        <pt x="341" y="-10" on="0"/>
        <pt x="243" y="-10" on="1"/>
        <pt x="145" y="-10" on="0"/>
        <pt x="22" y="130" on="0"/>
        <pt x="22" y="237" on="1"/>
        <pt x="22" y="344" on="0"/>
        <pt x="145" y="484" on="0"/>
        <pt x="243" y="484" on="1"/>
        <pt x="330" y="484" on="0"/>
        <pt x="390" y="427" on="1"/>
        <pt x="432" y="472" on="0"/>
        <pt x="432" y="521" on="1"/>
        <pt x="464" y="521" on="1"/>
        <pt x="464" y="499" on="0"/>
        <pt x="450" y="469" on="1"/>
        <pt x="433" y="434" on="0"/>
        <pt x="406" y="410" on="1"/>
        <pt x="464" y="341" on="0"/>
      </contour>
      <contour>
        <pt x="425" y="237" on="1"/>
        <pt x="425" y="325" on="0"/>
        <pt x="323" y="450" on="0"/>
        <pt x="243" y="450" on="1"/>
        <pt x="163" y="450" on="0"/>
        <pt x="61" y="325" on="0"/>
        <pt x="61" y="237" on="1"/>
        <pt x="61" y="149" on="0"/>
        <pt x="163" y="24" on="0"/>
        <pt x="243" y="24" on="1"/>
        <pt x="323" y="24" on="0"/>
        <pt x="425" y="149" on="0"/>
      </contour>
    </TTGlyph>
    <TTGlyph name="Oslash" xMin="22" yMin="-29" xMax="464" yMax="493">
      <contour>
        <pt x="464" y="237" on="1"/>
        <pt x="464" y="130" on="0"/>
        <pt x="341" y="-10" on="0"/>
        <pt x="243" y="-10" on="1"/>
        <pt x="192" y="-10" on="0"/>
        <pt x="151" y="8" on="1"/>
        <pt x="133" y="-29" on="1"/>
        <pt x="95" y="-29" on="1"/>
        <pt x="121" y="25" on="1"/>
        <pt x="101" y="40" on="0"/>
        <pt x="83" y="60" on="1"/>
        <pt x="22" y="130" on="0"/>
        <pt x="22" y="237" on="1"/>
        <pt x="22" y="344" on="0"/>
        <pt x="145" y="484" on="0"/>
        <pt x="243" y="484" on="1"/>
        <pt x="294" y="484" on="0"/>
        <pt x="336" y="464" on="1"/>
        <pt x="350" y="493" on="1"/>
        <pt x="391" y="493" on="1"/>
        <pt x="367" y="446" on="1"/>
        <pt x="386" y="432" on="0"/>
        <pt x="402" y="414" on="1"/>
        <pt x="464" y="344" on="0"/>
      </contour>
      <contour>
        <pt x="320" y="432" on="1"/>
        <pt x="285" y="450" on="0"/>
        <pt x="243" y="450" on="1"/>
        <pt x="163" y="450" on="0"/>
        <pt x="61" y="325" on="0"/>
        <pt x="61" y="237" on="1"/>
        <pt x="61" y="149" on="0"/>
        <pt x="112" y="86" on="1"/>
        <pt x="124" y="71" on="0"/>
        <pt x="138" y="60" on="1"/>
      </contour>
      <contour>
        <pt x="425" y="237" on="1"/>
        <pt x="425" y="325" on="0"/>
        <pt x="374" y="387" on="1"/>
        <pt x="363" y="401" on="0"/>
        <pt x="350" y="411" on="1"/>
        <pt x="167" y="41" on="1"/>
        <pt x="201" y="24" on="0"/>
        <pt x="243" y="24" on="1"/>
        <pt x="323" y="24" on="0"/>
        <pt x="425" y="149" on="0"/>
      </contour>
    </TTGlyph>
    <TTGlyph name="Otilde" xMin="22" yMin="-10" xMax="958" yMax="860">
      <component glyphName="O" x="0" y="0" flags="0x204"/>
      <component glyphName="tildecomb" x="347" y="136" flags="0x4"/>
    </TTGlyph>
    <TTGlyph name="P" xMin="54" yMin="0" xMax="345" yMax="481">
      <contour>
        <pt x="345" y="344" on="1"/>
        <pt x="345" y="269" on="0"/>
        <pt x="285" y="228" on="1"/>
        <pt x="233" y="193" on="0"/>
        <pt x="155" y="194" on="1"/>
        <pt x="123" y="194" on="0"/>
        <pt x="93" y="200" on="1"/>
        <pt x="93" y="0" on="1"/>
        <pt x="54" y="0" on="1"/>
        <pt x="54" y="471" on="1"/>
        <pt x="114" y="481" on="0"/>
        <pt x="169" y="481" on="1"/>
        <pt x="241" y="481" on="0"/>
        <pt x="290" y="448" on="1"/>
        <pt x="345" y="410" on="0"/>
      </contour>
      <contour>
        <pt x="308" y="341" on="1"/>
        <pt x="308" y="447" on="0"/>
        <pt x="168" y="447" on="1"/>
        <pt x="118" y="447" on="0"/>
        <pt x="93" y="442" on="1"/>
        <pt x="93" y="234" on="1"/>
        <pt x="120" y="227" on="0"/>
        <pt x="163" y="227" on="1"/>
        <pt x="308" y="235" on="0"/>
      </contour>
    </TTGlyph>
    <TTGlyph name="PSK" xMin="58" yMin="-1" xMax="947" yMax="734">
      <contour>
        <pt x="212" y="520" on="1"/>
        <pt x="212" y="548" on="0"/>
        <pt x="168" y="548" on="1"/>
        <pt x="130" y="548" on="1"/>
        <pt x="130" y="491" on="1"/>
        <pt x="168" y="491" on="1"/>
        <pt x="212" y="491" on="0"/>
      </contour>
      <contour>
        <pt x="271" y="519" on="1"/>
        <pt x="271" y="446" on="0"/>
        <pt x="171" y="446" on="1"/>
        <pt x="130" y="446" on="1"/>
        <pt x="130" y="366" on="1"/>
        <pt x="72" y="366" on="1"/>
        <pt x="72" y="591" on="1"/>
        <pt x="182" y="591" on="1"/>
        <pt x="271" y="591" on="0"/>
      </contour>
      <contour>
        <pt x="779" y="366" on="1"/>
        <pt x="697" y="480" on="1"/>
        <pt x="697" y="366" on="1"/>
        <pt x="637" y="366" on="1"/>
        <pt x="637" y="591" on="1"/>
        <pt x="697" y="591" on="1"/>
        <pt x="697" y="495" on="1"/>
        <pt x="779" y="591" on="1"/>
        <pt x="849" y="591" on="1"/>
        <pt x="760" y="491" on="1"/>
        <pt x="856" y="366" on="1"/>
      </contour>
      <contour>
        <pt x="916" y="666" on="1"/>
        <pt x="911" y="640" on="0"/>
        <pt x="886" y="640" on="1"/>
        <pt x="855" y="640" on="0"/>
        <pt x="855" y="676" on="1"/>
        <pt x="855" y="712" on="0"/>
        <pt x="886" y="712" on="1"/>
        <pt x="913" y="712" on="0"/>
        <pt x="915" y="688" on="1"/>
        <pt x="899" y="688" on="1"/>
        <pt x="896" y="698" on="0"/>
        <pt x="886" y="698" on="1"/>
        <pt x="873" y="698" on="0"/>
        <pt x="873" y="677" on="1"/>
        <pt x="873" y="653" on="0"/>
        <pt x="887" y="653" on="1"/>
        <pt x="898" y="653" on="0"/>
        <pt x="899" y="666" on="1"/>
      </contour>
      <contour>
        <pt x="237" y="120" on="1"/>
        <pt x="237" y="146" on="0"/>
        <pt x="212" y="146" on="1"/>
        <pt x="185" y="146" on="0"/>
        <pt x="185" y="121" on="1"/>
        <pt x="185" y="96" on="0"/>
        <pt x="212" y="96" on="1"/>
        <pt x="237" y="96" on="0"/>
      </contour>
      <contour>
        <pt x="261" y="121" on="1"/>
        <pt x="261" y="79" on="0"/>
        <pt x="210" y="79" on="1"/>
        <pt x="162" y="79" on="0"/>
        <pt x="162" y="121" on="1"/>
        <pt x="162" y="162" on="0"/>
        <pt x="212" y="162" on="1"/>
        <pt x="261" y="162" on="0"/>
      </contour>
      <contour>
        <pt x="325" y="135" on="1"/>
        <pt x="325" y="145" on="0"/>
        <pt x="308" y="145" on="1"/>
        <pt x="293" y="145" on="1"/>
        <pt x="293" y="124" on="1"/>
        <pt x="308" y="124" on="1"/>
        <pt x="325" y="124" on="0"/>
      </contour>
      <contour>
        <pt x="348" y="135" on="1"/>
        <pt x="348" y="108" on="0"/>
        <pt x="310" y="108" on="1"/>
        <pt x="293" y="108" on="1"/>
        <pt x="293" y="83" on="1"/>
        <pt x="272" y="83" on="1"/>
        <pt x="272" y="162" on="1"/>
        <pt x="313" y="162" on="1"/>
        <pt x="348" y="162" on="0"/>
      </contour>
      <contour>
        <pt x="404" y="83" on="1"/>
        <pt x="381" y="83" on="1"/>
        <pt x="381" y="111" on="1"/>
        <pt x="345" y="162" on="1"/>
        <pt x="371" y="162" on="1"/>
        <pt x="395" y="128" on="1"/>
        <pt x="398" y="132" on="0"/>
        <pt x="417" y="162" on="1"/>
        <pt x="440" y="162" on="1"/>
        <pt x="404" y="110" on="1"/>
      </contour>
      <contour>
        <pt x="196" y="17" on="1"/>
        <pt x="189" y="34" on="1"/>
        <pt x="181" y="17" on="1"/>
      </contour>
      <contour>
        <pt x="215" y="0" on="1"/>
        <pt x="202" y="0" on="1"/>
        <pt x="198" y="9" on="1"/>
        <pt x="178" y="9" on="1"/>
        <pt x="174" y="0" on="1"/>
        <pt x="162" y="0" on="1"/>
        <pt x="182" y="43" on="1"/>
        <pt x="197" y="43" on="1"/>
      </contour>
      <contour>
        <pt x="689" y="0" on="1"/>
        <pt x="655" y="0" on="1"/>
        <pt x="655" y="43" on="1"/>
        <pt x="689" y="43" on="1"/>
        <pt x="689" y="34" on="1"/>
        <pt x="666" y="34" on="1"/>
        <pt x="666" y="26" on="1"/>
        <pt x="687" y="26" on="1"/>
        <pt x="687" y="18" on="1"/>
        <pt x="666" y="18" on="1"/>
        <pt x="666" y="9" on="1"/>
        <pt x="689" y="9" on="1"/>
      </contour>
      <contour>
        <pt x="774" y="43" on="1"/>
        <pt x="757" y="0" on="1"/>
        <pt x="745" y="0" on="1"/>
        <pt x="727" y="43" on="1"/>
        <pt x="739" y="43" on="1"/>
        <pt x="751" y="11" on="1"/>
        <pt x="763" y="43" on="1"/>
      </contour>
      <contour>
        <pt x="847" y="21" on="1"/>
        <pt x="847" y="34" on="0"/>
        <pt x="834" y="34" on="1"/>
        <pt x="826" y="34" on="1"/>
        <pt x="826" y="10" on="1"/>
        <pt x="834" y="10" on="1"/>
        <pt x="847" y="10" on="0"/>
      </contour>
      <contour>
        <pt x="858" y="21" on="1"/>
        <pt x="858" y="0" on="0"/>
        <pt x="834" y="0" on="1"/>
        <pt x="814" y="0" on="1"/>
        <pt x="814" y="43" on="1"/>
        <pt x="834" y="43" on="1"/>
        <pt x="858" y="43" on="0"/>
      </contour>
      <contour>
        <pt x="249" y="0" on="1"/>
        <pt x="217" y="0" on="1"/>
        <pt x="217" y="43" on="1"/>
        <pt x="227" y="43" on="1"/>
        <pt x="227" y="9" on="1"/>
        <pt x="249" y="9" on="1"/>
      </contour>
      <contour>
        <pt x="332" y="30" on="1"/>
        <pt x="332" y="35" on="0"/>
        <pt x="324" y="35" on="1"/>
        <pt x="318" y="35" on="1"/>
        <pt x="318" y="26" on="1"/>
        <pt x="324" y="26" on="1"/>
        <pt x="332" y="26" on="0"/>
      </contour>
      <contour>
        <pt x="345" y="32" on="1"/>
        <pt x="345" y="24" on="0"/>
        <pt x="337" y="21" on="1"/>
        <pt x="343" y="19" on="0"/>
        <pt x="347" y="0" on="1"/>
        <pt x="334" y="0" on="1"/>
        <pt x="334" y="4" on="0"/>
        <pt x="333" y="8" on="1"/>
        <pt x="330" y="17" on="0"/>
        <pt x="324" y="17" on="1"/>
        <pt x="318" y="17" on="1"/>
        <pt x="318" y="0" on="1"/>
        <pt x="307" y="0" on="1"/>
        <pt x="307" y="43" on="1"/>
        <pt x="328" y="43" on="1"/>
        <pt x="345" y="43" on="0"/>
      </contour>
      <contour>
        <pt x="361" y="43" on="1"/>
        <pt x="361" y="0" on="1"/>
        <pt x="352" y="0" on="1"/>
        <pt x="352" y="43" on="1"/>
      </contour>
      <contour>
        <pt x="412" y="3" on="1"/>
        <pt x="403" y="-1" on="0"/>
        <pt x="393" y="-1" on="1"/>
        <pt x="367" y="-1" on="0"/>
        <pt x="367" y="21" on="1"/>
        <pt x="367" y="44" on="0"/>
        <pt x="392" y="44" on="1"/>
        <pt x="411" y="44" on="0"/>
        <pt x="412" y="28" on="1"/>
        <pt x="401" y="28" on="1"/>
        <pt x="400" y="35" on="0"/>
        <pt x="392" y="35" on="1"/>
        <pt x="379" y="35" on="0"/>
        <pt x="379" y="22" on="1"/>
        <pt x="379" y="8" on="0"/>
        <pt x="393" y="8" on="1"/>
        <pt x="398" y="8" on="0"/>
        <pt x="401" y="9" on="1"/>
        <pt x="401" y="16" on="1"/>
        <pt x="392" y="16" on="1"/>
        <pt x="392" y="24" on="1"/>
        <pt x="412" y="24" on="1"/>
      </contour>
      <contour>
        <pt x="462" y="0" on="1"/>
        <pt x="451" y="0" on="1"/>
        <pt x="451" y="18" on="1"/>
        <pt x="429" y="18" on="1"/>
        <pt x="429" y="0" on="1"/>
        <pt x="418" y="0" on="1"/>
        <pt x="418" y="43" on="1"/>
        <pt x="429" y="43" on="1"/>
        <pt x="429" y="26" on="1"/>
        <pt x="451" y="26" on="1"/>
        <pt x="451" y="43" on="1"/>
        <pt x="462" y="43" on="1"/>
      </contour>
      <contour>
        <pt x="506" y="34" on="1"/>
        <pt x="492" y="34" on="1"/>
        <pt x="492" y="0" on="1"/>
        <pt x="480" y="0" on="1"/>
        <pt x="480" y="34" on="1"/>
        <pt x="465" y="34" on="1"/>
        <pt x="465" y="43" on="1"/>
        <pt x="506" y="43" on="1"/>
      </contour>
      <contour>
        <pt x="565" y="83" on="1"/>
        <pt x="540" y="83" on="1"/>
        <pt x="540" y="162" on="1"/>
        <pt x="565" y="162" on="1"/>
      </contour>
      <contour>
        <pt x="668" y="86" on="1"/>
        <pt x="650" y="81" on="0"/>
        <pt x="627" y="81" on="1"/>
        <pt x="576" y="81" on="0"/>
        <pt x="576" y="122" on="1"/>
        <pt x="576" y="163" on="0"/>
        <pt x="625" y="163" on="1"/>
        <pt x="665" y="163" on="0"/>
        <pt x="668" y="136" on="1"/>
        <pt x="642" y="136" on="1"/>
        <pt x="640" y="147" on="0"/>
        <pt x="624" y="147" on="1"/>
        <pt x="600" y="147" on="0"/>
        <pt x="600" y="123" on="1"/>
        <pt x="600" y="97" on="0"/>
        <pt x="627" y="97" on="1"/>
        <pt x="643" y="99" on="1"/>
        <pt x="643" y="113" on="1"/>
        <pt x="624" y="113" on="1"/>
        <pt x="624" y="126" on="1"/>
        <pt x="668" y="126" on="1"/>
      </contour>
      <contour>
        <pt x="768" y="83" on="1"/>
        <pt x="745" y="83" on="1"/>
        <pt x="745" y="115" on="1"/>
        <pt x="705" y="115" on="1"/>
        <pt x="705" y="83" on="1"/>
        <pt x="681" y="83" on="1"/>
        <pt x="681" y="162" on="1"/>
        <pt x="705" y="162" on="1"/>
        <pt x="705" y="131" on="1"/>
        <pt x="745" y="131" on="1"/>
        <pt x="745" y="162" on="1"/>
        <pt x="768" y="162" on="1"/>
      </contour>
      <contour>
        <pt x="864" y="144" on="1"/>
        <pt x="831" y="144" on="1"/>
        <pt x="831" y="83" on="1"/>
        <pt x="808" y="83" on="1"/>
        <pt x="808" y="144" on="1"/>
        <pt x="777" y="144" on="1"/>
        <pt x="777" y="162" on="1"/>
        <pt x="864" y="162" on="1"/>
      </contour>
      <contour>
        <pt x="506" y="137" on="1"/>
        <pt x="506" y="145" on="0"/>
        <pt x="488" y="145" on="1"/>
        <pt x="473" y="145" on="1"/>
        <pt x="473" y="126" on="1"/>
        <pt x="488" y="126" on="1"/>
        <pt x="506" y="126" on="0"/>
      </contour>
      <contour>
        <pt x="531" y="83" on="1"/>
        <pt x="509" y="83" on="1"/>
        <pt x="504" y="103" on="1"/>
        <pt x="503" y="113" on="0"/>
        <pt x="487" y="113" on="1"/>
        <pt x="473" y="113" on="1"/>
        <pt x="473" y="83" on="1"/>
        <pt x="450" y="83" on="1"/>
        <pt x="450" y="162" on="1"/>
        <pt x="495" y="162" on="1"/>
        <pt x="529" y="162" on="0"/>
        <pt x="529" y="141" on="1"/>
        <pt x="529" y="128" on="0"/>
        <pt x="512" y="122" on="1"/>
        <pt x="527" y="119" on="0"/>
        <pt x="527" y="103" on="1"/>
      </contour>
      <contour>
        <pt x="650" y="13" on="1"/>
        <pt x="650" y="-1" on="0"/>
        <pt x="630" y="-1" on="1"/>
        <pt x="612" y="-1" on="0"/>
        <pt x="612" y="15" on="1"/>
        <pt x="623" y="15" on="1"/>
        <pt x="623" y="8" on="0"/>
        <pt x="631" y="8" on="1"/>
        <pt x="638" y="8" on="0"/>
        <pt x="638" y="12" on="1"/>
        <pt x="638" y="13" on="0"/>
        <pt x="613" y="22" on="0"/>
        <pt x="613" y="30" on="1"/>
        <pt x="613" y="44" on="0"/>
        <pt x="631" y="44" on="1"/>
        <pt x="649" y="44" on="0"/>
        <pt x="649" y="30" on="1"/>
        <pt x="638" y="30" on="1"/>
        <pt x="638" y="36" on="0"/>
        <pt x="631" y="36" on="1"/>
        <pt x="624" y="36" on="0"/>
        <pt x="624" y="31" on="1"/>
        <pt x="624" y="27" on="0"/>
        <pt x="650" y="21" on="0"/>
      </contour>
      <contour>
        <pt x="809" y="0" on="1"/>
        <pt x="776" y="0" on="1"/>
        <pt x="776" y="43" on="1"/>
        <pt x="809" y="43" on="1"/>
        <pt x="809" y="34" on="1"/>
        <pt x="788" y="34" on="1"/>
        <pt x="788" y="26" on="1"/>
        <pt x="808" y="26" on="1"/>
        <pt x="808" y="18" on="1"/>
        <pt x="788" y="18" on="1"/>
        <pt x="788" y="9" on="1"/>
        <pt x="809" y="9" on="1"/>
      </contour>
      <contour>
        <pt x="608" y="9" on="1"/>
        <pt x="608" y="0" on="1"/>
        <pt x="574" y="0" on="1"/>
        <pt x="574" y="43" on="1"/>
        <pt x="607" y="43" on="1"/>
        <pt x="607" y="34" on="1"/>
        <pt x="585" y="34" on="1"/>
        <pt x="585" y="26" on="1"/>
        <pt x="606" y="26" on="1"/>
        <pt x="606" y="18" on="1"/>
        <pt x="585" y="18" on="1"/>
        <pt x="585" y="9" on="1"/>
      </contour>
      <contour>
        <pt x="156" y="109" on="1"/>
        <pt x="153" y="79" on="0"/>
        <pt x="113" y="79" on="1"/>
        <pt x="66" y="79" on="0"/>
        <pt x="66" y="122" on="1"/>
        <pt x="66" y="164" on="0"/>
        <pt x="115" y="164" on="1"/>
        <pt x="152" y="164" on="0"/>
        <pt x="156" y="134" on="1"/>
        <pt x="130" y="134" on="1"/>
        <pt x="129" y="147" on="0"/>
        <pt x="113" y="147" on="1"/>
        <pt x="90" y="147" on="0"/>
        <pt x="90" y="122" on="1"/>
        <pt x="90" y="97" on="0"/>
        <pt x="112" y="97" on="1"/>
        <pt x="129" y="97" on="0"/>
        <pt x="130" y="109" on="1"/>
      </contour>
      <contour>
        <pt x="867" y="199" on="1"/>
        <pt x="58" y="199" on="1"/>
        <pt x="58" y="224" on="1"/>
        <pt x="867" y="224" on="1"/>
      </contour>
      <contour>
        <pt x="562" y="406" on="1"/>
        <pt x="562" y="327" on="0"/>
        <pt x="504" y="290" on="1"/>
        <pt x="458" y="260" on="0"/>
        <pt x="386" y="260" on="1"/>
        <pt x="325" y="260" on="0"/>
        <pt x="256" y="312" on="0"/>
        <pt x="256" y="359" on="1"/>
        <pt x="256" y="375" on="0"/>
        <pt x="260" y="390" on="1"/>
        <pt x="298" y="390" on="1"/>
        <pt x="297" y="383" on="0"/>
        <pt x="297" y="373" on="1"/>
        <pt x="297" y="294" on="0"/>
        <pt x="396" y="294" on="1"/>
        <pt x="440" y="294" on="0"/>
        <pt x="475" y="315" on="1"/>
        <pt x="520" y="342" on="0"/>
        <pt x="520" y="392" on="1"/>
        <pt x="520" y="430" on="0"/>
        <pt x="468" y="450" on="1"/>
        <pt x="421" y="466" on="0"/>
        <pt x="373" y="482" on="1"/>
        <pt x="321" y="504" on="0"/>
        <pt x="321" y="546" on="1"/>
        <pt x="321" y="614" on="0"/>
        <pt x="373" y="650" on="1"/>
        <pt x="419" y="681" on="0"/>
        <pt x="492" y="681" on="1"/>
        <pt x="542" y="681" on="0"/>
        <pt x="601" y="639" on="0"/>
        <pt x="601" y="601" on="1"/>
        <pt x="601" y="586" on="0"/>
        <pt x="596" y="568" on="1"/>
        <pt x="560" y="568" on="1"/>
        <pt x="562" y="582" on="0"/>
        <pt x="562" y="587" on="1"/>
        <pt x="562" y="647" on="0"/>
        <pt x="496" y="647" on="1"/>
        <pt x="436" y="647" on="0"/>
        <pt x="365" y="601" on="0"/>
        <pt x="365" y="562" on="1"/>
        <pt x="365" y="536" on="0"/>
        <pt x="401" y="510" on="0"/>
        <pt x="516" y="477" on="0"/>
        <pt x="562" y="438" on="0"/>
      </contour>
      <contour>
        <pt x="947" y="675" on="1"/>
        <pt x="947" y="649" on="0"/>
        <pt x="913" y="617" on="0"/>
        <pt x="887" y="617" on="1"/>
        <pt x="862" y="617" on="0"/>
        <pt x="829" y="649" on="0"/>
        <pt x="829" y="675" on="1"/>
        <pt x="829" y="701" on="0"/>
        <pt x="862" y="734" on="0"/>
        <pt x="887" y="734" on="1"/>
        <pt x="913" y="734" on="0"/>
        <pt x="947" y="701" on="0"/>
      </contour>
      <contour>
        <pt x="938" y="674" on="1"/>
        <pt x="938" y="695" on="0"/>
        <pt x="908" y="724" on="0"/>
        <pt x="887" y="724" on="1"/>
        <pt x="867" y="724" on="0"/>
        <pt x="839" y="695" on="0"/>
        <pt x="839" y="674" on="1"/>
        <pt x="839" y="653" on="0"/>
        <pt x="867" y="625" on="0"/>
        <pt x="887" y="625" on="1"/>
        <pt x="908" y="625" on="0"/>
        <pt x="938" y="653" on="0"/>
      </contour>
      <contour>
        <pt x="557" y="30" on="1"/>
        <pt x="557" y="35" on="0"/>
        <pt x="550" y="35" on="1"/>
        <pt x="543" y="35" on="1"/>
        <pt x="543" y="26" on="1"/>
        <pt x="550" y="26" on="1"/>
        <pt x="557" y="26" on="0"/>
      </contour>
      <contour>
        <pt x="569" y="32" on="1"/>
        <pt x="569" y="24" on="0"/>
        <pt x="561" y="21" on="1"/>
        <pt x="567" y="19" on="0"/>
        <pt x="571" y="0" on="1"/>
        <pt x="559" y="0" on="1"/>
        <pt x="559" y="4" on="0"/>
        <pt x="558" y="8" on="1"/>
        <pt x="555" y="17" on="0"/>
        <pt x="550" y="17" on="1"/>
        <pt x="543" y="17" on="1"/>
        <pt x="543" y="0" on="1"/>
        <pt x="531" y="0" on="1"/>
        <pt x="531" y="43" on="1"/>
        <pt x="553" y="43" on="1"/>
        <pt x="569" y="43" on="0"/>
      </contour>
      <contour>
        <pt x="702" y="26" on="1"/>
        <pt x="709" y="26" on="1"/>
        <pt x="716" y="26" on="0"/>
        <pt x="716" y="30" on="1"/>
        <pt x="716" y="35" on="0"/>
        <pt x="709" y="35" on="1"/>
        <pt x="702" y="35" on="1"/>
      </contour>
      <contour>
        <pt x="730" y="0" on="1"/>
        <pt x="718" y="0" on="1"/>
        <pt x="718" y="4" on="0"/>
        <pt x="717" y="8" on="1"/>
        <pt x="714" y="17" on="0"/>
        <pt x="709" y="17" on="1"/>
        <pt x="702" y="17" on="1"/>
        <pt x="702" y="0" on="1"/>
        <pt x="692" y="0" on="1"/>
        <pt x="692" y="43" on="1"/>
        <pt x="713" y="43" on="1"/>
        <pt x="728" y="43" on="0"/>
        <pt x="728" y="32" on="1"/>
        <pt x="728" y="24" on="0"/>
        <pt x="720" y="21" on="1"/>
        <pt x="726" y="19" on="0"/>
      </contour>
      <contour>
        <pt x="284" y="0" on="1"/>
        <pt x="252" y="0" on="1"/>
        <pt x="252" y="43" on="1"/>
        <pt x="262" y="43" on="1"/>
        <pt x="262" y="9" on="1"/>
        <pt x="284" y="9" on="1"/>
      </contour>
    </TTGlyph>
    <TTGlyph name="Q" xMin="22" yMin="-67" xMax="464" yMax="484">
      <contour>
        <pt x="464" y="237" on="1"/>
        <pt x="464" y="151" on="0"/>
        <pt x="422" y="86" on="1"/>
        <pt x="378" y="18" on="0"/>
        <pt x="302" y="-1" on="1"/>
        <pt x="361" y="-26" on="0"/>
        <pt x="438" y="-30" on="1"/>
        <pt x="424" y="-67" on="1"/>
        <pt x="325" y="-44" on="0"/>
        <pt x="243" y="-10" on="1"/>
        <pt x="145" y="-10" on="0"/>
        <pt x="22" y="130" on="0"/>
        <pt x="22" y="237" on="1"/>
        <pt x="22" y="344" on="0"/>
        <pt x="145" y="484" on="0"/>
        <pt x="243" y="484" on="1"/>
        <pt x="341" y="484" on="0"/>
        <pt x="464" y="344" on="0"/>
      </contour>
      <contour>
        <pt x="425" y="237" on="1"/>
        <pt x="425" y="325" on="0"/>
        <pt x="323" y="450" on="0"/>
        <pt x="243" y="450" on="1"/>
        <pt x="163" y="450" on="0"/>
        <pt x="61" y="325" on="0"/>
        <pt x="61" y="237" on="1"/>
        <pt x="61" y="149" on="0"/>
        <pt x="163" y="24" on="0"/>
        <pt x="243" y="24" on="1"/>
        <pt x="323" y="24" on="0"/>
        <pt x="425" y="149" on="0"/>
      </contour>
    </TTGlyph>
    <TTGlyph name="R" xMin="54" yMin="0" xMax="358" yMax="481">
      <contour>
        <pt x="358" y="0" on="1"/>
        <pt x="320" y="0" on="1"/>
        <pt x="293" y="217" on="0"/>
        <pt x="185" y="217" on="1"/>
        <pt x="93" y="217" on="1"/>
        <pt x="93" y="0" on="1"/>
        <pt x="54" y="0" on="1"/>
        <pt x="54" y="470" on="1"/>
        <pt x="110" y="481" on="0"/>
        <pt x="171" y="481" on="1"/>
        <pt x="248" y="480" on="0"/>
        <pt x="293" y="451" on="1"/>
        <pt x="345" y="417" on="0"/>
        <pt x="345" y="353" on="1"/>
        <pt x="345" y="264" on="0"/>
        <pt x="253" y="230" on="1"/>
        <pt x="306" y="201" on="0"/>
        <pt x="333" y="122" on="1"/>
        <pt x="346" y="81" on="0"/>
      </contour>
      <contour>
        <pt x="308" y="348" on="1"/>
        <pt x="308" y="447" on="0"/>
        <pt x="171" y="447" on="1"/>
        <pt x="116" y="447" on="0"/>
        <pt x="93" y="440" on="1"/>
        <pt x="93" y="248" on="1"/>
        <pt x="182" y="248" on="1"/>
        <pt x="241" y="248" on="0"/>
        <pt x="308" y="301" on="0"/>
      </contour>
    </TTGlyph>
    <TTGlyph name="S" xMin="27" yMin="-9" xMax="320" yMax="485">
      <contour>
        <pt x="320" y="124" on="1"/>
        <pt x="320" y="70" on="0"/>
        <pt x="281" y="34" on="1"/>
        <pt x="237" y="-9" on="0"/>
        <pt x="158" y="-9" on="1"/>
        <pt x="80" y="-9" on="0"/>
        <pt x="27" y="27" on="1"/>
        <pt x="43" y="61" on="1"/>
        <pt x="92" y="24" on="0"/>
        <pt x="162" y="24" on="1"/>
        <pt x="218" y="24" on="0"/>
        <pt x="282" y="77" on="0"/>
        <pt x="282" y="121" on="1"/>
        <pt x="282" y="161" on="0"/>
        <pt x="233" y="210" on="0"/>
        <pt x="176" y="228" on="1"/>
        <pt x="43" y="271" on="0"/>
        <pt x="43" y="362" on="1"/>
        <pt x="43" y="415" on="0"/>
        <pt x="125" y="485" on="0"/>
        <pt x="191" y="485" on="1"/>
        <pt x="258" y="485" on="0"/>
        <pt x="300" y="460" on="1"/>
        <pt x="291" y="443" on="0"/>
        <pt x="283" y="429" on="1"/>
        <pt x="240" y="452" on="0"/>
        <pt x="190" y="452" on="1"/>
        <pt x="134" y="452" on="0"/>
        <pt x="104" y="423" on="1"/>
        <pt x="80" y="399" on="0"/>
        <pt x="80" y="367" on="1"/>
        <pt x="80" y="301" on="0"/>
        <pt x="186" y="265" on="1"/>
        <pt x="255" y="241" on="0"/>
        <pt x="285" y="213" on="1"/>
        <pt x="320" y="180" on="0"/>
      </contour>
    </TTGlyph>
    <TTGlyph name="Scaron" xMin="27" yMin="-9" xMax="320" yMax="598">
      <component glyphName="S" x="0" y="0" flags="0x204"/>
      <component glyphName="caron" x="70" y="136" flags="0x4"/>
    </TTGlyph>
    <TTGlyph name="Scedilla" xMin="29" yMin="-124" xMax="402" yMax="485">
      <component glyphName="S" x="2" y="0" flags="0x4"/>
      <component glyphName="cedilla" x="85" y="0" flags="0x4"/>
    </TTGlyph>
    <TTGlyph name="T" xMin="-5" yMin="0" xMax="384" yMax="476">
      <contour>
        <pt x="384" y="443" on="1"/>
        <pt x="209" y="443" on="1"/>
        <pt x="209" y="0" on="1"/>
        <pt x="171" y="0" on="1"/>
        <pt x="171" y="443" on="1"/>
        <pt x="-5" y="443" on="1"/>
        <pt x="-5" y="476" on="1"/>
        <pt x="384" y="476" on="1"/>
      </contour>
    </TTGlyph>
    <TTGlyph name="Thorn" xMin="60" yMin="0" xMax="351" yMax="476">
      <contour>
        <pt x="351" y="262" on="1"/>
        <pt x="351" y="187" on="0"/>
        <pt x="250" y="110" on="0"/>
        <pt x="163" y="110" on="1"/>
        <pt x="138" y="110" on="0"/>
        <pt x="98" y="118" on="1"/>
        <pt x="98" y="0" on="1"/>
        <pt x="60" y="0" on="1"/>
        <pt x="60" y="476" on="1"/>
        <pt x="98" y="476" on="1"/>
        <pt x="98" y="382" on="1"/>
        <pt x="140" y="393" on="0"/>
        <pt x="180" y="393" on="1"/>
        <pt x="247" y="393" on="0"/>
        <pt x="296" y="361" on="1"/>
        <pt x="351" y="324" on="0"/>
      </contour>
      <contour>
        <pt x="314" y="257" on="1"/>
        <pt x="314" y="310" on="0"/>
        <pt x="273" y="338" on="1"/>
        <pt x="238" y="361" on="0"/>
        <pt x="180" y="361" on="1"/>
        <pt x="143" y="361" on="0"/>
        <pt x="98" y="347" on="1"/>
        <pt x="98" y="153" on="1"/>
        <pt x="134" y="142" on="0"/>
        <pt x="165" y="142" on="1"/>
        <pt x="237" y="142" on="0"/>
        <pt x="314" y="203" on="0"/>
      </contour>
    </TTGlyph>
    <TTGlyph name="U" xMin="54" yMin="-9" xMax="412" yMax="476">
      <contour>
        <pt x="412" y="201" on="1"/>
        <pt x="412" y="-9" on="0"/>
        <pt x="233" y="-9" on="1"/>
        <pt x="54" y="-9" on="0"/>
        <pt x="54" y="201" on="1"/>
        <pt x="54" y="476" on="1"/>
        <pt x="93" y="476" on="1"/>
        <pt x="93" y="202" on="1"/>
        <pt x="93" y="108" on="0"/>
        <pt x="170" y="24" on="0"/>
        <pt x="233" y="24" on="1"/>
        <pt x="297" y="24" on="0"/>
        <pt x="374" y="108" on="0"/>
        <pt x="373" y="202" on="1"/>
        <pt x="373" y="476" on="1"/>
        <pt x="412" y="476" on="1"/>
      </contour>
    </TTGlyph>
    <TTGlyph name="Uacute" xMin="54" yMin="-9" xMax="1420" yMax="1161">
      <component glyphName="U" x="0" y="0" flags="0x204"/>
      <component glyphName="acutecomb" x="353" y="136" flags="0x4"/>
    </TTGlyph>
    <TTGlyph name="Ucircumflex" xMin="54" yMin="-9" xMax="598" yMax="1150">
      <component glyphName="U" x="0" y="0" flags="0x204"/>
      <component glyphName="circumflex" x="127" y="136" flags="0x4"/>
    </TTGlyph>
    <TTGlyph name="Udieresis" xMin="54" yMin="-9" xMax="604" yMax="1133">
      <component glyphName="U" x="0" y="0" flags="0x204"/>
      <component glyphName="dieresis" x="126" y="136" flags="0x4"/>
    </TTGlyph>
    <TTGlyph name="Ugrave" xMin="54" yMin="-9" xMax="1353" yMax="1161">
      <component glyphName="U" x="0" y="0" flags="0x204"/>
      <component glyphName="gravecomb" x="316" y="136" flags="0x4"/>
    </TTGlyph>
    <TTGlyph name="Uhorn" xMin="54" yMin="-9" xMax="492" yMax="521">
      <contour>
        <pt x="412" y="201" on="1"/>
        <pt x="412" y="-9" on="0"/>
        <pt x="233" y="-9" on="1"/>
        <pt x="54" y="-9" on="0"/>
        <pt x="54" y="201" on="1"/>
        <pt x="54" y="476" on="1"/>
        <pt x="93" y="476" on="1"/>
        <pt x="93" y="202" on="1"/>
        <pt x="93" y="108" on="0"/>
        <pt x="170" y="24" on="0"/>
        <pt x="233" y="24" on="1"/>
        <pt x="297" y="24" on="0"/>
        <pt x="374" y="108" on="0"/>
        <pt x="373" y="202" on="1"/>
        <pt x="373" y="476" on="1"/>
        <pt x="412" y="476" on="1"/>
        <pt x="412" y="432" on="1"/>
        <pt x="457" y="471" on="0"/>
        <pt x="460" y="521" on="1"/>
        <pt x="492" y="521" on="1"/>
        <pt x="483" y="450" on="0"/>
        <pt x="412" y="402" on="1"/>
      </contour>
    </TTGlyph>
    <TTGlyph name="Utilde" xMin="59" yMin="-9" xMax="7344" yMax="3021">
      <component glyphName="U" x="5" y="0" flags="0x4"/>
      <component glyphName="tildecomb" x="342" y="136" flags="0x4"/>
    </TTGlyph>
    <TTGlyph name="V" xMin="0" yMin="0" xMax="390" yMax="476">
      <contour>
        <pt x="390" y="476" on="1"/>
        <pt x="216" y="0" on="1"/>
        <pt x="174" y="0" on="1"/>
        <pt x="0" y="476" on="1"/>
        <pt x="44" y="476" on="1"/>
        <pt x="195" y="45" on="1"/>
        <pt x="346" y="476" on="1"/>
      </contour>
    </TTGlyph>
    <TTGlyph name="W" xMin="0" yMin="0" xMax="588" yMax="476">
      <contour>
        <pt x="588" y="476" on="1"/>
        <pt x="444" y="0" on="1"/>
        <pt x="402" y="0" on="1"/>
        <pt x="294" y="432" on="1"/>
        <pt x="186" y="0" on="1"/>
        <pt x="144" y="0" on="1"/>
        <pt x="0" y="476" on="1"/>
        <pt x="44" y="476" on="1"/>
        <pt x="165" y="45" on="1"/>
        <pt x="272" y="476" on="1"/>
        <pt x="316" y="476" on="1"/>
        <pt x="423" y="45" on="1"/>
        <pt x="544" y="476" on="1"/>
      </contour>
    </TTGlyph>
    <TTGlyph name="X" xMin="17" yMin="0" xMax="401" yMax="476">
      <contour>
        <pt x="401" y="0" on="1"/>
        <pt x="355" y="0" on="1"/>
        <pt x="209" y="215" on="1"/>
        <pt x="63" y="0" on="1"/>
        <pt x="17" y="0" on="1"/>
        <pt x="186" y="244" on="1"/>
        <pt x="24" y="476" on="1"/>
        <pt x="71" y="476" on="1"/>
        <pt x="209" y="268" on="1"/>
        <pt x="347" y="476" on="1"/>
        <pt x="394" y="476" on="1"/>
        <pt x="232" y="244" on="1"/>
      </contour>
    </TTGlyph>
    <TTGlyph name="Y" xMin="0" yMin="0" xMax="366" yMax="476">
      <contour>
        <pt x="366" y="476" on="1"/>
        <pt x="202" y="210" on="1"/>
        <pt x="202" y="0" on="1"/>
        <pt x="164" y="0" on="1"/>
        <pt x="164" y="209" on="1"/>
        <pt x="0" y="476" on="1"/>
        <pt x="45" y="476" on="1"/>
        <pt x="183" y="243" on="1"/>
        <pt x="321" y="476" on="1"/>
      </contour>
    </TTGlyph>
    <TTGlyph name="Yacute" xMin="0" yMin="0" xMax="1728" yMax="1297">
      <component glyphName="Y" x="0" y="0" flags="0x204"/>
      <component glyphName="acutecomb" x="308" y="136" flags="0x4"/>
    </TTGlyph>
    <TTGlyph name="Ydieresis" xMin="7" yMin="0" xMax="1055" yMax="1266">
      <component glyphName="Y" x="7" y="0" flags="0x4"/>
      <component glyphName="dieresis" x="85" y="133" flags="0x4"/>
    </TTGlyph>
    <TTGlyph name="Ygrave" xMin="7" yMin="0" xMax="4931" yMax="1912">
      <component glyphName="Y" x="0" y="0" flags="0x204"/>
      <component glyphName="gravecomb" x="271" y="136" flags="0x4"/>
    </TTGlyph>
    <TTGlyph name="Z" xMin="22" yMin="0" xMax="408" yMax="476">
      <contour>
        <pt x="408" y="33" on="1"/>
        <pt x="400" y="0" on="1"/>
        <pt x="22" y="0" on="1"/>
        <pt x="22" y="26" on="1"/>
        <pt x="345" y="443" on="1"/>
        <pt x="42" y="443" on="1"/>
        <pt x="48" y="476" on="1"/>
        <pt x="395" y="476" on="1"/>
        <pt x="395" y="449" on="1"/>
        <pt x="73" y="33" on="1"/>
      </contour>
    </TTGlyph>
    <TTGlyph name="Zcaron" xMin="22" yMin="0" xMax="408" yMax="734">
      <component glyphName="Z" x="0" y="0" flags="0x204"/>
      <component glyphName="caron" x="106" y="136" flags="0x4"/>
    </TTGlyph>
    <TTGlyph name="a" xMin="26" yMin="-9" xMax="304" yMax="347">
      <contour>
        <pt x="304" y="0" on="1"/>
        <pt x="269" y="-7" on="1"/>
        <pt x="255" y="48" on="1"/>
        <pt x="209" y="-9" on="0"/>
        <pt x="134" y="-9" on="1"/>
        <pt x="90" y="-9" on="0"/>
        <pt x="26" y="41" on="0"/>
        <pt x="26" y="85" on="1"/>
        <pt x="26" y="212" on="0"/>
        <pt x="247" y="212" on="1"/>
        <pt x="253" y="212" on="1"/>
        <pt x="253" y="218" on="1"/>
        <pt x="253" y="251" on="0"/>
        <pt x="238" y="276" on="1"/>
        <pt x="215" y="316" on="0"/>
        <pt x="160" y="316" on="1"/>
        <pt x="125" y="316" on="0"/>
        <pt x="52" y="293" on="1"/>
        <pt x="47" y="329" on="1"/>
        <pt x="103" y="347" on="0"/>
        <pt x="163" y="347" on="1"/>
        <pt x="292" y="347" on="0"/>
        <pt x="292" y="205" on="1"/>
        <pt x="292" y="83" on="1"/>
        <pt x="292" y="41" on="0"/>
      </contour>
      <contour>
        <pt x="253" y="110" on="1"/>
        <pt x="253" y="178" on="1"/>
        <pt x="67" y="178" on="0"/>
        <pt x="67" y="92" on="1"/>
        <pt x="67" y="59" on="0"/>
        <pt x="107" y="24" on="0"/>
        <pt x="137" y="24" on="1"/>
        <pt x="216" y="24" on="0"/>
        <pt x="248" y="91" on="1"/>
        <pt x="253" y="102" on="0"/>
      </contour>
    </TTGlyph>
    <TTGlyph name="aacute" xMin="26" yMin="-9" xMax="2010" yMax="1297">
      <component glyphName="a" x="0" y="0" flags="0x204"/>
      <component glyphName="acutecomb" x="282" y="0" flags="0x4"/>
    </TTGlyph>
    <TTGlyph name="abreve" xMin="26" yMin="-9" xMax="671" yMax="1269">
      <component glyphName="a" x="0" y="0" flags="0x204"/>
      <component glyphName="breve" x="22" y="0" flags="0x4"/>
    </TTGlyph>
    <TTGlyph name="acircumflex" xMin="26" yMin="-9" xMax="664" yMax="1150">
      <component glyphName="a" x="0" y="0" flags="0x204"/>
      <component glyphName="circumflex" x="66" y="0" flags="0x4"/>
    </TTGlyph>
    <TTGlyph name="acute" xMin="54" yMin="528" xMax="154" yMax="619">
      <contour>
        <pt x="85" y="528" on="1"/>
        <pt x="54" y="528" on="1"/>
        <pt x="104" y="619" on="1"/>
        <pt x="154" y="619" on="1"/>
      </contour>
    </TTGlyph>
    <TTGlyph name="acutecomb" xMin="5584" yMin="1853" xMax="5621" yMax="1892">
      <contour>
        <pt x="5597" y="1853" on="1"/>
        <pt x="5584" y="1853" on="1"/>
        <pt x="5604" y="1892" on="1"/>
        <pt x="5621" y="1888" on="1"/>
      </contour>
    </TTGlyph>
    <TTGlyph name="adieresis" xMin="26" yMin="-9" xMax="669" yMax="1133">
      <component glyphName="a" x="0" y="0" flags="0x204"/>
      <component glyphName="dieresis" x="65" y="0" flags="0x4"/>
    </TTGlyph>
    <TTGlyph name="ae" xMin="26" yMin="-9" xMax="569" yMax="347">
      <contour>
        <pt x="550" y="48" on="1"/>
        <pt x="553" y="15" on="1"/>
        <pt x="495" y="-9" on="0"/>
        <pt x="427" y="-9" on="1"/>
        <pt x="324" y="-9" on="0"/>
        <pt x="275" y="78" on="1"/>
        <pt x="247" y="-9" on="0"/>
        <pt x="134" y="-9" on="1"/>
        <pt x="90" y="-9" on="0"/>
        <pt x="26" y="41" on="0"/>
        <pt x="26" y="85" on="1"/>
        <pt x="26" y="212" on="0"/>
        <pt x="247" y="212" on="1"/>
        <pt x="253" y="212" on="1"/>
        <pt x="253" y="218" on="1"/>
        <pt x="253" y="251" on="0"/>
        <pt x="238" y="276" on="1"/>
        <pt x="215" y="316" on="0"/>
        <pt x="160" y="316" on="1"/>
        <pt x="125" y="316" on="0"/>
        <pt x="52" y="293" on="1"/>
        <pt x="47" y="329" on="1"/>
        <pt x="103" y="347" on="0"/>
        <pt x="163" y="347" on="1"/>
        <pt x="255" y="347" on="0"/>
        <pt x="282" y="271" on="1"/>
        <pt x="330" y="347" on="0"/>
        <pt x="423" y="347" on="1"/>
        <pt x="566" y="347" on="0"/>
        <pt x="569" y="168" on="1"/>
        <pt x="291" y="168" on="1"/>
        <pt x="293" y="100" on="0"/>
        <pt x="370" y="25" on="0"/>
        <pt x="431" y="25" on="1"/>
        <pt x="491" y="25" on="0"/>
      </contour>
      <contour>
        <pt x="253" y="143" on="1"/>
        <pt x="253" y="178" on="1"/>
        <pt x="67" y="178" on="0"/>
        <pt x="67" y="92" on="1"/>
        <pt x="67" y="59" on="0"/>
        <pt x="107" y="24" on="0"/>
        <pt x="137" y="24" on="1"/>
        <pt x="181" y="24" on="0"/>
        <pt x="212" y="47" on="1"/>
        <pt x="253" y="78" on="0"/>
      </contour>
      <contour>
        <pt x="293" y="199" on="1"/>
        <pt x="532" y="199" on="1"/>
        <pt x="531" y="240" on="0"/>
        <pt x="509" y="272" on="1"/>
        <pt x="479" y="316" on="0"/>
        <pt x="418" y="316" on="1"/>
        <pt x="363" y="316" on="0"/>
        <pt x="328" y="276" on="1"/>
        <pt x="300" y="244" on="0"/>
      </contour>
    </TTGlyph>
    <TTGlyph name="agrave" xMin="26" yMin="-9" xMax="1625" yMax="1161">
      <component glyphName="a" x="0" y="0" flags="0x204"/>
      <component glyphName="gravecomb" x="272" y="0" flags="0x4"/>
    </TTGlyph>
    <TTGlyph name="ampersand" xMin="19" yMin="-9" xMax="430" yMax="493">
      <contour>
        <pt x="413" y="256" on="1"/>
        <pt x="389" y="129" on="0"/>
        <pt x="346" y="80" on="1"/>
        <pt x="384" y="42" on="0"/>
        <pt x="430" y="0" on="1"/>
        <pt x="380" y="0" on="1"/>
        <pt x="361" y="18" on="0"/>
        <pt x="324" y="53" on="1"/>
        <pt x="250" y="-9" on="0"/>
        <pt x="163" y="-9" on="1"/>
        <pt x="103" y="-9" on="0"/>
        <pt x="19" y="70" on="0"/>
        <pt x="19" y="128" on="1"/>
        <pt x="19" y="223" on="0"/>
        <pt x="120" y="273" on="1"/>
        <pt x="77" y="330" on="0"/>
        <pt x="77" y="375" on="1"/>
        <pt x="77" y="423" on="0"/>
        <pt x="141" y="493" on="0"/>
        <pt x="195" y="493" on="1"/>
        <pt x="239" y="493" on="0"/>
        <pt x="295" y="438" on="0"/>
        <pt x="295" y="395" on="1"/>
        <pt x="295" y="315" on="0"/>
        <pt x="173" y="260" on="1"/>
        <pt x="231" y="196" on="0"/>
        <pt x="323" y="101" on="1"/>
        <pt x="357" y="147" on="0"/>
        <pt x="376" y="256" on="1"/>
      </contour>
      <contour>
        <pt x="260" y="391" on="1"/>
        <pt x="260" y="420" on="0"/>
        <pt x="244" y="440" on="1"/>
        <pt x="225" y="463" on="0"/>
        <pt x="191" y="463" on="1"/>
        <pt x="156" y="463" on="0"/>
        <pt x="114" y="413" on="0"/>
        <pt x="114" y="379" on="1"/>
        <pt x="114" y="340" on="0"/>
        <pt x="156" y="285" on="1"/>
        <pt x="260" y="335" on="0"/>
      </contour>
      <contour>
        <pt x="301" y="77" on="1"/>
        <pt x="210" y="168" on="0"/>
        <pt x="140" y="248" on="1"/>
        <pt x="57" y="204" on="0"/>
        <pt x="57" y="133" on="1"/>
        <pt x="57" y="84" on="0"/>
        <pt x="123" y="23" on="0"/>
        <pt x="172" y="23" on="1"/>
        <pt x="247" y="23" on="0"/>
      </contour>
    </TTGlyph>
    <TTGlyph name="approxequal" xMin="45" yMin="75" xMax="366" yMax="306">
      <contour>
        <pt x="366" y="306" on="1"/>
        <pt x="366" y="300" on="1"/>
        <pt x="366" y="254" on="0"/>
        <pt x="341" y="229" on="1"/>
        <pt x="320" y="208" on="0"/>
        <pt x="288" y="208" on="1"/>
        <pt x="249" y="208" on="0"/>
        <pt x="160" y="273" on="0"/>
        <pt x="125" y="273" on="1"/>
        <pt x="78" y="273" on="0"/>
        <pt x="76" y="208" on="1"/>
        <pt x="45" y="208" on="1"/>
        <pt x="45" y="216" on="1"/>
        <pt x="45" y="258" on="0"/>
        <pt x="92" y="306" on="0"/>
        <pt x="125" y="306" on="1"/>
        <pt x="163" y="306" on="0"/>
        <pt x="254" y="243" on="0"/>
        <pt x="290" y="243" on="1"/>
        <pt x="333" y="243" on="0"/>
        <pt x="335" y="306" on="1"/>
      </contour>
      <contour>
        <pt x="366" y="173" on="1"/>
        <pt x="366" y="167" on="1"/>
        <pt x="366" y="121" on="0"/>
        <pt x="341" y="96" on="1"/>
        <pt x="320" y="75" on="0"/>
        <pt x="288" y="75" on="1"/>
        <pt x="249" y="75" on="0"/>
        <pt x="160" y="140" on="0"/>
        <pt x="125" y="140" on="1"/>
        <pt x="78" y="140" on="0"/>
        <pt x="76" y="75" on="1"/>
        <pt x="45" y="75" on="1"/>
        <pt x="45" y="83" on="1"/>
        <pt x="45" y="125" on="0"/>
        <pt x="92" y="173" on="0"/>
        <pt x="125" y="173" on="1"/>
        <pt x="163" y="173" on="0"/>
        <pt x="254" y="110" on="0"/>
        <pt x="290" y="110" on="1"/>
        <pt x="333" y="110" on="0"/>
        <pt x="335" y="173" on="1"/>
      </contour>
    </TTGlyph>
    <TTGlyph name="aring" xMin="26" yMin="-9" xMax="304" yMax="651">
      <component glyphName="a" x="0" y="0" flags="0x204"/>
      <component glyphName="ring" x="22" y="0" flags="0x4"/>
    </TTGlyph>
    <TTGlyph name="asciicircum" xMin="43" yMin="159" xMax="367" yMax="480">
      <contour>
        <pt x="223" y="480" on="1"/>
        <pt x="367" y="159" on="1"/>
        <pt x="330" y="159" on="1"/>
        <pt x="205" y="442" on="1"/>
        <pt x="80" y="159" on="1"/>
        <pt x="43" y="159" on="1"/>
        <pt x="187" y="480" on="1"/>
      </contour>
    </TTGlyph>
    <TTGlyph name="asciitilde" xMin="26" yMin="151" xMax="389" yMax="249">
      <contour>
        <pt x="389" y="249" on="1"/>
        <pt x="389" y="243" on="1"/>
        <pt x="389" y="197" on="0"/>
        <pt x="364" y="172" on="1"/>
        <pt x="343" y="151" on="0"/>
        <pt x="311" y="151" on="1"/>
        <pt x="272" y="151" on="0"/>
        <pt x="141" y="216" on="0"/>
        <pt x="106" y="216" on="1"/>
        <pt x="59" y="216" on="0"/>
        <pt x="57" y="151" on="1"/>
        <pt x="26" y="151" on="1"/>
        <pt x="26" y="159" on="1"/>
        <pt x="26" y="201" on="0"/>
        <pt x="73" y="249" on="0"/>
        <pt x="106" y="249" on="1"/>
        <pt x="144" y="249" on="0"/>
        <pt x="277" y="186" on="0"/>
        <pt x="313" y="186" on="1"/>
        <pt x="356" y="186" on="0"/>
        <pt x="358" y="249" on="1"/>
      </contour>
    </TTGlyph>
    <TTGlyph name="asterisk" xMin="18" yMin="258" xMax="267" yMax="494">
      <contour>
        <pt x="267" y="356" on="1"/>
        <pt x="164" y="365" on="1"/>
        <pt x="228" y="279" on="1"/>
        <pt x="195" y="258" on="1"/>
        <pt x="142" y="357" on="1"/>
        <pt x="90" y="258" on="1"/>
        <pt x="57" y="279" on="1"/>
        <pt x="121" y="365" on="1"/>
        <pt x="18" y="356" on="1"/>
        <pt x="18" y="394" on="1"/>
        <pt x="121" y="387" on="1"/>
        <pt x="57" y="472" on="1"/>
        <pt x="95" y="494" on="1"/>
        <pt x="143" y="402" on="1"/>
        <pt x="190" y="494" on="1"/>
        <pt x="228" y="472" on="1"/>
        <pt x="164" y="387" on="1"/>
        <pt x="267" y="394" on="1"/>
      </contour>
    </TTGlyph>
    <TTGlyph name="at" xMin="23" yMin="-97" xMax="510" yMax="394">
      <contour>
        <pt x="510" y="176" on="1"/>
        <pt x="510" y="108" on="0"/>
        <pt x="426" y="12" on="0"/>
        <pt x="377" y="9" on="1"/>
        <pt x="346" y="7" on="1"/>
        <pt x="336" y="52" on="1"/>
        <pt x="296" y="1" on="0"/>
        <pt x="230" y="1" on="1"/>
        <pt x="218" y="1" on="0"/>
        <pt x="211" y="2" on="1"/>
        <pt x="179" y="7" on="0"/>
        <pt x="134" y="53" on="0"/>
        <pt x="134" y="83" on="1"/>
        <pt x="134" y="195" on="0"/>
        <pt x="334" y="195" on="1"/>
        <pt x="334" y="200" on="1"/>
        <pt x="334" y="285" on="0"/>
        <pt x="253" y="285" on="1"/>
        <pt x="209" y="285" on="0"/>
        <pt x="178" y="261" on="1"/>
        <pt x="167" y="286" on="1"/>
        <pt x="206" y="315" on="0"/>
        <pt x="255" y="315" on="1"/>
        <pt x="369" y="315" on="0"/>
        <pt x="369" y="188" on="1"/>
        <pt x="369" y="81" on="1"/>
        <pt x="369" y="59" on="0"/>
        <pt x="373" y="40" on="1"/>
        <pt x="412" y="42" on="0"/>
        <pt x="476" y="120" on="0"/>
        <pt x="476" y="173" on="1"/>
        <pt x="476" y="256" on="0"/>
        <pt x="372" y="365" on="0"/>
        <pt x="283" y="365" on="1"/>
        <pt x="189" y="365" on="0"/>
        <pt x="127" y="303" on="1"/>
        <pt x="61" y="237" on="0"/>
        <pt x="61" y="133" on="1"/>
        <pt x="61" y="47" on="0"/>
        <pt x="171" y="-66" on="0"/>
        <pt x="252" y="-66" on="1"/>
        <pt x="321" y="-66" on="0"/>
        <pt x="369" y="-36" on="1"/>
        <pt x="383" y="-65" on="1"/>
        <pt x="323" y="-97" on="0"/>
        <pt x="249" y="-97" on="1"/>
        <pt x="155" y="-97" on="0"/>
        <pt x="23" y="31" on="0"/>
        <pt x="23" y="130" on="1"/>
        <pt x="23" y="239" on="0"/>
        <pt x="93" y="314" on="1"/>
        <pt x="167" y="394" on="0"/>
        <pt x="288" y="394" on="1"/>
        <pt x="388" y="394" on="0"/>
        <pt x="510" y="270" on="0"/>
      </contour>
      <contour>
        <pt x="334" y="105" on="1"/>
        <pt x="334" y="166" on="1"/>
        <pt x="171" y="164" on="0"/>
        <pt x="171" y="89" on="1"/>
        <pt x="171" y="29" on="0"/>
        <pt x="232" y="29" on="1"/>
        <pt x="304" y="29" on="0"/>
        <pt x="332" y="92" on="1"/>
        <pt x="334" y="96" on="0"/>
      </contour>
    </TTGlyph>
    <TTGlyph name="atilde" xMin="26" yMin="-9" xMax="1234" yMax="860">
      <component glyphName="a" x="0" y="0" flags="0x204"/>
      <component glyphName="tildecomb" x="276" y="0" flags="0x4"/>
    </TTGlyph>
    <TTGlyph name="b" xMin="49" yMin="-9" xMax="373" yMax="505">
      <contour>
        <pt x="373" y="174" on="1"/>
        <pt x="373" y="92" on="0"/>
        <pt x="287" y="-9" on="0"/>
        <pt x="214" y="-9" on="1"/>
        <pt x="134" y="-9" on="0"/>
        <pt x="87" y="60" on="1"/>
        <pt x="87" y="26" on="0"/>
        <pt x="85" y="0" on="1"/>
        <pt x="49" y="0" on="1"/>
        <pt x="52" y="26" on="0"/>
        <pt x="52" y="83" on="1"/>
        <pt x="52" y="505" on="1"/>
        <pt x="91" y="505" on="1"/>
        <pt x="91" y="275" on="1"/>
        <pt x="135" y="347" on="0"/>
        <pt x="220" y="347" on="1"/>
        <pt x="291" y="347" on="0"/>
        <pt x="373" y="249" on="0"/>
      </contour>
      <contour>
        <pt x="335" y="173" on="1"/>
        <pt x="335" y="236" on="0"/>
        <pt x="271" y="316" on="0"/>
        <pt x="213" y="316" on="1"/>
        <pt x="165" y="316" on="0"/>
        <pt x="130" y="283" on="1"/>
        <pt x="91" y="248" on="0"/>
        <pt x="91" y="193" on="1"/>
        <pt x="91" y="136" on="1"/>
        <pt x="91" y="88" on="0"/>
        <pt x="159" y="24" on="0"/>
        <pt x="209" y="24" on="1"/>
        <pt x="335" y="24" on="0"/>
      </contour>
    </TTGlyph>
    <TTGlyph name="backslash" xMin="-9" yMin="-28" xMax="279" yMax="483">
      <contour>
        <pt x="279" y="-28" on="1"/>
        <pt x="239" y="-28" on="1"/>
        <pt x="-9" y="483" on="1"/>
        <pt x="30" y="483" on="1"/>
      </contour>
    </TTGlyph>
    <TTGlyph name="bar" xMin="60" yMin="-174" xMax="93" yMax="528">
      <contour>
        <pt x="93" y="528" on="1"/>
        <pt x="93" y="-174" on="1"/>
        <pt x="60" y="-174" on="1"/>
        <pt x="60" y="528" on="1"/>
      </contour>
    </TTGlyph>
    <TTGlyph name="braceleft" xMin="13" yMin="-77" xMax="180" yMax="483">
      <contour>
        <pt x="180" y="-47" on="1"/>
        <pt x="180" y="-77" on="1"/>
        <pt x="169" y="-77" on="1"/>
        <pt x="61" y="-77" on="0"/>
        <pt x="61" y="18" on="1"/>
        <pt x="61" y="37" on="0"/>
        <pt x="75" y="116" on="0"/>
        <pt x="75" y="136" on="1"/>
        <pt x="75" y="186" on="0"/>
        <pt x="13" y="188" on="1"/>
        <pt x="13" y="218" on="1"/>
        <pt x="75" y="220" on="0"/>
        <pt x="75" y="270" on="1"/>
        <pt x="75" y="290" on="0"/>
        <pt x="61" y="369" on="0"/>
        <pt x="61" y="388" on="1"/>
        <pt x="61" y="483" on="0"/>
        <pt x="169" y="483" on="1"/>
        <pt x="180" y="483" on="1"/>
        <pt x="180" y="453" on="1"/>
        <pt x="165" y="453" on="1"/>
        <pt x="96" y="453" on="0"/>
        <pt x="96" y="384" on="1"/>
        <pt x="110" y="283" on="0"/>
        <pt x="110" y="273" on="1"/>
        <pt x="110" y="222" on="0"/>
        <pt x="70" y="203" on="1"/>
        <pt x="110" y="184" on="0"/>
        <pt x="110" y="133" on="1"/>
        <pt x="110" y="123" on="0"/>
        <pt x="96" y="22" on="1"/>
        <pt x="96" y="-47" on="0"/>
        <pt x="165" y="-47" on="1"/>
      </contour>
    </TTGlyph>
    <TTGlyph name="braceright" xMin="28" yMin="-77" xMax="195" yMax="483">
      <contour>
        <pt x="28" y="-77" on="1"/>
        <pt x="28" y="-47" on="1"/>
        <pt x="43" y="-47" on="1"/>
        <pt x="112" y="-47" on="0"/>
        <pt x="112" y="22" on="1"/>
        <pt x="98" y="123" on="0"/>
        <pt x="98" y="133" on="1"/>
        <pt x="98" y="184" on="0"/>
        <pt x="138" y="203" on="1"/>
        <pt x="98" y="222" on="0"/>
        <pt x="98" y="273" on="1"/>
        <pt x="98" y="283" on="0"/>
        <pt x="112" y="384" on="1"/>
        <pt x="112" y="453" on="0"/>
        <pt x="43" y="453" on="1"/>
        <pt x="28" y="453" on="1"/>
        <pt x="28" y="483" on="1"/>
        <pt x="39" y="483" on="1"/>
        <pt x="147" y="483" on="0"/>
        <pt x="147" y="388" on="1"/>
        <pt x="147" y="369" on="0"/>
        <pt x="133" y="290" on="0"/>
        <pt x="133" y="270" on="1"/>
        <pt x="133" y="220" on="0"/>
        <pt x="195" y="218" on="1"/>
        <pt x="195" y="188" on="1"/>
        <pt x="133" y="186" on="0"/>
        <pt x="133" y="136" on="1"/>
        <pt x="133" y="116" on="0"/>
        <pt x="147" y="37" on="0"/>
        <pt x="147" y="18" on="1"/>
        <pt x="147" y="-77" on="0"/>
        <pt x="39" y="-77" on="1"/>
      </contour>
    </TTGlyph>
    <TTGlyph name="bracketleft" xMin="52" yMin="-78" xMax="185" yMax="506">
      <contour>
        <pt x="185" y="-48" on="1"/>
        <pt x="185" y="-78" on="1"/>
        <pt x="52" y="-78" on="1"/>
        <pt x="52" y="506" on="1"/>
        <pt x="185" y="506" on="1"/>
        <pt x="185" y="476" on="1"/>
        <pt x="87" y="476" on="1"/>
        <pt x="87" y="-48" on="1"/>
      </contour>
    </TTGlyph>
    <TTGlyph name="bracketright" xMin="11" yMin="-78" xMax="145" yMax="506">
      <contour>
        <pt x="145" y="-78" on="1"/>
        <pt x="11" y="-78" on="1"/>
        <pt x="11" y="-48" on="1"/>
        <pt x="109" y="-48" on="1"/>
        <pt x="109" y="476" on="1"/>
        <pt x="11" y="476" on="1"/>
        <pt x="11" y="506" on="1"/>
        <pt x="145" y="506" on="1"/>
      </contour>
    </TTGlyph>
    <TTGlyph name="breve" xMin="60" yMin="385" xMax="239" yMax="453">
      <contour>
        <pt x="239" y="453" on="1"/>
        <pt x="234" y="426" on="0"/>
        <pt x="215" y="409" on="1"/>
        <pt x="189" y="385" on="0"/>
        <pt x="150" y="385" on="1"/>
        <pt x="111" y="385" on="0"/>
        <pt x="84" y="409" on="1"/>
        <pt x="66" y="426" on="0"/>
        <pt x="60" y="453" on="1"/>
        <pt x="95" y="453" on="1"/>
        <pt x="99" y="442" on="0"/>
        <pt x="106" y="434" on="1"/>
        <pt x="122" y="416" on="0"/>
        <pt x="150" y="416" on="1"/>
        <pt x="178" y="416" on="0"/>
        <pt x="193" y="434" on="1"/>
        <pt x="201" y="442" on="0"/>
        <pt x="205" y="453" on="1"/>
      </contour>
    </TTGlyph>
    <TTGlyph name="brokenbar" xMin="60" yMin="-123" xMax="93" yMax="475">
      <contour>
        <pt x="93" y="227" on="1"/>
        <pt x="60" y="227" on="1"/>
        <pt x="60" y="475" on="1"/>
        <pt x="93" y="475" on="1"/>
      </contour>
      <contour>
        <pt x="93" y="-123" on="1"/>
        <pt x="60" y="-123" on="1"/>
        <pt x="60" y="126" on="1"/>
        <pt x="93" y="126" on="1"/>
      </contour>
    </TTGlyph>
    <TTGlyph name="bullet" xMin="24" yMin="116" xMax="192" yMax="284">
      <contour>
        <pt x="192" y="200" on="1"/>
        <pt x="192" y="165" on="0"/>
        <pt x="143" y="116" on="0"/>
        <pt x="108" y="116" on="1"/>
        <pt x="73" y="116" on="0"/>
        <pt x="24" y="165" on="0"/>
        <pt x="24" y="200" on="1"/>
        <pt x="24" y="235" on="0"/>
        <pt x="72" y="284" on="0"/>
        <pt x="108" y="284" on="1"/>
        <pt x="143" y="284" on="0"/>
        <pt x="192" y="234" on="0"/>
      </contour>
    </TTGlyph>
    <TTGlyph name="c" xMin="27" yMin="-9" xMax="312" yMax="347">
      <contour>
        <pt x="298" y="47" on="1"/>
        <pt x="312" y="15" on="1"/>
        <pt x="269" y="-9" on="0"/>
        <pt x="207" y="-9" on="1"/>
        <pt x="123" y="-9" on="0"/>
        <pt x="27" y="88" on="0"/>
        <pt x="27" y="169" on="1"/>
        <pt x="27" y="250" on="0"/>
        <pt x="123" y="347" on="0"/>
        <pt x="207" y="347" on="1"/>
        <pt x="269" y="347" on="0"/>
        <pt x="312" y="323" on="1"/>
        <pt x="298" y="291" on="1"/>
        <pt x="261" y="315" on="0"/>
        <pt x="205" y="315" on="1"/>
        <pt x="144" y="315" on="0"/>
        <pt x="65" y="237" on="0"/>
        <pt x="65" y="169" on="1"/>
        <pt x="65" y="101" on="0"/>
        <pt x="144" y="23" on="0"/>
        <pt x="205" y="23" on="1"/>
        <pt x="261" y="23" on="0"/>
      </contour>
    </TTGlyph>
    <TTGlyph name="cacute" xMin="27" yMin="-9" xMax="5621" yMax="1892">
      <component glyphName="c" x="0" y="0" flags="0x204"/>
      <component glyphName="acutecomb" x="276" y="0" flags="0x4"/>
    </TTGlyph>
    <TTGlyph name="caron" xMin="288" yMin="656" xMax="454" yMax="734">
      <contour>
        <pt x="385" y="656" on="1"/>
        <pt x="357" y="656" on="1"/>
        <pt x="288" y="734" on="1"/>
        <pt x="325" y="734" on="1"/>
        <pt x="371" y="682" on="1"/>
        <pt x="417" y="734" on="1"/>
        <pt x="454" y="734" on="1"/>
      </contour>
    </TTGlyph>
    <TTGlyph name="ccaron" xMin="27" yMin="-9" xMax="676" yMax="870">
      <component glyphName="c" x="0" y="0" flags="0x204"/>
      <component glyphName="caron" x="93" y="0" flags="0x4"/>
    </TTGlyph>
    <TTGlyph name="ccedilla" xMin="27" yMin="-124" xMax="317" yMax="347">
      <component glyphName="c" x="0" y="0" flags="0x204"/>
      <component glyphName="cedilla" x="81" y="0" scale="0.900024414062" flags="0x4"/>
    </TTGlyph>
    <TTGlyph name="cedilla" xMin="35" yMin="-139" xMax="153" yMax="4">
      <contour>
        <pt x="153" y="-81" on="1"/>
        <pt x="153" y="-139" on="0"/>
        <pt x="83" y="-139" on="1"/>
        <pt x="59" y="-139" on="0"/>
        <pt x="35" y="-126" on="1"/>
        <pt x="45" y="-104" on="1"/>
        <pt x="66" y="-114" on="0"/>
        <pt x="84" y="-114" on="1"/>
        <pt x="122" y="-114" on="0"/>
        <pt x="122" y="-86" on="1"/>
        <pt x="122" y="-61" on="0"/>
        <pt x="59" y="-56" on="1"/>
        <pt x="98" y="4" on="1"/>
        <pt x="130" y="4" on="1"/>
        <pt x="103" y="-34" on="1"/>
        <pt x="153" y="-46" on="0"/>
      </contour>
    </TTGlyph>
    <TTGlyph name="cent" xMin="32" yMin="-59" xMax="378" yMax="542">
      <contour>
        <pt x="378" y="48" on="1"/>
        <pt x="330" y="22" on="0"/>
        <pt x="247" y="22" on="1"/>
        <pt x="242" y="22" on="1"/>
        <pt x="242" y="-59" on="1"/>
        <pt x="209" y="-59" on="1"/>
        <pt x="209" y="24" on="1"/>
        <pt x="133" y="35" on="0"/>
        <pt x="85" y="85" on="1"/>
        <pt x="32" y="140" on="0"/>
        <pt x="32" y="238" on="1"/>
        <pt x="32" y="321" on="0"/>
        <pt x="76" y="376" on="1"/>
        <pt x="124" y="436" on="0"/>
        <pt x="209" y="451" on="1"/>
        <pt x="209" y="542" on="1"/>
        <pt x="242" y="542" on="1"/>
        <pt x="242" y="455" on="1"/>
        <pt x="249" y="456" on="0"/>
        <pt x="263" y="456" on="1"/>
        <pt x="323" y="456" on="0"/>
        <pt x="375" y="437" on="1"/>
        <pt x="367" y="401" on="1"/>
        <pt x="322" y="424" on="0"/>
        <pt x="265" y="424" on="1"/>
        <pt x="173" y="424" on="0"/>
        <pt x="71" y="327" on="0"/>
        <pt x="71" y="236" on="1"/>
        <pt x="71" y="150" on="0"/>
        <pt x="118" y="105" on="1"/>
        <pt x="168" y="57" on="0"/>
        <pt x="259" y="57" on="1"/>
        <pt x="322" y="57" on="0"/>
        <pt x="366" y="77" on="1"/>
      </contour>
    </TTGlyph>
    <TTGlyph name="circumflex" xMin="741" yMin="1072" xMax="907" yMax="1150">
      <contour>
        <pt x="838" y="1150" on="1"/>
        <pt x="907" y="1072" on="1"/>
        <pt x="870" y="1072" on="1"/>
        <pt x="824" y="1124" on="1"/>
        <pt x="778" y="1072" on="1"/>
        <pt x="741" y="1072" on="1"/>
        <pt x="810" y="1150" on="1"/>
      </contour>
    </TTGlyph>
    <TTGlyph name="colon" xMin="46" yMin="-6" xMax="115" yMax="318">
      <contour>
        <pt x="115" y="28" on="1"/>
        <pt x="115" y="14" on="0"/>
        <pt x="94" y="-6" on="0"/>
        <pt x="80" y="-6" on="1"/>
        <pt x="66" y="-6" on="0"/>
        <pt x="46" y="14" on="0"/>
        <pt x="46" y="28" on="1"/>
        <pt x="46" y="42" on="0"/>
        <pt x="66" y="63" on="0"/>
        <pt x="80" y="63" on="1"/>
        <pt x="94" y="63" on="0"/>
        <pt x="115" y="42" on="0"/>
      </contour>
      <contour>
        <pt x="115" y="283" on="1"/>
        <pt x="115" y="269" on="0"/>
        <pt x="94" y="249" on="0"/>
        <pt x="80" y="249" on="1"/>
        <pt x="66" y="249" on="0"/>
        <pt x="46" y="269" on="0"/>
        <pt x="46" y="283" on="1"/>
        <pt x="46" y="297" on="0"/>
        <pt x="66" y="318" on="0"/>
        <pt x="80" y="318" on="1"/>
        <pt x="94" y="318" on="0"/>
        <pt x="115" y="297" on="0"/>
      </contour>
    </TTGlyph>
    <TTGlyph name="comma" xMin="30" yMin="-109" xMax="123" yMax="68">
      <contour>
        <pt x="123" y="27" on="1"/>
        <pt x="121" y="-27" on="0"/>
        <pt x="90" y="-68" on="1"/>
        <pt x="69" y="-97" on="0"/>
        <pt x="44" y="-109" on="1"/>
        <pt x="30" y="-94" on="1"/>
        <pt x="82" y="-59" on="0"/>
        <pt x="88" y="-7" on="1"/>
        <pt x="72" y="-7" on="0"/>
        <pt x="49" y="15" on="0"/>
        <pt x="49" y="30" on="1"/>
        <pt x="49" y="45" on="0"/>
        <pt x="71" y="68" on="0"/>
        <pt x="86" y="68" on="1"/>
        <pt x="102" y="68" on="0"/>
        <pt x="123" y="44" on="0"/>
      </contour>
    </TTGlyph>
    <TTGlyph name="copyright" xMin="25" yMin="-3" xMax="511" yMax="483">
      <contour>
        <pt x="370" y="117" on="1"/>
        <pt x="332" y="88" on="0"/>
        <pt x="265" y="88" on="1"/>
        <pt x="200" y="88" on="0"/>
        <pt x="122" y="172" on="0"/>
        <pt x="122" y="233" on="1"/>
        <pt x="122" y="303" on="0"/>
        <pt x="204" y="384" on="0"/>
        <pt x="270" y="384" on="1"/>
        <pt x="333" y="384" on="0"/>
        <pt x="365" y="360" on="1"/>
        <pt x="353" y="330" on="1"/>
        <pt x="315" y="352" on="0"/>
        <pt x="270" y="352" on="1"/>
        <pt x="162" y="346" on="0"/>
        <pt x="162" y="238" on="1"/>
        <pt x="162" y="129" on="0"/>
        <pt x="271" y="123" on="1"/>
        <pt x="322" y="123" on="0"/>
        <pt x="357" y="148" on="1"/>
      </contour>
      <contour>
        <pt x="511" y="240" on="1"/>
        <pt x="511" y="140" on="0"/>
        <pt x="368" y="-3" on="0"/>
        <pt x="268" y="-3" on="1"/>
        <pt x="168" y="-3" on="0"/>
        <pt x="25" y="140" on="0"/>
        <pt x="25" y="240" on="1"/>
        <pt x="25" y="340" on="0"/>
        <pt x="168" y="483" on="0"/>
        <pt x="268" y="483" on="1"/>
        <pt x="368" y="483" on="0"/>
        <pt x="511" y="340" on="0"/>
      </contour>
      <contour>
        <pt x="475" y="240" on="1"/>
        <pt x="475" y="326" on="0"/>
        <pt x="354" y="447" on="0"/>
        <pt x="268" y="447" on="1"/>
        <pt x="182" y="447" on="0"/>
        <pt x="61" y="326" on="0"/>
        <pt x="61" y="240" on="1"/>
        <pt x="61" y="154" on="0"/>
        <pt x="182" y="33" on="0"/>
        <pt x="268" y="33" on="1"/>
        <pt x="354" y="33" on="0"/>
        <pt x="475" y="154" on="0"/>
      </contour>
    </TTGlyph>
    <TTGlyph name="currency" xMin="22" yMin="43" xMax="389" yMax="410">
      <contour>
        <pt x="387" y="225" on="1"/>
        <pt x="387" y="159" on="0"/>
        <pt x="349" y="114" on="1"/>
        <pt x="389" y="73" on="1"/>
        <pt x="360" y="43" on="1"/>
        <pt x="318" y="85" on="1"/>
        <pt x="272" y="43" on="0"/>
        <pt x="204" y="43" on="1"/>
        <pt x="139" y="43" on="0"/>
        <pt x="91" y="85" on="1"/>
        <pt x="51" y="43" on="1"/>
        <pt x="22" y="73" on="1"/>
        <pt x="61" y="114" on="1"/>
        <pt x="22" y="162" on="0"/>
        <pt x="22" y="225" on="1"/>
        <pt x="22" y="289" on="0"/>
        <pt x="61" y="339" on="1"/>
        <pt x="22" y="379" on="1"/>
        <pt x="51" y="410" on="1"/>
        <pt x="91" y="368" on="1"/>
        <pt x="143" y="409" on="0"/>
        <pt x="204" y="409" on="1"/>
        <pt x="268" y="409" on="0"/>
        <pt x="318" y="368" on="1"/>
        <pt x="361" y="410" on="1"/>
        <pt x="389" y="379" on="1"/>
        <pt x="349" y="339" on="1"/>
        <pt x="387" y="295" on="0"/>
      </contour>
      <contour>
        <pt x="347" y="225" on="1"/>
        <pt x="347" y="285" on="0"/>
        <pt x="264" y="374" on="0"/>
        <pt x="204" y="374" on="1"/>
        <pt x="146" y="374" on="0"/>
        <pt x="61" y="286" on="0"/>
        <pt x="61" y="225" on="1"/>
        <pt x="61" y="164" on="0"/>
        <pt x="146" y="79" on="0"/>
        <pt x="204" y="79" on="1"/>
        <pt x="264" y="79" on="0"/>
        <pt x="347" y="166" on="0"/>
      </contour>
    </TTGlyph>
    <TTGlyph name="d" xMin="28" yMin="-9" xMax="352" yMax="505">
      <contour>
        <pt x="352" y="0" on="1"/>
        <pt x="316" y="0" on="1"/>
        <pt x="314" y="26" on="0"/>
        <pt x="314" y="60" on="1"/>
        <pt x="267" y="-9" on="0"/>
        <pt x="187" y="-9" on="1"/>
        <pt x="114" y="-9" on="0"/>
        <pt x="28" y="92" on="0"/>
        <pt x="28" y="174" on="1"/>
        <pt x="28" y="249" on="0"/>
        <pt x="110" y="347" on="0"/>
        <pt x="181" y="347" on="1"/>
        <pt x="266" y="347" on="0"/>
        <pt x="310" y="275" on="1"/>
        <pt x="310" y="505" on="1"/>
        <pt x="349" y="505" on="1"/>
        <pt x="349" y="83" on="1"/>
        <pt x="349" y="26" on="0"/>
      </contour>
      <contour>
        <pt x="310" y="136" on="1"/>
        <pt x="310" y="193" on="1"/>
        <pt x="310" y="248" on="0"/>
        <pt x="271" y="283" on="1"/>
        <pt x="236" y="316" on="0"/>
        <pt x="188" y="316" on="1"/>
        <pt x="130" y="316" on="0"/>
        <pt x="66" y="236" on="0"/>
        <pt x="66" y="173" on="1"/>
        <pt x="66" y="24" on="0"/>
        <pt x="192" y="24" on="1"/>
        <pt x="242" y="24" on="0"/>
        <pt x="310" y="88" on="0"/>
      </contour>
    </TTGlyph>
    <TTGlyph name="dagger" xMin="39" yMin="-34" xMax="335" yMax="474">
      <contour>
        <pt x="335" y="322" on="1"/>
        <pt x="335" y="289" on="1"/>
        <pt x="205" y="293" on="1"/>
        <pt x="205" y="-34" on="1"/>
        <pt x="169" y="-34" on="1"/>
        <pt x="169" y="293" on="1"/>
        <pt x="39" y="289" on="1"/>
        <pt x="39" y="322" on="1"/>
        <pt x="169" y="318" on="1"/>
        <pt x="169" y="474" on="1"/>
        <pt x="205" y="474" on="1"/>
        <pt x="205" y="318" on="1"/>
      </contour>
    </TTGlyph>
    <TTGlyph name="daggerdbl" xMin="39" yMin="-34" xMax="335" yMax="474">
      <contour>
        <pt x="335" y="322" on="1"/>
        <pt x="335" y="289" on="1"/>
        <pt x="205" y="293" on="1"/>
        <pt x="205" y="141" on="1"/>
        <pt x="335" y="145" on="1"/>
        <pt x="335" y="112" on="1"/>
        <pt x="205" y="116" on="1"/>
        <pt x="205" y="-34" on="1"/>
        <pt x="169" y="-34" on="1"/>
        <pt x="169" y="116" on="1"/>
        <pt x="39" y="112" on="1"/>
        <pt x="39" y="145" on="1"/>
        <pt x="169" y="141" on="1"/>
        <pt x="169" y="293" on="1"/>
        <pt x="39" y="289" on="1"/>
        <pt x="39" y="322" on="1"/>
        <pt x="169" y="318" on="1"/>
        <pt x="169" y="474" on="1"/>
        <pt x="205" y="474" on="1"/>
        <pt x="205" y="318" on="1"/>
      </contour>
    </TTGlyph>
    <TTGlyph name="dcroat" xMin="28" yMin="-9" xMax="397" yMax="505">
      <contour>
        <pt x="397" y="426" on="1"/>
        <pt x="349" y="426" on="1"/>
        <pt x="349" y="83" on="1"/>
        <pt x="349" y="26" on="0"/>
        <pt x="352" y="0" on="1"/>
        <pt x="316" y="0" on="1"/>
        <pt x="314" y="26" on="0"/>
        <pt x="314" y="60" on="1"/>
        <pt x="268" y="-9" on="0"/>
        <pt x="187" y="-9" on="1"/>
        <pt x="114" y="-9" on="0"/>
        <pt x="28" y="92" on="0"/>
        <pt x="28" y="174" on="1"/>
        <pt x="28" y="249" on="0"/>
        <pt x="110" y="347" on="0"/>
        <pt x="181" y="347" on="1"/>
        <pt x="267" y="347" on="0"/>
        <pt x="310" y="275" on="1"/>
        <pt x="310" y="426" on="1"/>
        <pt x="180" y="426" on="1"/>
        <pt x="180" y="459" on="1"/>
        <pt x="310" y="459" on="1"/>
        <pt x="310" y="505" on="1"/>
        <pt x="349" y="505" on="1"/>
        <pt x="349" y="459" on="1"/>
        <pt x="397" y="459" on="1"/>
      </contour>
      <contour>
        <pt x="310" y="136" on="1"/>
        <pt x="310" y="193" on="1"/>
        <pt x="310" y="248" on="0"/>
        <pt x="236" y="316" on="0"/>
        <pt x="188" y="316" on="1"/>
        <pt x="130" y="316" on="0"/>
        <pt x="66" y="236" on="0"/>
        <pt x="66" y="173" on="1"/>
        <pt x="66" y="24" on="0"/>
        <pt x="192" y="24" on="1"/>
        <pt x="242" y="24" on="0"/>
        <pt x="310" y="88" on="0"/>
      </contour>
    </TTGlyph>
    <TTGlyph name="degree" xMin="20" yMin="312" xMax="191" yMax="483">
      <contour>
        <pt x="191" y="397" on="1"/>
        <pt x="191" y="362" on="0"/>
        <pt x="140" y="312" on="0"/>
        <pt x="105" y="312" on="1"/>
        <pt x="70" y="312" on="0"/>
        <pt x="20" y="362" on="0"/>
        <pt x="20" y="397" on="1"/>
        <pt x="20" y="432" on="0"/>
        <pt x="70" y="483" on="0"/>
        <pt x="105" y="483" on="1"/>
        <pt x="140" y="483" on="0"/>
        <pt x="191" y="432" on="0"/>
      </contour>
      <contour>
        <pt x="161" y="397" on="1"/>
        <pt x="161" y="420" on="0"/>
        <pt x="128" y="454" on="0"/>
        <pt x="105" y="454" on="1"/>
        <pt x="82" y="454" on="0"/>
        <pt x="50" y="420" on="0"/>
        <pt x="50" y="397" on="1"/>
        <pt x="50" y="374" on="0"/>
        <pt x="82" y="341" on="0"/>
        <pt x="105" y="341" on="1"/>
        <pt x="128" y="341" on="0"/>
        <pt x="161" y="374" on="0"/>
      </contour>
    </TTGlyph>
    <TTGlyph name="dieresis" xMin="14" yMin="392" xMax="199" yMax="453">
      <contour>
        <pt x="75" y="422" on="1"/>
        <pt x="75" y="409" on="0"/>
        <pt x="57" y="392" on="0"/>
        <pt x="44" y="392" on="1"/>
        <pt x="31" y="392" on="0"/>
        <pt x="14" y="409" on="0"/>
        <pt x="14" y="422" on="1"/>
        <pt x="14" y="435" on="0"/>
        <pt x="31" y="453" on="0"/>
        <pt x="44" y="453" on="1"/>
        <pt x="57" y="453" on="0"/>
        <pt x="75" y="435" on="0"/>
      </contour>
      <contour>
        <pt x="199" y="422" on="1"/>
        <pt x="199" y="409" on="0"/>
        <pt x="181" y="392" on="0"/>
        <pt x="168" y="392" on="1"/>
        <pt x="155" y="392" on="0"/>
        <pt x="138" y="409" on="0"/>
        <pt x="138" y="422" on="1"/>
        <pt x="138" y="435" on="0"/>
        <pt x="155" y="453" on="0"/>
        <pt x="168" y="453" on="1"/>
        <pt x="181" y="453" on="0"/>
        <pt x="199" y="435" on="0"/>
      </contour>
    </TTGlyph>
    <TTGlyph name="divide" xMin="38" yMin="25" xMax="373" yMax="336">
      <contour>
        <pt x="239" y="302" on="1"/>
        <pt x="239" y="288" on="0"/>
        <pt x="221" y="267" on="0"/>
        <pt x="207" y="267" on="1"/>
        <pt x="192" y="267" on="0"/>
        <pt x="174" y="288" on="0"/>
        <pt x="174" y="302" on="1"/>
        <pt x="175" y="316" on="0"/>
        <pt x="193" y="336" on="0"/>
        <pt x="207" y="336" on="1"/>
        <pt x="221" y="336" on="0"/>
        <pt x="239" y="316" on="0"/>
      </contour>
      <contour>
        <pt x="238" y="59" on="1"/>
        <pt x="238" y="45" on="0"/>
        <pt x="220" y="25" on="0"/>
        <pt x="206" y="25" on="1"/>
        <pt x="191" y="25" on="0"/>
        <pt x="174" y="45" on="0"/>
        <pt x="174" y="59" on="1"/>
        <pt x="174" y="73" on="0"/>
        <pt x="192" y="94" on="0"/>
        <pt x="207" y="94" on="1"/>
        <pt x="221" y="94" on="0"/>
        <pt x="238" y="73" on="0"/>
      </contour>
      <contour>
        <pt x="373" y="165" on="1"/>
        <pt x="38" y="165" on="1"/>
        <pt x="38" y="198" on="1"/>
        <pt x="373" y="198" on="1"/>
      </contour>
    </TTGlyph>
    <TTGlyph name="dollar" xMin="52" yMin="-58" xMax="308" yMax="536">
      <contour>
        <pt x="308" y="133" on="1"/>
        <pt x="308" y="93" on="0"/>
        <pt x="281" y="61" on="1"/>
        <pt x="250" y="26" on="0"/>
        <pt x="196" y="16" on="1"/>
        <pt x="196" y="-58" on="1"/>
        <pt x="161" y="-58" on="1"/>
        <pt x="161" y="16" on="1"/>
        <pt x="97" y="16" on="0"/>
        <pt x="52" y="51" on="1"/>
        <pt x="70" y="82" on="1"/>
        <pt x="110" y="48" on="0"/>
        <pt x="170" y="48" on="1"/>
        <pt x="215" y="48" on="0"/>
        <pt x="270" y="95" on="0"/>
        <pt x="270" y="131" on="1"/>
        <pt x="270" y="189" on="0"/>
        <pt x="182" y="226" on="1"/>
        <pt x="62" y="276" on="0"/>
        <pt x="62" y="350" on="1"/>
        <pt x="62" y="393" on="0"/>
        <pt x="120" y="453" on="0"/>
        <pt x="169" y="460" on="1"/>
        <pt x="169" y="536" on="1"/>
        <pt x="203" y="536" on="1"/>
        <pt x="203" y="460" on="1"/>
        <pt x="252" y="457" on="0"/>
        <pt x="295" y="431" on="1"/>
        <pt x="277" y="399" on="1"/>
        <pt x="243" y="428" on="0"/>
        <pt x="187" y="428" on="1"/>
        <pt x="143" y="428" on="0"/>
        <pt x="119" y="403" on="1"/>
        <pt x="99" y="383" on="0"/>
        <pt x="99" y="355" on="1"/>
        <pt x="99" y="325" on="0"/>
        <pt x="141" y="286" on="0"/>
        <pt x="193" y="263" on="1"/>
        <pt x="252" y="237" on="0"/>
        <pt x="277" y="212" on="1"/>
        <pt x="308" y="180" on="0"/>
      </contour>
    </TTGlyph>
    <TTGlyph name="dong" xMin="23" yMin="-108" xMax="397" yMax="505">
      <contour>
        <pt x="397" y="426" on="1"/>
        <pt x="349" y="426" on="1"/>
        <pt x="349" y="83" on="1"/>
        <pt x="349" y="26" on="0"/>
        <pt x="352" y="0" on="1"/>
        <pt x="316" y="0" on="1"/>
        <pt x="314" y="26" on="0"/>
        <pt x="314" y="60" on="1"/>
        <pt x="268" y="-9" on="0"/>
        <pt x="187" y="-9" on="1"/>
        <pt x="114" y="-9" on="0"/>
        <pt x="28" y="92" on="0"/>
        <pt x="28" y="174" on="1"/>
        <pt x="28" y="249" on="0"/>
        <pt x="110" y="347" on="0"/>
        <pt x="181" y="347" on="1"/>
        <pt x="267" y="347" on="0"/>
        <pt x="310" y="275" on="1"/>
        <pt x="310" y="426" on="1"/>
        <pt x="180" y="426" on="1"/>
        <pt x="180" y="459" on="1"/>
        <pt x="310" y="459" on="1"/>
        <pt x="310" y="505" on="1"/>
        <pt x="349" y="505" on="1"/>
        <pt x="349" y="459" on="1"/>
        <pt x="397" y="459" on="1"/>
      </contour>
      <contour>
        <pt x="310" y="136" on="1"/>
        <pt x="310" y="193" on="1"/>
        <pt x="310" y="248" on="0"/>
        <pt x="236" y="316" on="0"/>
        <pt x="188" y="316" on="1"/>
        <pt x="130" y="316" on="0"/>
        <pt x="66" y="236" on="0"/>
        <pt x="66" y="173" on="1"/>
        <pt x="66" y="24" on="0"/>
        <pt x="192" y="24" on="1"/>
        <pt x="242" y="24" on="0"/>
        <pt x="310" y="88" on="0"/>
      </contour>
      <contour>
        <pt x="375" y="-108" on="1"/>
        <pt x="23" y="-108" on="1"/>
        <pt x="23" y="-77" on="1"/>
        <pt x="375" y="-77" on="1"/>
      </contour>
    </TTGlyph>
    <TTGlyph name="dotaccent" xMin="117" yMin="507" xMax="185" yMax="575">
      <contour>
        <pt x="185" y="540" on="1"/>
        <pt x="185" y="526" on="0"/>
        <pt x="165" y="507" on="0"/>
        <pt x="150" y="507" on="1"/>
        <pt x="136" y="507" on="0"/>
        <pt x="117" y="526" on="0"/>
        <pt x="117" y="540" on="1"/>
        <pt x="117" y="554" on="0"/>
        <pt x="136" y="575" on="0"/>
        <pt x="150" y="575" on="1"/>
        <pt x="165" y="575" on="0"/>
        <pt x="185" y="554" on="0"/>
      </contour>
    </TTGlyph>
    <TTGlyph name="dotbelowcomb" xMin="6344" yMin="-106" xMax="6402" yMax="-49">
      <contour>
        <pt x="6402" y="-77" on="1"/>
        <pt x="6402" y="-89" on="0"/>
        <pt x="6386" y="-106" on="0"/>
        <pt x="6373" y="-106" on="1"/>
        <pt x="6361" y="-106" on="0"/>
        <pt x="6344" y="-89" on="0"/>
        <pt x="6344" y="-77" on="1"/>
        <pt x="6344" y="-67" on="0"/>
        <pt x="6361" y="-49" on="0"/>
        <pt x="6373" y="-49" on="1"/>
        <pt x="6386" y="-49" on="0"/>
        <pt x="6402" y="-67" on="0"/>
      </contour>
    </TTGlyph>
    <TTGlyph name="dotlessi" xMin="52" yMin="0" xMax="90" yMax="340">
      <contour>
        <pt x="90" y="0" on="1"/>
        <pt x="52" y="0" on="1"/>
        <pt x="52" y="340" on="1"/>
        <pt x="90" y="340" on="1"/>
      </contour>
    </TTGlyph>
    <TTGlyph name="dottedcircle" xMin="17" yMin="22" xMax="382" yMax="387">
      <contour>
        <pt x="218" y="368" on="1"/>
        <pt x="218" y="360" on="0"/>
        <pt x="207" y="349" on="0"/>
        <pt x="199" y="349" on="1"/>
        <pt x="191" y="349" on="0"/>
        <pt x="180" y="360" on="0"/>
        <pt x="180" y="368" on="1"/>
        <pt x="180" y="376" on="0"/>
        <pt x="191" y="387" on="0"/>
        <pt x="199" y="387" on="1"/>
        <pt x="207" y="387" on="0"/>
        <pt x="218" y="376" on="0"/>
      </contour>
      <contour>
        <pt x="218" y="41" on="1"/>
        <pt x="218" y="33" on="0"/>
        <pt x="207" y="22" on="0"/>
        <pt x="199" y="22" on="1"/>
        <pt x="191" y="22" on="0"/>
        <pt x="180" y="33" on="0"/>
        <pt x="180" y="41" on="1"/>
        <pt x="180" y="49" on="0"/>
        <pt x="191" y="60" on="0"/>
        <pt x="199" y="60" on="1"/>
        <pt x="207" y="60" on="0"/>
        <pt x="218" y="49" on="0"/>
      </contour>
      <contour>
        <pt x="54" y="205" on="1"/>
        <pt x="54" y="197" on="0"/>
        <pt x="43" y="187" on="0"/>
        <pt x="35" y="187" on="1"/>
        <pt x="27" y="187" on="0"/>
        <pt x="17" y="197" on="0"/>
        <pt x="17" y="205" on="1"/>
        <pt x="17" y="213" on="0"/>
        <pt x="27" y="224" on="0"/>
        <pt x="35" y="224" on="1"/>
        <pt x="43" y="224" on="0"/>
        <pt x="54" y="213" on="0"/>
      </contour>
      <contour>
        <pt x="382" y="205" on="1"/>
        <pt x="382" y="197" on="0"/>
        <pt x="371" y="187" on="0"/>
        <pt x="363" y="187" on="1"/>
        <pt x="355" y="187" on="0"/>
        <pt x="345" y="197" on="0"/>
        <pt x="345" y="205" on="1"/>
        <pt x="345" y="213" on="0"/>
        <pt x="355" y="224" on="0"/>
        <pt x="363" y="224" on="1"/>
        <pt x="371" y="224" on="0"/>
        <pt x="382" y="213" on="0"/>
      </contour>
      <contour>
        <pt x="67" y="266" on="1"/>
        <pt x="67" y="258" on="0"/>
        <pt x="56" y="248" on="0"/>
        <pt x="48" y="248" on="1"/>
        <pt x="40" y="248" on="0"/>
        <pt x="30" y="258" on="0"/>
        <pt x="30" y="266" on="1"/>
        <pt x="30" y="274" on="0"/>
        <pt x="40" y="285" on="0"/>
        <pt x="48" y="285" on="1"/>
        <pt x="56" y="285" on="0"/>
        <pt x="67" y="274" on="0"/>
      </contour>
      <contour>
        <pt x="102" y="321" on="1"/>
        <pt x="102" y="313" on="0"/>
        <pt x="91" y="303" on="0"/>
        <pt x="83" y="303" on="1"/>
        <pt x="75" y="303" on="0"/>
        <pt x="65" y="313" on="0"/>
        <pt x="65" y="321" on="1"/>
        <pt x="65" y="329" on="0"/>
        <pt x="75" y="340" on="0"/>
        <pt x="83" y="340" on="1"/>
        <pt x="91" y="340" on="0"/>
        <pt x="102" y="329" on="0"/>
      </contour>
      <contour>
        <pt x="155" y="356" on="1"/>
        <pt x="155" y="348" on="0"/>
        <pt x="144" y="338" on="0"/>
        <pt x="136" y="338" on="1"/>
        <pt x="128" y="338" on="0"/>
        <pt x="118" y="348" on="0"/>
        <pt x="118" y="356" on="1"/>
        <pt x="118" y="364" on="0"/>
        <pt x="128" y="375" on="0"/>
        <pt x="136" y="375" on="1"/>
        <pt x="144" y="375" on="0"/>
        <pt x="155" y="364" on="0"/>
      </contour>
      <contour>
        <pt x="368" y="266" on="1"/>
        <pt x="368" y="258" on="0"/>
        <pt x="358" y="248" on="0"/>
        <pt x="350" y="248" on="1"/>
        <pt x="342" y="248" on="0"/>
        <pt x="331" y="258" on="0"/>
        <pt x="331" y="266" on="1"/>
        <pt x="331" y="274" on="0"/>
        <pt x="342" y="285" on="0"/>
        <pt x="350" y="285" on="1"/>
        <pt x="358" y="285" on="0"/>
        <pt x="368" y="274" on="0"/>
      </contour>
      <contour>
        <pt x="333" y="321" on="1"/>
        <pt x="333" y="313" on="0"/>
        <pt x="323" y="303" on="0"/>
        <pt x="315" y="303" on="1"/>
        <pt x="307" y="303" on="0"/>
        <pt x="296" y="313" on="0"/>
        <pt x="296" y="321" on="1"/>
        <pt x="296" y="329" on="0"/>
        <pt x="307" y="340" on="0"/>
        <pt x="315" y="340" on="1"/>
        <pt x="323" y="340" on="0"/>
        <pt x="333" y="329" on="0"/>
      </contour>
      <contour>
        <pt x="280" y="356" on="1"/>
        <pt x="280" y="348" on="0"/>
        <pt x="270" y="338" on="0"/>
        <pt x="262" y="338" on="1"/>
        <pt x="254" y="338" on="0"/>
        <pt x="243" y="348" on="0"/>
        <pt x="243" y="356" on="1"/>
        <pt x="243" y="364" on="0"/>
        <pt x="254" y="375" on="0"/>
        <pt x="262" y="375" on="1"/>
        <pt x="270" y="375" on="0"/>
        <pt x="280" y="364" on="0"/>
      </contour>
      <contour>
        <pt x="67" y="143" on="1"/>
        <pt x="67" y="135" on="0"/>
        <pt x="56" y="124" on="0"/>
        <pt x="48" y="124" on="1"/>
        <pt x="40" y="124" on="0"/>
        <pt x="30" y="135" on="0"/>
        <pt x="30" y="143" on="1"/>
        <pt x="30" y="151" on="0"/>
        <pt x="40" y="161" on="0"/>
        <pt x="48" y="161" on="1"/>
        <pt x="56" y="161" on="0"/>
        <pt x="67" y="151" on="0"/>
      </contour>
      <contour>
        <pt x="102" y="88" on="1"/>
        <pt x="102" y="80" on="0"/>
        <pt x="91" y="69" on="0"/>
        <pt x="83" y="69" on="1"/>
        <pt x="75" y="69" on="0"/>
        <pt x="65" y="80" on="0"/>
        <pt x="65" y="88" on="1"/>
        <pt x="65" y="96" on="0"/>
        <pt x="75" y="106" on="0"/>
        <pt x="83" y="106" on="1"/>
        <pt x="91" y="106" on="0"/>
        <pt x="102" y="96" on="0"/>
      </contour>
      <contour>
        <pt x="155" y="53" on="1"/>
        <pt x="155" y="45" on="0"/>
        <pt x="144" y="34" on="0"/>
        <pt x="136" y="34" on="1"/>
        <pt x="128" y="34" on="0"/>
        <pt x="118" y="45" on="0"/>
        <pt x="118" y="53" on="1"/>
        <pt x="118" y="61" on="0"/>
        <pt x="128" y="71" on="0"/>
        <pt x="136" y="71" on="1"/>
        <pt x="144" y="71" on="0"/>
        <pt x="155" y="61" on="0"/>
      </contour>
      <contour>
        <pt x="369" y="143" on="1"/>
        <pt x="369" y="135" on="0"/>
        <pt x="359" y="124" on="0"/>
        <pt x="351" y="124" on="1"/>
        <pt x="343" y="124" on="0"/>
        <pt x="332" y="135" on="0"/>
        <pt x="332" y="143" on="1"/>
        <pt x="332" y="151" on="0"/>
        <pt x="343" y="161" on="0"/>
        <pt x="351" y="161" on="1"/>
        <pt x="359" y="161" on="0"/>
        <pt x="369" y="151" on="0"/>
      </contour>
      <contour>
        <pt x="334" y="88" on="1"/>
        <pt x="334" y="80" on="0"/>
        <pt x="324" y="69" on="0"/>
        <pt x="316" y="69" on="1"/>
        <pt x="308" y="69" on="0"/>
        <pt x="297" y="80" on="0"/>
        <pt x="297" y="88" on="1"/>
        <pt x="297" y="96" on="0"/>
        <pt x="308" y="106" on="0"/>
        <pt x="316" y="106" on="1"/>
        <pt x="324" y="106" on="0"/>
        <pt x="334" y="96" on="0"/>
      </contour>
      <contour>
        <pt x="281" y="53" on="1"/>
        <pt x="281" y="45" on="0"/>
        <pt x="271" y="34" on="0"/>
        <pt x="263" y="34" on="1"/>
        <pt x="255" y="34" on="0"/>
        <pt x="244" y="45" on="0"/>
        <pt x="244" y="53" on="1"/>
        <pt x="244" y="61" on="0"/>
        <pt x="255" y="71" on="0"/>
        <pt x="263" y="71" on="1"/>
        <pt x="271" y="71" on="0"/>
        <pt x="281" y="61" on="0"/>
      </contour>
    </TTGlyph>
    <TTGlyph name="e" xMin="27" yMin="-9" xMax="343" yMax="347">
      <contour>
        <pt x="324" y="48" on="1"/>
        <pt x="327" y="15" on="1"/>
        <pt x="269" y="-9" on="0"/>
        <pt x="201" y="-9" on="1"/>
        <pt x="123" y="-9" on="0"/>
        <pt x="27" y="87" on="0"/>
        <pt x="27" y="161" on="1"/>
        <pt x="27" y="245" on="0"/>
        <pt x="123" y="347" on="0"/>
        <pt x="197" y="347" on="1"/>
        <pt x="340" y="347" on="0"/>
        <pt x="343" y="168" on="1"/>
        <pt x="65" y="168" on="1"/>
        <pt x="67" y="100" on="0"/>
        <pt x="144" y="25" on="0"/>
        <pt x="205" y="25" on="1"/>
        <pt x="265" y="25" on="0"/>
      </contour>
      <contour>
        <pt x="306" y="199" on="1"/>
        <pt x="305" y="240" on="0"/>
        <pt x="283" y="272" on="1"/>
        <pt x="253" y="316" on="0"/>
        <pt x="192" y="316" on="1"/>
        <pt x="137" y="316" on="0"/>
        <pt x="102" y="276" on="1"/>
        <pt x="74" y="244" on="0"/>
        <pt x="67" y="199" on="1"/>
      </contour>
    </TTGlyph>
    <TTGlyph name="eacute" xMin="27" yMin="-9" xMax="2307" yMax="1297">
      <component glyphName="e" x="0" y="0" flags="0x204"/>
      <component glyphName="acutecomb" x="297" y="0" flags="0x4"/>
    </TTGlyph>
    <TTGlyph name="ecircumflex" xMin="27" yMin="-9" xMax="745" yMax="1150">
      <component glyphName="e" x="0" y="0" flags="0x204"/>
      <component glyphName="circumflex" x="81" y="0" flags="0x4"/>
    </TTGlyph>
    <TTGlyph name="edieresis" xMin="27" yMin="-9" xMax="749" yMax="1133">
      <component glyphName="e" x="0" y="0" flags="0x204"/>
      <component glyphName="dieresis" x="80" y="0" flags="0x4"/>
    </TTGlyph>
    <TTGlyph name="egrave" xMin="27" yMin="-9" xMax="1912" yMax="1161">
      <component glyphName="e" x="0" y="0" flags="0x204"/>
      <component glyphName="gravecomb" x="287" y="0" flags="0x4"/>
    </TTGlyph>
    <TTGlyph name="eight" xMin="33" yMin="-8" xMax="328" yMax="479">
      <contour>
        <pt x="288" y="125" on="1"/>
        <pt x="288" y="164" on="0"/>
        <pt x="234" y="235" on="0"/>
        <pt x="180" y="238" on="1"/>
        <pt x="127" y="235" on="0"/>
        <pt x="73" y="164" on="0"/>
        <pt x="73" y="125" on="1"/>
        <pt x="73" y="80" on="0"/>
        <pt x="134" y="27" on="0"/>
        <pt x="181" y="27" on="1"/>
        <pt x="227" y="27" on="0"/>
        <pt x="288" y="80" on="0"/>
      </contour>
      <contour>
        <pt x="273" y="361" on="1"/>
        <pt x="273" y="396" on="0"/>
        <pt x="223" y="442" on="0"/>
        <pt x="181" y="442" on="1"/>
        <pt x="138" y="442" on="0"/>
        <pt x="88" y="396" on="0"/>
        <pt x="88" y="361" on="1"/>
        <pt x="88" y="299" on="0"/>
        <pt x="180" y="276" on="1"/>
        <pt x="273" y="299" on="0"/>
      </contour>
      <contour>
        <pt x="328" y="128" on="1"/>
        <pt x="328" y="64" on="0"/>
        <pt x="248" y="-8" on="0"/>
        <pt x="180" y="-8" on="1"/>
        <pt x="113" y="-8" on="0"/>
        <pt x="33" y="64" on="0"/>
        <pt x="33" y="128" on="1"/>
        <pt x="33" y="177" on="0"/>
        <pt x="90" y="248" on="0"/>
        <pt x="134" y="257" on="1"/>
        <pt x="97" y="268" on="0"/>
        <pt x="48" y="325" on="0"/>
        <pt x="48" y="358" on="1"/>
        <pt x="48" y="411" on="0"/>
        <pt x="122" y="479" on="0"/>
        <pt x="181" y="479" on="1"/>
        <pt x="239" y="479" on="0"/>
        <pt x="313" y="411" on="0"/>
        <pt x="313" y="358" on="1"/>
        <pt x="313" y="325" on="0"/>
        <pt x="264" y="268" on="0"/>
        <pt x="227" y="257" on="1"/>
        <pt x="271" y="248" on="0"/>
        <pt x="328" y="177" on="0"/>
      </contour>
    </TTGlyph>
    <TTGlyph name="ellipsis" xMin="46" yMin="-6" xMax="434" yMax="63">
      <contour>
        <pt x="115" y="28" on="1"/>
        <pt x="115" y="14" on="0"/>
        <pt x="94" y="-6" on="0"/>
        <pt x="80" y="-6" on="1"/>
        <pt x="66" y="-6" on="0"/>
        <pt x="46" y="14" on="0"/>
        <pt x="46" y="28" on="1"/>
        <pt x="46" y="42" on="0"/>
        <pt x="66" y="63" on="0"/>
        <pt x="80" y="63" on="1"/>
        <pt x="94" y="63" on="0"/>
        <pt x="115" y="42" on="0"/>
      </contour>
      <contour>
        <pt x="275" y="28" on="1"/>
        <pt x="275" y="14" on="0"/>
        <pt x="254" y="-6" on="0"/>
        <pt x="240" y="-6" on="1"/>
        <pt x="226" y="-6" on="0"/>
        <pt x="206" y="14" on="0"/>
        <pt x="206" y="28" on="1"/>
        <pt x="206" y="42" on="0"/>
        <pt x="226" y="63" on="0"/>
        <pt x="240" y="63" on="1"/>
        <pt x="254" y="63" on="0"/>
        <pt x="275" y="42" on="0"/>
      </contour>
      <contour>
        <pt x="434" y="28" on="1"/>
        <pt x="434" y="14" on="0"/>
        <pt x="413" y="-6" on="0"/>
        <pt x="399" y="-6" on="1"/>
        <pt x="385" y="-6" on="0"/>
        <pt x="365" y="14" on="0"/>
        <pt x="365" y="28" on="1"/>
        <pt x="365" y="42" on="0"/>
        <pt x="385" y="63" on="0"/>
        <pt x="399" y="63" on="1"/>
        <pt x="413" y="63" on="0"/>
        <pt x="434" y="42" on="0"/>
      </contour>
    </TTGlyph>
    <TTGlyph name="emdash" xMin="22" yMin="165" xMax="695" yMax="198">
      <contour>
        <pt x="695" y="165" on="1"/>
        <pt x="22" y="165" on="1"/>
        <pt x="22" y="198" on="1"/>
        <pt x="695" y="198" on="1"/>
      </contour>
    </TTGlyph>
    <TTGlyph name="endash" xMin="21" yMin="165" xMax="338" yMax="198">
      <contour>
        <pt x="338" y="165" on="1"/>
        <pt x="21" y="165" on="1"/>
        <pt x="21" y="198" on="1"/>
        <pt x="338" y="198" on="1"/>
      </contour>
    </TTGlyph>
    <TTGlyph name="equal" xMin="55" yMin="102" xMax="356" yMax="265">
      <contour>
        <pt x="356" y="265" on="1"/>
        <pt x="356" y="232" on="1"/>
        <pt x="55" y="232" on="1"/>
        <pt x="55" y="265" on="1"/>
      </contour>
      <contour>
        <pt x="356" y="135" on="1"/>
        <pt x="356" y="102" on="1"/>
        <pt x="55" y="102" on="1"/>
        <pt x="55" y="135" on="1"/>
      </contour>
    </TTGlyph>
    <TTGlyph name="estimated" xMin="31" yMin="-7" xMax="282" yMax="384">
      <contour>
        <pt x="246" y="223" on="1"/>
        <pt x="241" y="286" on="0"/>
        <pt x="197" y="351" on="0"/>
        <pt x="159" y="351" on="1"/>
        <pt x="119" y="351" on="0"/>
        <pt x="77" y="286" on="0"/>
        <pt x="72" y="223" on="1"/>
      </contour>
      <contour>
        <pt x="276" y="103" on="1"/>
        <pt x="252" y="-7" on="0"/>
        <pt x="159" y="-7" on="1"/>
        <pt x="96" y="-7" on="0"/>
        <pt x="31" y="96" on="0"/>
        <pt x="31" y="200" on="1"/>
        <pt x="31" y="291" on="0"/>
        <pt x="105" y="384" on="0"/>
        <pt x="159" y="384" on="1"/>
        <pt x="219" y="384" on="0"/>
        <pt x="280" y="285" on="0"/>
        <pt x="282" y="194" on="1"/>
        <pt x="71" y="194" on="1"/>
        <pt x="73" y="106" on="0"/>
        <pt x="117" y="26" on="0"/>
        <pt x="159" y="26" on="1"/>
        <pt x="189" y="26" on="0"/>
        <pt x="232" y="66" on="0"/>
        <pt x="239" y="103" on="1"/>
      </contour>
    </TTGlyph>
    <TTGlyph name="eth" xMin="38" yMin="-12" xMax="322" yMax="480">
      <contour>
        <pt x="322" y="163" on="1"/>
        <pt x="322" y="90" on="0"/>
        <pt x="286" y="42" on="1"/>
        <pt x="245" y="-12" on="0"/>
        <pt x="174" y="-12" on="1"/>
        <pt x="111" y="-12" on="0"/>
        <pt x="38" y="76" on="0"/>
        <pt x="38" y="141" on="1"/>
        <pt x="38" y="204" on="0"/>
        <pt x="112" y="294" on="0"/>
        <pt x="171" y="294" on="1"/>
        <pt x="213" y="294" on="0"/>
        <pt x="245" y="274" on="1"/>
        <pt x="268" y="258" on="0"/>
        <pt x="273" y="244" on="1"/>
        <pt x="250" y="322" on="0"/>
        <pt x="189" y="380" on="1"/>
        <pt x="102" y="325" on="1"/>
        <pt x="85" y="352" on="1"/>
        <pt x="163" y="402" on="1"/>
        <pt x="118" y="436" on="0"/>
        <pt x="67" y="451" on="1"/>
        <pt x="70" y="480" on="1"/>
        <pt x="141" y="466" on="0"/>
        <pt x="196" y="423" on="1"/>
        <pt x="271" y="472" on="1"/>
        <pt x="288" y="445" on="1"/>
        <pt x="221" y="401" on="1"/>
        <pt x="237" y="386" on="0"/>
        <pt x="251" y="368" on="1"/>
        <pt x="322" y="278" on="0"/>
      </contour>
      <contour>
        <pt x="282" y="141" on="1"/>
        <pt x="282" y="191" on="0"/>
        <pt x="222" y="261" on="0"/>
        <pt x="179" y="261" on="1"/>
        <pt x="132" y="261" on="0"/>
        <pt x="78" y="191" on="0"/>
        <pt x="78" y="141" on="1"/>
        <pt x="78" y="92" on="0"/>
        <pt x="131" y="22" on="0"/>
        <pt x="179" y="22" on="1"/>
        <pt x="222" y="22" on="0"/>
        <pt x="282" y="92" on="0"/>
      </contour>
    </TTGlyph>
    <TTGlyph name="exclam" xMin="38" yMin="-6" xMax="107" yMax="475">
      <contour>
        <pt x="88" y="120" on="1"/>
        <pt x="56" y="120" on="1"/>
        <pt x="49" y="475" on="1"/>
        <pt x="96" y="475" on="1"/>
      </contour>
      <contour>
        <pt x="107" y="28" on="1"/>
        <pt x="107" y="14" on="0"/>
        <pt x="86" y="-6" on="0"/>
        <pt x="72" y="-6" on="1"/>
        <pt x="58" y="-6" on="0"/>
        <pt x="38" y="14" on="0"/>
        <pt x="38" y="28" on="1"/>
        <pt x="38" y="42" on="0"/>
        <pt x="58" y="63" on="0"/>
        <pt x="72" y="63" on="1"/>
        <pt x="86" y="63" on="0"/>
        <pt x="107" y="42" on="0"/>
      </contour>
    </TTGlyph>
    <TTGlyph name="exclamdown" xMin="38" yMin="-140" xMax="112" yMax="341">
      <contour>
        <pt x="102" y="-140" on="1"/>
        <pt x="47" y="-140" on="1"/>
        <pt x="57" y="208" on="1"/>
        <pt x="92" y="208" on="1"/>
      </contour>
      <contour>
        <pt x="112" y="304" on="1"/>
        <pt x="112" y="289" on="0"/>
        <pt x="90" y="267" on="0"/>
        <pt x="75" y="267" on="1"/>
        <pt x="60" y="267" on="0"/>
        <pt x="38" y="289" on="0"/>
        <pt x="38" y="304" on="1"/>
        <pt x="38" y="319" on="0"/>
        <pt x="60" y="341" on="0"/>
        <pt x="75" y="341" on="1"/>
        <pt x="90" y="341" on="0"/>
        <pt x="112" y="319" on="0"/>
      </contour>
    </TTGlyph>
    <TTGlyph name="f" xMin="5" yMin="0" xMax="241" yMax="513">
      <contour>
        <pt x="241" y="497" on="1"/>
        <pt x="230" y="469" on="1"/>
        <pt x="208" y="480" on="0"/>
        <pt x="181" y="480" on="1"/>
        <pt x="101" y="480" on="0"/>
        <pt x="101" y="353" on="1"/>
        <pt x="101" y="340" on="1"/>
        <pt x="199" y="340" on="1"/>
        <pt x="199" y="309" on="1"/>
        <pt x="101" y="309" on="1"/>
        <pt x="101" y="0" on="1"/>
        <pt x="62" y="0" on="1"/>
        <pt x="62" y="309" on="1"/>
        <pt x="5" y="309" on="1"/>
        <pt x="5" y="340" on="1"/>
        <pt x="63" y="340" on="1"/>
        <pt x="63" y="353" on="1"/>
        <pt x="63" y="513" on="0"/>
        <pt x="184" y="513" on="1"/>
        <pt x="222" y="513" on="0"/>
      </contour>
    </TTGlyph>
    <TTGlyph name="fi" xMin="10" yMin="0" xMax="295" yMax="513">
      <contour>
        <pt x="295" y="340" on="1"/>
        <pt x="295" y="0" on="1"/>
        <pt x="256" y="0" on="1"/>
        <pt x="256" y="309" on="1"/>
        <pt x="99" y="309" on="1"/>
        <pt x="99" y="0" on="1"/>
        <pt x="60" y="0" on="1"/>
        <pt x="60" y="309" on="1"/>
        <pt x="10" y="309" on="1"/>
        <pt x="10" y="340" on="1"/>
        <pt x="60" y="340" on="1"/>
        <pt x="60" y="357" on="1"/>
        <pt x="60" y="428" on="0"/>
        <pt x="131" y="513" on="0"/>
        <pt x="199" y="513" on="1"/>
        <pt x="247" y="513" on="0"/>
        <pt x="284" y="486" on="1"/>
        <pt x="267" y="456" on="1"/>
        <pt x="229" y="480" on="0"/>
        <pt x="192" y="480" on="1"/>
        <pt x="99" y="480" on="0"/>
        <pt x="99" y="357" on="1"/>
        <pt x="99" y="340" on="1"/>
      </contour>
    </TTGlyph>
    <TTGlyph name="five" xMin="24" yMin="-8" xMax="318" yMax="475">
      <contour>
        <pt x="318" y="164" on="1"/>
        <pt x="318" y="87" on="0"/>
        <pt x="214" y="-8" on="0"/>
        <pt x="132" y="-8" on="1"/>
        <pt x="63" y="-8" on="0"/>
        <pt x="24" y="29" on="1"/>
        <pt x="41" y="60" on="1"/>
        <pt x="55" y="51" on="0"/>
        <pt x="71" y="43" on="1"/>
        <pt x="99" y="30" on="0"/>
        <pt x="140" y="30" on="1"/>
        <pt x="194" y="30" on="0"/>
        <pt x="277" y="100" on="0"/>
        <pt x="277" y="163" on="1"/>
        <pt x="277" y="217" on="0"/>
        <pt x="241" y="244" on="1"/>
        <pt x="211" y="268" on="0"/>
        <pt x="163" y="268" on="1"/>
        <pt x="121" y="268" on="0"/>
        <pt x="96" y="235" on="1"/>
        <pt x="75" y="233" on="1"/>
        <pt x="90" y="475" on="1"/>
        <pt x="303" y="475" on="1"/>
        <pt x="296" y="437" on="1"/>
        <pt x="128" y="437" on="1"/>
        <pt x="119" y="296" on="1"/>
        <pt x="145" y="306" on="0"/>
        <pt x="175" y="306" on="1"/>
        <pt x="233" y="306" on="0"/>
        <pt x="274" y="270" on="1"/>
        <pt x="318" y="230" on="0"/>
      </contour>
    </TTGlyph>
    <TTGlyph name="fiveeighths" xMin="27" yMin="-9" xMax="508" yMax="467">
      <contour>
        <pt x="135" y="-9" on="1"/>
        <pt x="102" y="-9" on="1"/>
        <pt x="386" y="467" on="1"/>
        <pt x="419" y="467" on="1"/>
      </contour>
      <contour>
        <pt x="212" y="286" on="1"/>
        <pt x="212" y="239" on="0"/>
        <pt x="150" y="181" on="0"/>
        <pt x="99" y="181" on="1"/>
        <pt x="54" y="181" on="0"/>
        <pt x="27" y="209" on="1"/>
        <pt x="41" y="234" on="1"/>
        <pt x="57" y="224" on="0"/>
        <pt x="86" y="214" on="0"/>
        <pt x="103" y="214" on="1"/>
        <pt x="132" y="214" on="0"/>
        <pt x="178" y="252" on="0"/>
        <pt x="178" y="285" on="1"/>
        <pt x="178" y="310" on="0"/>
        <pt x="140" y="338" on="0"/>
        <pt x="116" y="338" on="1"/>
        <pt x="94" y="338" on="0"/>
        <pt x="79" y="318" on="1"/>
        <pt x="58" y="317" on="1"/>
        <pt x="67" y="466" on="1"/>
        <pt x="204" y="466" on="1"/>
        <pt x="200" y="435" on="1"/>
        <pt x="100" y="435" on="1"/>
        <pt x="95" y="370" on="1"/>
        <pt x="102" y="372" on="0"/>
        <pt x="115" y="372" on="0"/>
        <pt x="123" y="372" on="1"/>
        <pt x="163" y="372" on="0"/>
        <pt x="212" y="321" on="0"/>
      </contour>
      <contour>
        <pt x="475" y="75" on="1"/>
        <pt x="475" y="96" on="0"/>
        <pt x="447" y="131" on="0"/>
        <pt x="419" y="133" on="1"/>
        <pt x="391" y="131" on="0"/>
        <pt x="363" y="97" on="0"/>
        <pt x="363" y="75" on="1"/>
        <pt x="363" y="53" on="0"/>
        <pt x="394" y="26" on="0"/>
        <pt x="419" y="26" on="1"/>
        <pt x="443" y="26" on="0"/>
        <pt x="475" y="53" on="0"/>
      </contour>
      <contour>
        <pt x="466" y="209" on="1"/>
        <pt x="466" y="224" on="0"/>
        <pt x="441" y="249" on="0"/>
        <pt x="419" y="249" on="1"/>
        <pt x="397" y="249" on="0"/>
        <pt x="372" y="224" on="0"/>
        <pt x="372" y="209" on="1"/>
        <pt x="372" y="195" on="0"/>
        <pt x="397" y="172" on="0"/>
        <pt x="419" y="166" on="1"/>
        <pt x="441" y="171" on="0"/>
        <pt x="466" y="196" on="0"/>
      </contour>
      <contour>
        <pt x="508" y="77" on="1"/>
        <pt x="508" y="38" on="0"/>
        <pt x="461" y="-6" on="0"/>
        <pt x="419" y="-6" on="1"/>
        <pt x="378" y="-6" on="0"/>
        <pt x="330" y="38" on="0"/>
        <pt x="330" y="77" on="1"/>
        <pt x="330" y="101" on="0"/>
        <pt x="354" y="139" on="0"/>
        <pt x="372" y="151" on="1"/>
        <pt x="354" y="161" on="0"/>
        <pt x="339" y="190" on="0"/>
        <pt x="339" y="207" on="1"/>
        <pt x="339" y="240" on="0"/>
        <pt x="383" y="281" on="0"/>
        <pt x="419" y="281" on="1"/>
        <pt x="455" y="281" on="0"/>
        <pt x="499" y="240" on="0"/>
        <pt x="499" y="207" on="1"/>
        <pt x="499" y="190" on="0"/>
        <pt x="484" y="161" on="0"/>
        <pt x="467" y="151" on="1"/>
        <pt x="508" y="128" on="0"/>
      </contour>
    </TTGlyph>
    <TTGlyph name="fl" xMin="10" yMin="-7" xMax="386" yMax="513">
      <contour>
        <pt x="386" y="27" on="1"/>
        <pt x="382" y="-7" on="1"/>
        <pt x="256" y="-1" on="0"/>
        <pt x="256" y="171" on="1"/>
        <pt x="256" y="470" on="1"/>
        <pt x="236" y="480" on="0"/>
        <pt x="207" y="480" on="1"/>
        <pt x="176" y="480" on="0"/>
        <pt x="134" y="459" on="0"/>
        <pt x="109" y="425" on="0"/>
        <pt x="99" y="379" on="0"/>
        <pt x="99" y="355" on="1"/>
        <pt x="99" y="340" on="1"/>
        <pt x="197" y="340" on="1"/>
        <pt x="197" y="309" on="1"/>
        <pt x="99" y="309" on="1"/>
        <pt x="99" y="0" on="1"/>
        <pt x="60" y="0" on="1"/>
        <pt x="60" y="309" on="1"/>
        <pt x="10" y="309" on="1"/>
        <pt x="10" y="340" on="1"/>
        <pt x="60" y="340" on="1"/>
        <pt x="60" y="350" on="1"/>
        <pt x="60" y="431" on="0"/>
        <pt x="148" y="513" on="0"/>
        <pt x="215" y="513" on="1"/>
        <pt x="254" y="513" on="0"/>
        <pt x="295" y="493" on="1"/>
        <pt x="295" y="186" on="1"/>
        <pt x="295" y="113" on="0"/>
        <pt x="308" y="80" on="1"/>
        <pt x="328" y="28" on="0"/>
      </contour>
    </TTGlyph>
    <TTGlyph name="florin" xMin="-17" yMin="-72" xMax="409" yMax="462">
      <contour>
        <pt x="409" y="446" on="1"/>
        <pt x="392" y="418" on="1"/>
        <pt x="373" y="429" on="0"/>
        <pt x="345" y="429" on="1"/>
        <pt x="267" y="429" on="0"/>
        <pt x="238" y="302" on="1"/>
        <pt x="232" y="276" on="1"/>
        <pt x="330" y="276" on="1"/>
        <pt x="324" y="245" on="1"/>
        <pt x="226" y="245" on="1"/>
        <pt x="192" y="88" on="1"/>
        <pt x="157" y="-72" on="0"/>
        <pt x="37" y="-72" on="1"/>
        <pt x="-1" y="-72" on="0"/>
        <pt x="-17" y="-56" on="1"/>
        <pt x="0" y="-28" on="1"/>
        <pt x="19" y="-39" on="0"/>
        <pt x="47" y="-39" on="1"/>
        <pt x="125" y="-39" on="0"/>
        <pt x="153" y="88" on="1"/>
        <pt x="187" y="245" on="1"/>
        <pt x="130" y="245" on="1"/>
        <pt x="136" y="276" on="1"/>
        <pt x="194" y="276" on="1"/>
        <pt x="200" y="302" on="1"/>
        <pt x="237" y="462" on="0"/>
        <pt x="355" y="462" on="1"/>
        <pt x="393" y="462" on="0"/>
      </contour>
    </TTGlyph>
    <TTGlyph name="four" xMin="32" yMin="0" xMax="345" yMax="488">
      <contour>
        <pt x="234" y="148" on="1"/>
        <pt x="234" y="437" on="1"/>
        <pt x="165" y="403" on="0"/>
        <pt x="120" y="318" on="1"/>
        <pt x="77" y="237" on="0"/>
        <pt x="75" y="148" on="1"/>
      </contour>
      <contour>
        <pt x="274" y="148" on="1"/>
        <pt x="345" y="148" on="1"/>
        <pt x="340" y="111" on="1"/>
        <pt x="274" y="111" on="1"/>
        <pt x="274" y="0" on="1"/>
        <pt x="234" y="0" on="1"/>
        <pt x="234" y="111" on="1"/>
        <pt x="32" y="111" on="1"/>
        <pt x="34" y="260" on="0"/>
        <pt x="165" y="466" on="0"/>
        <pt x="274" y="488" on="1"/>
      </contour>
    </TTGlyph>
    <TTGlyph name="fraction" xMin="-36" yMin="0" xMax="198" yMax="476">
      <contour>
        <pt x="0" y="0" on="1"/>
        <pt x="-36" y="0" on="1"/>
        <pt x="162" y="476" on="1"/>
        <pt x="198" y="476" on="1"/>
      </contour>
    </TTGlyph>
    <TTGlyph name="franc" xMin="-13" yMin="0" xMax="329" yMax="476">
      <contour>
        <pt x="233" y="94" on="1"/>
        <pt x="99" y="94" on="1"/>
        <pt x="99" y="0" on="1"/>
        <pt x="60" y="0" on="1"/>
        <pt x="60" y="94" on="1"/>
        <pt x="-13" y="94" on="1"/>
        <pt x="-13" y="125" on="1"/>
        <pt x="60" y="125" on="1"/>
        <pt x="60" y="476" on="1"/>
        <pt x="329" y="476" on="1"/>
        <pt x="329" y="443" on="1"/>
        <pt x="99" y="443" on="1"/>
        <pt x="99" y="262" on="1"/>
        <pt x="314" y="262" on="1"/>
        <pt x="314" y="229" on="1"/>
        <pt x="99" y="229" on="1"/>
        <pt x="99" y="125" on="1"/>
        <pt x="233" y="125" on="1"/>
      </contour>
    </TTGlyph>
    <TTGlyph name="g" xMin="36" yMin="-157" xMax="283" yMax="341">
      <contour>
        <pt x="275" y="228" on="1"/>
        <pt x="275" y="172" on="0"/>
        <pt x="206" y="106" on="0"/>
        <pt x="155" y="106" on="1"/>
        <pt x="124" y="106" on="0"/>
        <pt x="102" y="117" on="1"/>
        <pt x="96" y="102" on="0"/>
        <pt x="96" y="88" on="1"/>
        <pt x="96" y="62" on="0"/>
        <pt x="177" y="39" on="1"/>
        <pt x="273" y="12" on="0"/>
        <pt x="273" y="-59" on="1"/>
        <pt x="273" y="-102" on="0"/>
        <pt x="211" y="-157" on="0"/>
        <pt x="151" y="-157" on="1"/>
        <pt x="98" y="-157" on="0"/>
        <pt x="54" y="-130" on="1"/>
        <pt x="68" y="-98" on="1"/>
        <pt x="111" y="-123" on="0"/>
        <pt x="154" y="-123" on="1"/>
        <pt x="191" y="-123" on="0"/>
        <pt x="239" y="-89" on="0"/>
        <pt x="239" y="-62" on="1"/>
        <pt x="239" y="-14" on="0"/>
        <pt x="160" y="12" on="1"/>
        <pt x="112" y="27" on="0"/>
        <pt x="94" y="39" on="1"/>
        <pt x="63" y="58" on="0"/>
        <pt x="63" y="88" on="1"/>
        <pt x="63" y="106" on="0"/>
        <pt x="73" y="136" on="1"/>
        <pt x="36" y="176" on="0"/>
        <pt x="36" y="221" on="1"/>
        <pt x="36" y="275" on="0"/>
        <pt x="104" y="341" on="0"/>
        <pt x="150" y="341" on="1"/>
        <pt x="283" y="341" on="1"/>
        <pt x="283" y="309" on="1"/>
        <pt x="234" y="314" on="1"/>
        <pt x="275" y="274" on="0"/>
      </contour>
      <contour>
        <pt x="241" y="223" on="1"/>
        <pt x="241" y="256" on="0"/>
        <pt x="220" y="281" on="1"/>
        <pt x="196" y="311" on="0"/>
        <pt x="155" y="311" on="1"/>
        <pt x="115" y="311" on="0"/>
        <pt x="71" y="258" on="0"/>
        <pt x="71" y="222" on="1"/>
        <pt x="71" y="182" on="0"/>
        <pt x="98" y="158" on="1"/>
        <pt x="123" y="136" on="0"/>
        <pt x="155" y="136" on="1"/>
        <pt x="191" y="136" on="0"/>
        <pt x="241" y="182" on="0"/>
      </contour>
    </TTGlyph>
    <TTGlyph name="gbreve" xMin="36" yMin="-157" xMax="738" yMax="1405">
      <component glyphName="g" x="0" y="0" flags="0x204"/>
      <component glyphName="breve" x="5" y="0" flags="0x4"/>
    </TTGlyph>
    <TTGlyph name="germandbls" xMin="41" yMin="-148" xMax="356" yMax="487">
      <contour>
        <pt x="356" y="102" on="1"/>
        <pt x="356" y="53" on="0"/>
        <pt x="326" y="23" on="1"/>
        <pt x="293" y="-9" on="0"/>
        <pt x="235" y="-9" on="1"/>
        <pt x="186" y="-9" on="0"/>
        <pt x="150" y="11" on="1"/>
        <pt x="162" y="44" on="1"/>
        <pt x="200" y="24" on="0"/>
        <pt x="236" y="24" on="1"/>
        <pt x="276" y="24" on="0"/>
        <pt x="320" y="65" on="0"/>
        <pt x="320" y="96" on="1"/>
        <pt x="320" y="130" on="0"/>
        <pt x="218" y="219" on="0"/>
        <pt x="218" y="257" on="1"/>
        <pt x="218" y="284" on="0"/>
        <pt x="286" y="349" on="0"/>
        <pt x="286" y="369" on="1"/>
        <pt x="286" y="451" on="0"/>
        <pt x="199" y="451" on="1"/>
        <pt x="99" y="451" on="0"/>
        <pt x="99" y="287" on="1"/>
        <pt x="99" y="-54" on="1"/>
        <pt x="99" y="-108" on="0"/>
        <pt x="77" y="-148" on="1"/>
        <pt x="41" y="-138" on="1"/>
        <pt x="60" y="-99" on="0"/>
        <pt x="60" y="-54" on="1"/>
        <pt x="60" y="304" on="1"/>
        <pt x="60" y="487" on="0"/>
        <pt x="206" y="487" on="1"/>
        <pt x="256" y="487" on="0"/>
        <pt x="323" y="424" on="0"/>
        <pt x="323" y="371" on="1"/>
        <pt x="323" y="331" on="0"/>
        <pt x="257" y="277" on="0"/>
        <pt x="257" y="254" on="1"/>
        <pt x="257" y="237" on="0"/>
        <pt x="323" y="179" on="0"/>
        <pt x="330" y="169" on="1"/>
        <pt x="356" y="134" on="0"/>
      </contour>
    </TTGlyph>
    <TTGlyph name="grave" xMin="59" yMin="390" xMax="148" yMax="481">
      <contour>
        <pt x="148" y="390" on="1"/>
        <pt x="117" y="390" on="1"/>
        <pt x="59" y="471" on="1"/>
        <pt x="98" y="481" on="1"/>
      </contour>
    </TTGlyph>
    <TTGlyph name="gravecomb" xMin="5138" yMin="1868" xMax="5181" yMax="1912">
      <contour>
        <pt x="5181" y="1868" on="1"/>
        <pt x="5167" y="1868" on="1"/>
        <pt x="5138" y="1907" on="1"/>
        <pt x="5156" y="1912" on="1"/>
      </contour>
    </TTGlyph>
    <TTGlyph name="greater" xMin="44" yMin="-2" xMax="366" yMax="377">
      <contour>
        <pt x="366" y="201" on="1"/>
        <pt x="366" y="174" on="1"/>
        <pt x="44" y="-2" on="1"/>
        <pt x="44" y="36" on="1"/>
        <pt x="326" y="188" on="1"/>
        <pt x="44" y="340" on="1"/>
        <pt x="44" y="377" on="1"/>
      </contour>
    </TTGlyph>
    <TTGlyph name="greaterequal" xMin="57" yMin="16" xMax="353" yMax="341">
      <contour>
        <pt x="353" y="16" on="1"/>
        <pt x="57" y="16" on="1"/>
        <pt x="57" y="46" on="1"/>
        <pt x="353" y="46" on="1"/>
      </contour>
      <contour>
        <pt x="329" y="175" on="1"/>
        <pt x="78" y="56" on="1"/>
        <pt x="78" y="93" on="1"/>
        <pt x="294" y="198" on="1"/>
        <pt x="78" y="303" on="1"/>
        <pt x="78" y="341" on="1"/>
        <pt x="329" y="222" on="1"/>
      </contour>
    </TTGlyph>
    <TTGlyph name="guillemotleft" xMin="11" yMin="48" xMax="275" yMax="309">
      <contour>
        <pt x="233" y="48" on="1"/>
        <pt x="122" y="177" on="1"/>
        <pt x="232" y="309" on="1"/>
        <pt x="274" y="309" on="1"/>
        <pt x="164" y="177" on="1"/>
        <pt x="275" y="48" on="1"/>
      </contour>
      <contour>
        <pt x="122" y="48" on="1"/>
        <pt x="11" y="177" on="1"/>
        <pt x="121" y="309" on="1"/>
        <pt x="163" y="309" on="1"/>
        <pt x="53" y="177" on="1"/>
        <pt x="164" y="48" on="1"/>
      </contour>
    </TTGlyph>
    <TTGlyph name="guillemotright" xMin="19" yMin="48" xMax="283" yMax="309">
      <contour>
        <pt x="61" y="48" on="1"/>
        <pt x="19" y="48" on="1"/>
        <pt x="130" y="177" on="1"/>
        <pt x="20" y="309" on="1"/>
        <pt x="62" y="309" on="1"/>
        <pt x="172" y="177" on="1"/>
      </contour>
      <contour>
        <pt x="172" y="48" on="1"/>
        <pt x="130" y="48" on="1"/>
        <pt x="241" y="177" on="1"/>
        <pt x="131" y="309" on="1"/>
        <pt x="173" y="309" on="1"/>
        <pt x="283" y="177" on="1"/>
      </contour>
    </TTGlyph>
    <TTGlyph name="guilsinglleft" xMin="11" yMin="48" xMax="164" yMax="309">
      <contour>
        <pt x="122" y="48" on="1"/>
        <pt x="11" y="177" on="1"/>
        <pt x="121" y="309" on="1"/>
        <pt x="163" y="309" on="1"/>
        <pt x="53" y="177" on="1"/>
        <pt x="164" y="48" on="1"/>
      </contour>
    </TTGlyph>
    <TTGlyph name="guilsinglright" xMin="19" yMin="48" xMax="172" yMax="309">
      <contour>
        <pt x="61" y="48" on="1"/>
        <pt x="19" y="48" on="1"/>
        <pt x="130" y="177" on="1"/>
        <pt x="20" y="309" on="1"/>
        <pt x="62" y="309" on="1"/>
        <pt x="172" y="177" on="1"/>
      </contour>
    </TTGlyph>
    <TTGlyph name="h" xMin="52" yMin="0" xMax="338" yMax="505">
      <contour>
        <pt x="338" y="193" on="1"/>
        <pt x="338" y="0" on="1"/>
        <pt x="299" y="0" on="1"/>
        <pt x="299" y="193" on="1"/>
        <pt x="299" y="315" on="0"/>
        <pt x="197" y="315" on="1"/>
        <pt x="156" y="315" on="0"/>
        <pt x="91" y="246" on="0"/>
        <pt x="91" y="206" on="1"/>
        <pt x="91" y="0" on="1"/>
        <pt x="52" y="0" on="1"/>
        <pt x="52" y="505" on="1"/>
        <pt x="91" y="505" on="1"/>
        <pt x="91" y="279" on="1"/>
        <pt x="132" y="347" on="0"/>
        <pt x="205" y="347" on="1"/>
        <pt x="338" y="347" on="0"/>
      </contour>
    </TTGlyph>
    <TTGlyph name="hookabovecomb" xMin="4968" yMin="1508" xMax="4999" yMax="1543">
      <contour>
        <pt x="4999" y="1528" on="1"/>
        <pt x="4999" y="1521" on="0"/>
        <pt x="4985" y="1512" on="0"/>
        <pt x="4985" y="1508" on="1"/>
        <pt x="4976" y="1508" on="1"/>
        <pt x="4976" y="1514" on="0"/>
        <pt x="4991" y="1524" on="0"/>
        <pt x="4991" y="1528" on="1"/>
        <pt x="4991" y="1531" on="0"/>
        <pt x="4986" y="1536" on="0"/>
        <pt x="4984" y="1536" on="1"/>
        <pt x="4976" y="1536" on="0"/>
        <pt x="4972" y="1528" on="1"/>
        <pt x="4968" y="1533" on="1"/>
        <pt x="4973" y="1543" on="0"/>
        <pt x="4984" y="1543" on="1"/>
        <pt x="4991" y="1543" on="0"/>
        <pt x="4999" y="1536" on="0"/>
      </contour>
    </TTGlyph>
    <TTGlyph name="hungarumlaut" xMin="42" yMin="330" xMax="235" yMax="491">
      <contour>
        <pt x="156" y="330" on="1"/>
        <pt x="129" y="330" on="1"/>
        <pt x="188" y="491" on="1"/>
        <pt x="235" y="491" on="1"/>
      </contour>
      <contour>
        <pt x="69" y="330" on="1"/>
        <pt x="42" y="330" on="1"/>
        <pt x="101" y="491" on="1"/>
        <pt x="148" y="491" on="1"/>
      </contour>
    </TTGlyph>
    <TTGlyph name="hyphen" xMin="20" yMin="165" xMax="195" yMax="198">
      <contour>
        <pt x="195" y="165" on="1"/>
        <pt x="20" y="165" on="1"/>
        <pt x="20" y="198" on="1"/>
        <pt x="195" y="198" on="1"/>
      </contour>
    </TTGlyph>
    <TTGlyph name="i" xMin="39" yMin="0" xMax="102" yMax="475">
      <contour>
        <pt x="91" y="0" on="1"/>
        <pt x="52" y="0" on="1"/>
        <pt x="52" y="340" on="1"/>
        <pt x="91" y="340" on="1"/>
      </contour>
      <contour>
        <pt x="102" y="443" on="1"/>
        <pt x="102" y="429" on="0"/>
        <pt x="84" y="412" on="0"/>
        <pt x="70" y="412" on="1"/>
        <pt x="56" y="412" on="0"/>
        <pt x="39" y="429" on="0"/>
        <pt x="39" y="443" on="1"/>
        <pt x="39" y="457" on="0"/>
        <pt x="56" y="475" on="0"/>
        <pt x="70" y="475" on="1"/>
        <pt x="84" y="475" on="0"/>
        <pt x="102" y="457" on="0"/>
      </contour>
    </TTGlyph>
    <TTGlyph name="iacute" xMin="52" yMin="0" xMax="2489" yMax="1297">
      <component glyphName="dotlessi" x="0" y="0" flags="0x204"/>
      <component glyphName="acutecomb" x="182" y="0" flags="0x4"/>
    </TTGlyph>
    <TTGlyph name="icircumflex" xMin="52" yMin="0" xMax="725" yMax="1150">
      <component glyphName="dotlessi" x="0" y="0" flags="0x204"/>
      <component glyphName="circumflex" x="-20" y="0" flags="0x4"/>
    </TTGlyph>
    <TTGlyph name="idieresis" xMin="52" yMin="0" xMax="728" yMax="1133">
      <component glyphName="dotlessi" x="0" y="0" flags="0x204"/>
      <component glyphName="dieresis" x="-21" y="0" flags="0x4"/>
    </TTGlyph>
    <TTGlyph name="igrave" xMin="52" yMin="0" xMax="2084" yMax="1161">
      <component glyphName="dotlessi" x="0" y="0" flags="0x204"/>
      <component glyphName="gravecomb" x="172" y="0" flags="0x4"/>
    </TTGlyph>
    <TTGlyph name="infinity" xMin="53" yMin="107" xMax="565" yMax="325">
      <contour>
        <pt x="287" y="221" on="1"/>
        <pt x="218" y="297" on="0"/>
        <pt x="168" y="297" on="1"/>
        <pt x="126" y="297" on="0"/>
        <pt x="84" y="251" on="0"/>
        <pt x="84" y="220" on="1"/>
        <pt x="84" y="183" on="0"/>
        <pt x="128" y="136" on="0"/>
        <pt x="169" y="136" on="1"/>
        <pt x="203" y="136" on="0"/>
        <pt x="269" y="189" on="0"/>
      </contour>
      <contour>
        <pt x="565" y="210" on="1"/>
        <pt x="565" y="167" on="0"/>
        <pt x="508" y="107" on="0"/>
        <pt x="451" y="107" on="1"/>
        <pt x="380" y="107" on="0"/>
        <pt x="305" y="198" on="1"/>
        <pt x="245" y="107" on="0"/>
        <pt x="168" y="107" on="1"/>
        <pt x="116" y="107" on="0"/>
        <pt x="53" y="169" on="0"/>
        <pt x="53" y="222" on="1"/>
        <pt x="53" y="265" on="0"/>
        <pt x="110" y="325" on="0"/>
        <pt x="167" y="325" on="1"/>
        <pt x="232" y="325" on="0"/>
        <pt x="312" y="235" on="1"/>
        <pt x="374" y="325" on="0"/>
        <pt x="450" y="325" on="1"/>
        <pt x="502" y="325" on="0"/>
        <pt x="565" y="263" on="0"/>
      </contour>
      <contour>
        <pt x="534" y="212" on="1"/>
        <pt x="534" y="249" on="0"/>
        <pt x="490" y="296" on="0"/>
        <pt x="449" y="296" on="1"/>
        <pt x="415" y="296" on="0"/>
        <pt x="349" y="243" on="0"/>
        <pt x="331" y="211" on="1"/>
        <pt x="400" y="135" on="0"/>
        <pt x="450" y="135" on="1"/>
        <pt x="492" y="135" on="0"/>
        <pt x="534" y="181" on="0"/>
      </contour>
    </TTGlyph>
    <TTGlyph name="integral" xMin="-39" yMin="-103" xMax="245" yMax="482">
      <contour>
        <pt x="88" y="-11" on="1"/>
        <pt x="73" y="-103" on="0"/>
        <pt x="2" y="-103" on="1"/>
        <pt x="-22" y="-103" on="0"/>
        <pt x="-39" y="-98" on="1"/>
        <pt x="-34" y="-66" on="1"/>
        <pt x="-22" y="-71" on="0"/>
        <pt x="1" y="-70" on="1"/>
        <pt x="43" y="-67" on="0"/>
        <pt x="53" y="-16" on="1"/>
        <pt x="117" y="393" on="1"/>
        <pt x="130" y="482" on="0"/>
        <pt x="210" y="482" on="1"/>
        <pt x="231" y="482" on="0"/>
        <pt x="245" y="479" on="1"/>
        <pt x="238" y="448" on="1"/>
        <pt x="233" y="449" on="0"/>
        <pt x="222" y="449" on="1"/>
        <pt x="192" y="449" on="0"/>
        <pt x="157" y="424" on="0"/>
        <pt x="152" y="391" on="1"/>
      </contour>
    </TTGlyph>
    <TTGlyph name="itilde" xMin="52" yMin="0" xMax="7002" yMax="2885">
      <component glyphName="dotlessi" x="0" y="0" flags="0x204"/>
      <component glyphName="tildecomb" x="176" y="0" flags="0x4"/>
    </TTGlyph>
    <TTGlyph name="j" xMin="-42" yMin="-148" xMax="114" yMax="475">
      <contour>
        <pt x="103" y="7" on="1"/>
        <pt x="101" y="-145" on="0"/>
        <pt x="-38" y="-148" on="1"/>
        <pt x="-42" y="-117" on="1"/>
        <pt x="27" y="-111" on="0"/>
        <pt x="49" y="-69" on="1"/>
        <pt x="64" y="-40" on="0"/>
        <pt x="64" y="18" on="1"/>
        <pt x="64" y="340" on="1"/>
        <pt x="103" y="340" on="1"/>
      </contour>
      <contour>
        <pt x="114" y="443" on="1"/>
        <pt x="114" y="429" on="0"/>
        <pt x="96" y="412" on="0"/>
        <pt x="82" y="412" on="1"/>
        <pt x="68" y="412" on="0"/>
        <pt x="51" y="429" on="0"/>
        <pt x="51" y="443" on="1"/>
        <pt x="51" y="457" on="0"/>
        <pt x="68" y="475" on="0"/>
        <pt x="82" y="475" on="1"/>
        <pt x="96" y="475" on="0"/>
        <pt x="114" y="457" on="0"/>
      </contour>
    </TTGlyph>
    <TTGlyph name="k" xMin="52" yMin="-10" xMax="327" yMax="505">
      <contour>
        <pt x="327" y="1" on="1"/>
        <pt x="288" y="-10" on="1"/>
        <pt x="126" y="177" on="1"/>
        <pt x="91" y="143" on="1"/>
        <pt x="91" y="0" on="1"/>
        <pt x="52" y="0" on="1"/>
        <pt x="52" y="505" on="1"/>
        <pt x="91" y="505" on="1"/>
        <pt x="91" y="187" on="1"/>
        <pt x="260" y="345" on="1"/>
        <pt x="300" y="337" on="1"/>
        <pt x="154" y="199" on="1"/>
      </contour>
    </TTGlyph>
    <TTGlyph name="l" xMin="52" yMin="-7" xMax="182" yMax="505">
      <contour>
        <pt x="182" y="27" on="1"/>
        <pt x="178" y="-7" on="1"/>
        <pt x="52" y="-1" on="0"/>
        <pt x="52" y="171" on="1"/>
        <pt x="52" y="505" on="1"/>
        <pt x="91" y="505" on="1"/>
        <pt x="91" y="186" on="1"/>
        <pt x="91" y="113" on="0"/>
        <pt x="104" y="80" on="1"/>
        <pt x="124" y="28" on="0"/>
      </contour>
    </TTGlyph>
    <TTGlyph name="lefttorightmark" xMin="-14" yMin="-154" xMax="163" yMax="382">
      <contour>
        <pt x="15" y="-154" on="1"/>
        <pt x="-14" y="-154" on="1"/>
        <pt x="-14" y="348" on="1"/>
        <pt x="112" y="348" on="1"/>
        <pt x="95" y="366" on="1"/>
        <pt x="111" y="382" on="1"/>
        <pt x="163" y="330" on="1"/>
        <pt x="111" y="278" on="1"/>
        <pt x="95" y="295" on="1"/>
        <pt x="112" y="313" on="1"/>
        <pt x="15" y="313" on="1"/>
      </contour>
    </TTGlyph>
    <TTGlyph name="less" xMin="44" yMin="-2" xMax="366" yMax="377">
      <contour>
        <pt x="366" y="36" on="1"/>
        <pt x="366" y="-2" on="1"/>
        <pt x="44" y="174" on="1"/>
        <pt x="44" y="201" on="1"/>
        <pt x="366" y="377" on="1"/>
        <pt x="366" y="340" on="1"/>
        <pt x="84" y="187" on="1"/>
      </contour>
    </TTGlyph>
    <TTGlyph name="lessequal" xMin="57" yMin="16" xMax="353" yMax="341">
      <contour>
        <pt x="353" y="16" on="1"/>
        <pt x="57" y="16" on="1"/>
        <pt x="57" y="46" on="1"/>
        <pt x="353" y="46" on="1"/>
      </contour>
      <contour>
        <pt x="329" y="56" on="1"/>
        <pt x="78" y="175" on="1"/>
        <pt x="78" y="222" on="1"/>
        <pt x="329" y="341" on="1"/>
        <pt x="329" y="303" on="1"/>
        <pt x="113" y="198" on="1"/>
        <pt x="329" y="93" on="1"/>
      </contour>
    </TTGlyph>
    <TTGlyph name="logicalnot" xMin="23" yMin="91" xMax="387" yMax="272">
      <contour>
        <pt x="387" y="91" on="1"/>
        <pt x="348" y="91" on="1"/>
        <pt x="348" y="239" on="1"/>
        <pt x="23" y="239" on="1"/>
        <pt x="23" y="272" on="1"/>
        <pt x="387" y="272" on="1"/>
      </contour>
    </TTGlyph>
    <TTGlyph name="lozenge" xMin="33" yMin="0" xMax="353" yMax="398">
      <contour>
        <pt x="353" y="198" on="1"/>
        <pt x="214" y="0" on="1"/>
        <pt x="172" y="0" on="1"/>
        <pt x="33" y="198" on="1"/>
        <pt x="172" y="398" on="1"/>
        <pt x="214" y="398" on="1"/>
      </contour>
      <contour>
        <pt x="320" y="198" on="1"/>
        <pt x="193" y="380" on="1"/>
        <pt x="66" y="198" on="1"/>
        <pt x="193" y="16" on="1"/>
      </contour>
    </TTGlyph>
    <TTGlyph name="lslash" xMin="18" yMin="-7" xMax="190" yMax="505">
      <contour>
        <pt x="181" y="268" on="1"/>
        <pt x="181" y="233" on="1"/>
        <pt x="99" y="206" on="1"/>
        <pt x="99" y="186" on="1"/>
        <pt x="99" y="112" on="0"/>
        <pt x="112" y="80" on="1"/>
        <pt x="131" y="29" on="0"/>
        <pt x="190" y="27" on="1"/>
        <pt x="186" y="-7" on="1"/>
        <pt x="60" y="-1" on="0"/>
        <pt x="60" y="171" on="1"/>
        <pt x="60" y="194" on="1"/>
        <pt x="27" y="184" on="1"/>
        <pt x="18" y="215" on="1"/>
        <pt x="60" y="228" on="1"/>
        <pt x="60" y="505" on="1"/>
        <pt x="99" y="505" on="1"/>
        <pt x="99" y="241" on="1"/>
      </contour>
    </TTGlyph>
    <TTGlyph name="m" xMin="45" yMin="0" xMax="549" yMax="347">
      <contour>
        <pt x="549" y="0" on="1"/>
        <pt x="510" y="0" on="1"/>
        <pt x="510" y="188" on="1"/>
        <pt x="510" y="246" on="0"/>
        <pt x="463" y="315" on="0"/>
        <pt x="418" y="315" on="1"/>
        <pt x="379" y="315" on="0"/>
        <pt x="320" y="254" on="0"/>
        <pt x="320" y="216" on="1"/>
        <pt x="320" y="0" on="1"/>
        <pt x="281" y="0" on="1"/>
        <pt x="281" y="206" on="1"/>
        <pt x="281" y="315" on="0"/>
        <pt x="195" y="315" on="1"/>
        <pt x="155" y="315" on="0"/>
        <pt x="91" y="246" on="0"/>
        <pt x="91" y="206" on="1"/>
        <pt x="91" y="0" on="1"/>
        <pt x="52" y="0" on="1"/>
        <pt x="52" y="256" on="1"/>
        <pt x="52" y="283" on="0"/>
        <pt x="45" y="340" on="1"/>
        <pt x="82" y="340" on="1"/>
        <pt x="89" y="319" on="0"/>
        <pt x="90" y="279" on="1"/>
        <pt x="129" y="347" on="0"/>
        <pt x="204" y="347" on="1"/>
        <pt x="273" y="347" on="0"/>
        <pt x="307" y="271" on="1"/>
        <pt x="347" y="347" on="0"/>
        <pt x="429" y="347" on="1"/>
        <pt x="485" y="347" on="0"/>
        <pt x="549" y="262" on="0"/>
        <pt x="549" y="189" on="1"/>
      </contour>
    </TTGlyph>
    <TTGlyph name="macron" xMin="0" yMin="528" xMax="352" yMax="559">
      <contour>
        <pt x="352" y="559" on="1"/>
        <pt x="352" y="528" on="1"/>
        <pt x="0" y="528" on="1"/>
        <pt x="0" y="559" on="1"/>
      </contour>
    </TTGlyph>
    <TTGlyph name="minus" xMin="55" yMin="165" xMax="356" yMax="198">
      <contour>
        <pt x="356" y="165" on="1"/>
        <pt x="55" y="165" on="1"/>
        <pt x="55" y="198" on="1"/>
        <pt x="356" y="198" on="1"/>
      </contour>
    </TTGlyph>
    <TTGlyph name="minute" xMin="15" yMin="371" xMax="108" yMax="476">
      <contour>
        <pt x="42" y="371" on="1"/>
        <pt x="15" y="371" on="1"/>
        <pt x="53" y="476" on="1"/>
        <pt x="108" y="476" on="1"/>
      </contour>
    </TTGlyph>
    <TTGlyph name="mu" xMin="57" yMin="-140" xMax="358" yMax="340">
      <contour>
        <pt x="358" y="0" on="1"/>
        <pt x="321" y="0" on="1"/>
        <pt x="316" y="28" on="0"/>
        <pt x="316" y="52" on="1"/>
        <pt x="316" y="63" on="1"/>
        <pt x="259" y="-9" on="0"/>
        <pt x="188" y="-9" on="1"/>
        <pt x="130" y="-9" on="0"/>
        <pt x="95" y="42" on="1"/>
        <pt x="95" y="-140" on="1"/>
        <pt x="57" y="-140" on="1"/>
        <pt x="57" y="340" on="1"/>
        <pt x="95" y="340" on="1"/>
        <pt x="95" y="146" on="1"/>
        <pt x="95" y="25" on="0"/>
        <pt x="197" y="25" on="1"/>
        <pt x="241" y="25" on="0"/>
        <pt x="313" y="92" on="0"/>
        <pt x="313" y="133" on="1"/>
        <pt x="313" y="340" on="1"/>
        <pt x="351" y="340" on="1"/>
        <pt x="351" y="83" on="1"/>
        <pt x="351" y="21" on="0"/>
      </contour>
    </TTGlyph>
    <TTGlyph name="multiply" xMin="47" yMin="11" xMax="363" yMax="337">
      <contour>
        <pt x="337" y="11" on="1"/>
        <pt x="205" y="149" on="1"/>
        <pt x="73" y="11" on="1"/>
        <pt x="47" y="35" on="1"/>
        <pt x="179" y="174" on="1"/>
        <pt x="47" y="313" on="1"/>
        <pt x="73" y="337" on="1"/>
        <pt x="205" y="199" on="1"/>
        <pt x="337" y="337" on="1"/>
        <pt x="363" y="313" on="1"/>
        <pt x="231" y="174" on="1"/>
        <pt x="363" y="35" on="1"/>
      </contour>
    </TTGlyph>
    <TTGlyph name="n" xMin="45" yMin="0" xMax="338" yMax="347">
      <contour>
        <pt x="338" y="0" on="1"/>
        <pt x="299" y="0" on="1"/>
        <pt x="299" y="193" on="1"/>
        <pt x="299" y="315" on="0"/>
        <pt x="197" y="315" on="1"/>
        <pt x="156" y="315" on="0"/>
        <pt x="91" y="246" on="0"/>
        <pt x="91" y="206" on="1"/>
        <pt x="91" y="0" on="1"/>
        <pt x="52" y="0" on="1"/>
        <pt x="52" y="256" on="1"/>
        <pt x="52" y="283" on="0"/>
        <pt x="45" y="340" on="1"/>
        <pt x="82" y="340" on="1"/>
        <pt x="89" y="319" on="0"/>
        <pt x="90" y="279" on="1"/>
        <pt x="129" y="347" on="0"/>
        <pt x="205" y="347" on="1"/>
        <pt x="338" y="347" on="0"/>
        <pt x="338" y="193" on="1"/>
      </contour>
    </TTGlyph>
    <TTGlyph name="nine" xMin="38" yMin="-12" xMax="322" yMax="480">
      <contour>
        <pt x="322" y="305" on="1"/>
        <pt x="322" y="190" on="0"/>
        <pt x="180" y="9" on="0"/>
        <pt x="70" y="-12" on="1"/>
        <pt x="67" y="17" on="1"/>
        <pt x="134" y="36" on="0"/>
        <pt x="189" y="88" on="1"/>
        <pt x="251" y="146" on="0"/>
        <pt x="274" y="226" on="1"/>
        <pt x="270" y="211" on="0"/>
        <pt x="245" y="194" on="1"/>
        <pt x="213" y="174" on="0"/>
        <pt x="171" y="174" on="1"/>
        <pt x="112" y="174" on="0"/>
        <pt x="38" y="264" on="0"/>
        <pt x="38" y="327" on="1"/>
        <pt x="38" y="392" on="0"/>
        <pt x="111" y="480" on="0"/>
        <pt x="174" y="480" on="1"/>
        <pt x="245" y="480" on="0"/>
        <pt x="286" y="426" on="1"/>
        <pt x="322" y="378" on="0"/>
      </contour>
      <contour>
        <pt x="282" y="327" on="1"/>
        <pt x="282" y="376" on="0"/>
        <pt x="222" y="446" on="0"/>
        <pt x="179" y="446" on="1"/>
        <pt x="131" y="446" on="0"/>
        <pt x="78" y="376" on="0"/>
        <pt x="78" y="327" on="1"/>
        <pt x="78" y="277" on="0"/>
        <pt x="132" y="207" on="0"/>
        <pt x="179" y="207" on="1"/>
        <pt x="222" y="207" on="0"/>
        <pt x="282" y="277" on="0"/>
      </contour>
    </TTGlyph>
    <TTGlyph name="notequal" xMin="55" yMin="-9" xMax="356" yMax="354">
      <contour>
        <pt x="356" y="135" on="1"/>
        <pt x="356" y="102" on="1"/>
        <pt x="181" y="102" on="1"/>
        <pt x="127" y="-9" on="1"/>
        <pt x="89" y="-9" on="1"/>
        <pt x="143" y="102" on="1"/>
        <pt x="55" y="102" on="1"/>
        <pt x="55" y="135" on="1"/>
        <pt x="159" y="135" on="1"/>
        <pt x="206" y="232" on="1"/>
        <pt x="55" y="232" on="1"/>
        <pt x="55" y="265" on="1"/>
        <pt x="222" y="265" on="1"/>
        <pt x="265" y="354" on="1"/>
        <pt x="306" y="354" on="1"/>
        <pt x="262" y="265" on="1"/>
        <pt x="356" y="265" on="1"/>
        <pt x="356" y="232" on="1"/>
        <pt x="246" y="232" on="1"/>
        <pt x="198" y="135" on="1"/>
      </contour>
    </TTGlyph>
    <TTGlyph name="ntilde" xMin="45" yMin="0" xMax="1533" yMax="860">
      <component glyphName="n" x="0" y="0" flags="0x204"/>
      <component glyphName="tildecomb" x="299" y="0" flags="0x4"/>
    </TTGlyph>
    <TTGlyph name="numbersign" xMin="34" yMin="4" xMax="365" yMax="458">
      <contour>
        <pt x="365" y="137" on="1"/>
        <pt x="273" y="137" on="1"/>
        <pt x="245" y="4" on="1"/>
        <pt x="216" y="4" on="1"/>
        <pt x="245" y="137" on="1"/>
        <pt x="119" y="137" on="1"/>
        <pt x="90" y="4" on="1"/>
        <pt x="61" y="4" on="1"/>
        <pt x="90" y="137" on="1"/>
        <pt x="34" y="137" on="1"/>
        <pt x="34" y="167" on="1"/>
        <pt x="95" y="167" on="1"/>
        <pt x="121" y="294" on="1"/>
        <pt x="34" y="294" on="1"/>
        <pt x="34" y="324" on="1"/>
        <pt x="127" y="324" on="1"/>
        <pt x="155" y="458" on="1"/>
        <pt x="185" y="458" on="1"/>
        <pt x="157" y="324" on="1"/>
        <pt x="281" y="324" on="1"/>
        <pt x="310" y="458" on="1"/>
        <pt x="341" y="458" on="1"/>
        <pt x="313" y="324" on="1"/>
        <pt x="365" y="324" on="1"/>
        <pt x="365" y="294" on="1"/>
        <pt x="307" y="294" on="1"/>
        <pt x="281" y="167" on="1"/>
        <pt x="365" y="167" on="1"/>
      </contour>
      <contour>
        <pt x="276" y="294" on="1"/>
        <pt x="151" y="294" on="1"/>
        <pt x="124" y="167" on="1"/>
        <pt x="250" y="167" on="1"/>
      </contour>
    </TTGlyph>
    <TTGlyph name="o" xMin="28" yMin="-10" xMax="370" yMax="347">
      <contour>
        <pt x="370" y="169" on="1"/>
        <pt x="370" y="94" on="0"/>
        <pt x="276" y="-10" on="0"/>
        <pt x="199" y="-10" on="1"/>
        <pt x="122" y="-10" on="0"/>
        <pt x="28" y="94" on="0"/>
        <pt x="28" y="169" on="1"/>
        <pt x="28" y="244" on="0"/>
        <pt x="122" y="347" on="0"/>
        <pt x="199" y="347" on="1"/>
        <pt x="276" y="347" on="0"/>
        <pt x="370" y="244" on="0"/>
      </contour>
      <contour>
        <pt x="332" y="169" on="1"/>
        <pt x="332" y="231" on="0"/>
        <pt x="257" y="314" on="0"/>
        <pt x="199" y="314" on="1"/>
        <pt x="141" y="314" on="0"/>
        <pt x="66" y="231" on="0"/>
        <pt x="66" y="169" on="1"/>
        <pt x="66" y="107" on="0"/>
        <pt x="141" y="23" on="0"/>
        <pt x="199" y="23" on="1"/>
        <pt x="257" y="23" on="0"/>
        <pt x="332" y="107" on="0"/>
      </contour>
    </TTGlyph>
    <TTGlyph name="oacute" xMin="28" yMin="-10" xMax="2798" yMax="1297">
      <component glyphName="o" x="0" y="0" flags="0x204"/>
      <component glyphName="acutecomb" x="309" y="0" flags="0x4"/>
    </TTGlyph>
    <TTGlyph name="ocircumflex" xMin="28" yMin="-10" xMax="818" yMax="1150">
      <component glyphName="o" x="0" y="0" flags="0x204"/>
      <component glyphName="circumflex" x="93" y="0" flags="0x4"/>
    </TTGlyph>
    <TTGlyph name="odieresis" xMin="28" yMin="-10" xMax="820" yMax="1133">
      <component glyphName="o" x="0" y="0" flags="0x204"/>
      <component glyphName="dieresis" x="92" y="0" flags="0x4"/>
    </TTGlyph>
    <TTGlyph name="oe" xMin="28" yMin="-10" xMax="648" yMax="347">
      <contour>
        <pt x="629" y="48" on="1"/>
        <pt x="632" y="15" on="1"/>
        <pt x="574" y="-9" on="0"/>
        <pt x="506" y="-9" on="1"/>
        <pt x="396" y="-9" on="0"/>
        <pt x="349" y="81" on="1"/>
        <pt x="304" y="-10" on="0"/>
        <pt x="199" y="-10" on="1"/>
        <pt x="122" y="-10" on="0"/>
        <pt x="28" y="94" on="0"/>
        <pt x="28" y="169" on="1"/>
        <pt x="28" y="244" on="0"/>
        <pt x="122" y="347" on="0"/>
        <pt x="199" y="347" on="1"/>
        <pt x="307" y="347" on="0"/>
        <pt x="351" y="254" on="1"/>
        <pt x="394" y="347" on="0"/>
        <pt x="502" y="347" on="1"/>
        <pt x="645" y="347" on="0"/>
        <pt x="648" y="168" on="1"/>
        <pt x="370" y="168" on="1"/>
        <pt x="370" y="97" on="0"/>
        <pt x="448" y="25" on="0"/>
        <pt x="510" y="25" on="1"/>
        <pt x="569" y="25" on="0"/>
      </contour>
      <contour>
        <pt x="332" y="169" on="1"/>
        <pt x="333" y="230" on="0"/>
        <pt x="258" y="314" on="0"/>
        <pt x="199" y="314" on="1"/>
        <pt x="141" y="314" on="0"/>
        <pt x="66" y="231" on="0"/>
        <pt x="66" y="169" on="1"/>
        <pt x="66" y="107" on="0"/>
        <pt x="141" y="23" on="0"/>
        <pt x="199" y="23" on="1"/>
        <pt x="256" y="23" on="0"/>
        <pt x="331" y="106" on="0"/>
      </contour>
      <contour>
        <pt x="611" y="199" on="1"/>
        <pt x="609" y="250" on="0"/>
        <pt x="548" y="316" on="0"/>
        <pt x="497" y="316" on="1"/>
        <pt x="448" y="316" on="0"/>
        <pt x="380" y="251" on="0"/>
        <pt x="372" y="199" on="1"/>
      </contour>
    </TTGlyph>
    <TTGlyph name="ogonek" xMin="80" yMin="-158" xMax="218" yMax="4">
      <contour>
        <pt x="218" y="-143" on="1"/>
        <pt x="199" y="-151" on="0"/>
        <pt x="167" y="-158" on="0"/>
        <pt x="150" y="-158" on="1"/>
        <pt x="114" y="-158" on="0"/>
        <pt x="80" y="-115" on="0"/>
        <pt x="80" y="-86" on="1"/>
        <pt x="80" y="-68" on="0"/>
        <pt x="90" y="-22" on="0"/>
        <pt x="98" y="4" on="1"/>
        <pt x="138" y="4" on="1"/>
        <pt x="119" y="-45" on="0"/>
        <pt x="119" y="-76" on="1"/>
        <pt x="119" y="-119" on="0"/>
        <pt x="158" y="-122" on="1"/>
        <pt x="188" y="-122" on="0"/>
        <pt x="217" y="-107" on="1"/>
      </contour>
    </TTGlyph>
    <TTGlyph name="ograve" xMin="28" yMin="-10" xMax="2383" yMax="1161">
      <component glyphName="o" x="0" y="0" flags="0x204"/>
      <component glyphName="gravecomb" x="299" y="0" flags="0x4"/>
    </TTGlyph>
    <TTGlyph name="ohorn" xMin="28" yMin="-10" xMax="386" yMax="398">
      <contour>
        <pt x="370" y="169" on="1"/>
        <pt x="370" y="94" on="0"/>
        <pt x="276" y="-10" on="0"/>
        <pt x="199" y="-10" on="1"/>
        <pt x="122" y="-10" on="0"/>
        <pt x="28" y="94" on="0"/>
        <pt x="28" y="169" on="1"/>
        <pt x="28" y="244" on="0"/>
        <pt x="122" y="347" on="0"/>
        <pt x="199" y="347" on="1"/>
        <pt x="266" y="347" on="0"/>
        <pt x="314" y="304" on="1"/>
        <pt x="350" y="338" on="0"/>
        <pt x="353" y="398" on="1"/>
        <pt x="386" y="398" on="1"/>
        <pt x="384" y="337" on="0"/>
        <pt x="330" y="287" on="1"/>
        <pt x="370" y="237" on="0"/>
      </contour>
      <contour>
        <pt x="332" y="169" on="1"/>
        <pt x="332" y="231" on="0"/>
        <pt x="257" y="314" on="0"/>
        <pt x="199" y="314" on="1"/>
        <pt x="141" y="314" on="0"/>
        <pt x="66" y="231" on="0"/>
        <pt x="66" y="169" on="1"/>
        <pt x="66" y="107" on="0"/>
        <pt x="141" y="23" on="0"/>
        <pt x="199" y="23" on="1"/>
        <pt x="257" y="23" on="0"/>
        <pt x="332" y="107" on="0"/>
      </contour>
    </TTGlyph>
    <TTGlyph name="one" xMin="75" yMin="0" xMax="287" yMax="478">
      <contour>
        <pt x="287" y="0" on="1"/>
        <pt x="97" y="0" on="1"/>
        <pt x="97" y="36" on="1"/>
        <pt x="172" y="36" on="1"/>
        <pt x="172" y="417" on="1"/>
        <pt x="97" y="352" on="1"/>
        <pt x="75" y="377" on="1"/>
        <pt x="190" y="478" on="1"/>
        <pt x="212" y="478" on="0"/>
        <pt x="212" y="440" on="1"/>
        <pt x="212" y="36" on="1"/>
        <pt x="287" y="36" on="1"/>
      </contour>
    </TTGlyph>
    <TTGlyph name="oneeighth" xMin="30" yMin="-9" xMax="508" yMax="467">
      <contour>
        <pt x="135" y="-9" on="1"/>
        <pt x="102" y="-9" on="1"/>
        <pt x="386" y="467" on="1"/>
        <pt x="419" y="467" on="1"/>
      </contour>
      <contour>
        <pt x="165" y="186" on="1"/>
        <pt x="43" y="186" on="1"/>
        <pt x="43" y="210" on="1"/>
        <pt x="87" y="210" on="1"/>
        <pt x="87" y="411" on="1"/>
        <pt x="49" y="378" on="1"/>
        <pt x="30" y="402" on="1"/>
        <pt x="101" y="465" on="1"/>
        <pt x="122" y="463" on="0"/>
        <pt x="122" y="437" on="1"/>
        <pt x="122" y="210" on="1"/>
        <pt x="165" y="210" on="1"/>
      </contour>
      <contour>
        <pt x="475" y="75" on="1"/>
        <pt x="475" y="96" on="0"/>
        <pt x="447" y="131" on="0"/>
        <pt x="419" y="133" on="1"/>
        <pt x="391" y="131" on="0"/>
        <pt x="363" y="97" on="0"/>
        <pt x="363" y="75" on="1"/>
        <pt x="363" y="53" on="0"/>
        <pt x="394" y="26" on="0"/>
        <pt x="419" y="26" on="1"/>
        <pt x="443" y="26" on="0"/>
        <pt x="475" y="53" on="0"/>
      </contour>
      <contour>
        <pt x="466" y="209" on="1"/>
        <pt x="466" y="224" on="0"/>
        <pt x="441" y="249" on="0"/>
        <pt x="419" y="249" on="1"/>
        <pt x="397" y="249" on="0"/>
        <pt x="372" y="224" on="0"/>
        <pt x="372" y="209" on="1"/>
        <pt x="372" y="195" on="0"/>
        <pt x="397" y="172" on="0"/>
        <pt x="419" y="166" on="1"/>
        <pt x="441" y="171" on="0"/>
        <pt x="466" y="196" on="0"/>
      </contour>
      <contour>
        <pt x="508" y="77" on="1"/>
        <pt x="508" y="38" on="0"/>
        <pt x="461" y="-6" on="0"/>
        <pt x="419" y="-6" on="1"/>
        <pt x="378" y="-6" on="0"/>
        <pt x="330" y="38" on="0"/>
        <pt x="330" y="77" on="1"/>
        <pt x="330" y="101" on="0"/>
        <pt x="354" y="139" on="0"/>
        <pt x="372" y="151" on="1"/>
        <pt x="354" y="161" on="0"/>
        <pt x="339" y="190" on="0"/>
        <pt x="339" y="207" on="1"/>
        <pt x="339" y="240" on="0"/>
        <pt x="383" y="281" on="0"/>
        <pt x="419" y="281" on="1"/>
        <pt x="455" y="281" on="0"/>
        <pt x="499" y="240" on="0"/>
        <pt x="499" y="207" on="1"/>
        <pt x="499" y="190" on="0"/>
        <pt x="484" y="161" on="0"/>
        <pt x="467" y="151" on="1"/>
        <pt x="508" y="128" on="0"/>
      </contour>
    </TTGlyph>
    <TTGlyph name="onehalf" xMin="30" yMin="-9" xMax="510" yMax="467">
      <contour>
        <pt x="146" y="-9" on="1"/>
        <pt x="113" y="-9" on="1"/>
        <pt x="397" y="467" on="1"/>
        <pt x="430" y="467" on="1"/>
      </contour>
      <contour>
        <pt x="165" y="186" on="1"/>
        <pt x="43" y="186" on="1"/>
        <pt x="43" y="210" on="1"/>
        <pt x="87" y="210" on="1"/>
        <pt x="87" y="411" on="1"/>
        <pt x="49" y="378" on="1"/>
        <pt x="30" y="402" on="1"/>
        <pt x="101" y="465" on="1"/>
        <pt x="122" y="463" on="0"/>
        <pt x="122" y="437" on="1"/>
        <pt x="122" y="210" on="1"/>
        <pt x="165" y="210" on="1"/>
      </contour>
      <contour>
        <pt x="506" y="0" on="1"/>
        <pt x="325" y="0" on="1"/>
        <pt x="327" y="41" on="0"/>
        <pt x="394" y="105" on="1"/>
        <pt x="421" y="130" on="0"/>
        <pt x="472" y="184" on="0"/>
        <pt x="472" y="211" on="1"/>
        <pt x="472" y="254" on="0"/>
        <pt x="429" y="254" on="1"/>
        <pt x="381" y="254" on="0"/>
        <pt x="376" y="199" on="1"/>
        <pt x="342" y="205" on="1"/>
        <pt x="346" y="243" on="0"/>
        <pt x="392" y="285" on="0"/>
        <pt x="426" y="285" on="1"/>
        <pt x="462" y="285" on="0"/>
        <pt x="507" y="246" on="0"/>
        <pt x="507" y="211" on="1"/>
        <pt x="507" y="170" on="0"/>
        <pt x="453" y="114" on="1"/>
        <pt x="412" y="72" on="0"/>
        <pt x="375" y="31" on="1"/>
        <pt x="510" y="31" on="1"/>
      </contour>
    </TTGlyph>
    <TTGlyph name="onequarter" xMin="30" yMin="-9" xMax="502" yMax="467">
      <contour>
        <pt x="423" y="95" on="1"/>
        <pt x="423" y="243" on="1"/>
        <pt x="395" y="219" on="0"/>
        <pt x="372" y="171" on="1"/>
        <pt x="350" y="127" on="0"/>
        <pt x="348" y="95" on="1"/>
      </contour>
      <contour>
        <pt x="500" y="62" on="1"/>
        <pt x="458" y="62" on="1"/>
        <pt x="458" y="0" on="1"/>
        <pt x="423" y="0" on="1"/>
        <pt x="423" y="62" on="1"/>
        <pt x="311" y="62" on="1"/>
        <pt x="312" y="129" on="0"/>
        <pt x="349" y="199" on="1"/>
        <pt x="393" y="284" on="0"/>
        <pt x="458" y="286" on="1"/>
        <pt x="458" y="95" on="1"/>
        <pt x="502" y="95" on="1"/>
      </contour>
      <contour>
        <pt x="146" y="-9" on="1"/>
        <pt x="113" y="-9" on="1"/>
        <pt x="397" y="467" on="1"/>
        <pt x="430" y="467" on="1"/>
      </contour>
      <contour>
        <pt x="165" y="186" on="1"/>
        <pt x="43" y="186" on="1"/>
        <pt x="43" y="210" on="1"/>
        <pt x="87" y="210" on="1"/>
        <pt x="87" y="411" on="1"/>
        <pt x="49" y="378" on="1"/>
        <pt x="30" y="402" on="1"/>
        <pt x="101" y="465" on="1"/>
        <pt x="122" y="463" on="0"/>
        <pt x="122" y="437" on="1"/>
        <pt x="122" y="210" on="1"/>
        <pt x="165" y="210" on="1"/>
      </contour>
    </TTGlyph>
    <TTGlyph name="onesuperior" xMin="59" yMin="201" xMax="194" yMax="484">
      <contour>
        <pt x="194" y="201" on="1"/>
        <pt x="72" y="201" on="1"/>
        <pt x="72" y="225" on="1"/>
        <pt x="116" y="225" on="1"/>
        <pt x="116" y="430" on="1"/>
        <pt x="78" y="397" on="1"/>
        <pt x="59" y="421" on="1"/>
        <pt x="130" y="484" on="1"/>
        <pt x="151" y="482" on="0"/>
        <pt x="151" y="456" on="1"/>
        <pt x="151" y="225" on="1"/>
        <pt x="194" y="225" on="1"/>
      </contour>
    </TTGlyph>
    <TTGlyph name="onethird" xMin="30" yMin="-9" xMax="513" yMax="467">
      <contour>
        <pt x="146" y="-9" on="1"/>
        <pt x="113" y="-9" on="1"/>
        <pt x="397" y="467" on="1"/>
        <pt x="430" y="467" on="1"/>
      </contour>
      <contour>
        <pt x="165" y="186" on="1"/>
        <pt x="43" y="186" on="1"/>
        <pt x="43" y="210" on="1"/>
        <pt x="87" y="210" on="1"/>
        <pt x="87" y="411" on="1"/>
        <pt x="49" y="378" on="1"/>
        <pt x="30" y="402" on="1"/>
        <pt x="101" y="465" on="1"/>
        <pt x="122" y="463" on="0"/>
        <pt x="122" y="437" on="1"/>
        <pt x="122" y="210" on="1"/>
        <pt x="165" y="210" on="1"/>
      </contour>
      <contour>
        <pt x="513" y="101" on="1"/>
        <pt x="513" y="55" on="0"/>
        <pt x="453" y="0" on="0"/>
        <pt x="404" y="-1" on="1"/>
        <pt x="360" y="-2" on="0"/>
        <pt x="333" y="19" on="1"/>
        <pt x="348" y="51" on="1"/>
        <pt x="371" y="32" on="0"/>
        <pt x="401" y="32" on="1"/>
        <pt x="438" y="32" on="0"/>
        <pt x="480" y="70" on="0"/>
        <pt x="480" y="100" on="1"/>
        <pt x="480" y="144" on="0"/>
        <pt x="438" y="144" on="1"/>
        <pt x="410" y="144" on="0"/>
        <pt x="394" y="130" on="1"/>
        <pt x="380" y="155" on="1"/>
        <pt x="430" y="190" on="0"/>
        <pt x="436" y="195" on="1"/>
        <pt x="459" y="214" on="0"/>
        <pt x="459" y="232" on="1"/>
        <pt x="459" y="252" on="0"/>
        <pt x="426" y="252" on="1"/>
        <pt x="381" y="252" on="0"/>
        <pt x="368" y="208" on="1"/>
        <pt x="339" y="223" on="1"/>
        <pt x="366" y="285" on="0"/>
        <pt x="429" y="285" on="1"/>
        <pt x="492" y="285" on="0"/>
        <pt x="492" y="233" on="1"/>
        <pt x="492" y="215" on="0"/>
        <pt x="464" y="177" on="0"/>
        <pt x="447" y="170" on="1"/>
        <pt x="513" y="160" on="0"/>
      </contour>
    </TTGlyph>
    <TTGlyph name="ordfeminine" xMin="24" yMin="244" xMax="212" yMax="479">
      <contour>
        <pt x="212" y="247" on="1"/>
        <pt x="181" y="247" on="1"/>
        <pt x="176" y="280" on="1"/>
        <pt x="148" y="244" on="0"/>
        <pt x="101" y="244" on="1"/>
        <pt x="24" y="244" on="0"/>
        <pt x="24" y="312" on="1"/>
        <pt x="24" y="390" on="0"/>
        <pt x="174" y="392" on="1"/>
        <pt x="174" y="399" on="1"/>
        <pt x="174" y="413" on="0"/>
        <pt x="166" y="426" on="1"/>
        <pt x="150" y="449" on="0"/>
        <pt x="115" y="449" on="1"/>
        <pt x="81" y="449" on="0"/>
        <pt x="53" y="428" on="1"/>
        <pt x="42" y="453" on="1"/>
        <pt x="79" y="479" on="0"/>
        <pt x="122" y="479" on="1"/>
        <pt x="209" y="479" on="0"/>
        <pt x="209" y="372" on="1"/>
        <pt x="209" y="305" on="1"/>
        <pt x="209" y="276" on="0"/>
      </contour>
      <contour>
        <pt x="174" y="322" on="1"/>
        <pt x="174" y="364" on="1"/>
        <pt x="59" y="364" on="0"/>
        <pt x="59" y="312" on="1"/>
        <pt x="59" y="274" on="0"/>
        <pt x="107" y="274" on="1"/>
        <pt x="126" y="274" on="0"/>
        <pt x="174" y="303" on="0"/>
      </contour>
    </TTGlyph>
    <TTGlyph name="ordmasculine" xMin="20" yMin="238" xMax="265" yMax="483">
      <contour>
        <pt x="265" y="360" on="1"/>
        <pt x="265" y="310" on="0"/>
        <pt x="191" y="238" on="0"/>
        <pt x="142" y="238" on="1"/>
        <pt x="92" y="238" on="0"/>
        <pt x="20" y="310" on="0"/>
        <pt x="20" y="360" on="1"/>
        <pt x="20" y="409" on="0"/>
        <pt x="92" y="483" on="0"/>
        <pt x="142" y="483" on="1"/>
        <pt x="191" y="483" on="0"/>
        <pt x="265" y="409" on="0"/>
      </contour>
      <contour>
        <pt x="230" y="360" on="1"/>
        <pt x="230" y="396" on="0"/>
        <pt x="178" y="448" on="0"/>
        <pt x="142" y="448" on="1"/>
        <pt x="106" y="448" on="0"/>
        <pt x="55" y="396" on="0"/>
        <pt x="55" y="360" on="1"/>
        <pt x="55" y="324" on="0"/>
        <pt x="106" y="273" on="0"/>
        <pt x="142" y="273" on="1"/>
        <pt x="178" y="273" on="0"/>
        <pt x="230" y="324" on="0"/>
      </contour>
    </TTGlyph>
    <TTGlyph name="oslash" xMin="28" yMin="-29" xMax="370" yMax="383">
      <contour>
        <pt x="370" y="169" on="1"/>
        <pt x="370" y="94" on="0"/>
        <pt x="276" y="-10" on="0"/>
        <pt x="199" y="-10" on="1"/>
        <pt x="155" y="-10" on="0"/>
        <pt x="115" y="10" on="1"/>
        <pt x="91" y="-29" on="1"/>
        <pt x="51" y="-29" on="1"/>
        <pt x="87" y="30" on="1"/>
        <pt x="28" y="81" on="0"/>
        <pt x="28" y="169" on="1"/>
        <pt x="28" y="244" on="0"/>
        <pt x="122" y="347" on="0"/>
        <pt x="199" y="347" on="1"/>
        <pt x="235" y="347" on="0"/>
        <pt x="272" y="332" on="1"/>
        <pt x="303" y="383" on="1"/>
        <pt x="346" y="383" on="1"/>
        <pt x="303" y="314" on="1"/>
        <pt x="370" y="263" on="0"/>
      </contour>
      <contour>
        <pt x="332" y="169" on="1"/>
        <pt x="332" y="240" on="0"/>
        <pt x="284" y="283" on="1"/>
        <pt x="134" y="40" on="1"/>
        <pt x="163" y="23" on="0"/>
        <pt x="199" y="23" on="1"/>
        <pt x="257" y="23" on="0"/>
        <pt x="332" y="107" on="0"/>
      </contour>
      <contour>
        <pt x="106" y="61" on="1"/>
        <pt x="254" y="302" on="1"/>
        <pt x="229" y="314" on="0"/>
        <pt x="199" y="314" on="1"/>
        <pt x="141" y="314" on="0"/>
        <pt x="66" y="231" on="0"/>
        <pt x="66" y="169" on="1"/>
        <pt x="66" y="104" on="0"/>
      </contour>
    </TTGlyph>
    <TTGlyph name="otilde" xMin="28" yMin="-10" xMax="1836" yMax="860">
      <component glyphName="o" x="0" y="0" flags="0x204"/>
      <component glyphName="tildecomb" x="303" y="0" flags="0x4"/>
    </TTGlyph>
    <TTGlyph name="p" xMin="49" yMin="-167" xMax="373" yMax="347">
      <contour>
        <pt x="373" y="164" on="1"/>
        <pt x="373" y="89" on="0"/>
        <pt x="333" y="42" on="1"/>
        <pt x="291" y="-9" on="0"/>
        <pt x="220" y="-9" on="1"/>
        <pt x="135" y="-9" on="0"/>
        <pt x="91" y="63" on="1"/>
        <pt x="91" y="-167" on="1"/>
        <pt x="52" y="-167" on="1"/>
        <pt x="52" y="255" on="1"/>
        <pt x="52" y="313" on="0"/>
        <pt x="49" y="338" on="1"/>
        <pt x="85" y="338" on="1"/>
        <pt x="87" y="312" on="0"/>
        <pt x="87" y="278" on="1"/>
        <pt x="134" y="347" on="0"/>
        <pt x="214" y="347" on="1"/>
        <pt x="287" y="347" on="0"/>
        <pt x="373" y="246" on="0"/>
      </contour>
      <contour>
        <pt x="336" y="165" on="1"/>
        <pt x="336" y="235" on="0"/>
        <pt x="271" y="314" on="0"/>
        <pt x="209" y="314" on="1"/>
        <pt x="159" y="314" on="0"/>
        <pt x="91" y="250" on="0"/>
        <pt x="91" y="202" on="1"/>
        <pt x="91" y="145" on="1"/>
        <pt x="91" y="90" on="0"/>
        <pt x="130" y="55" on="1"/>
        <pt x="165" y="22" on="0"/>
        <pt x="213" y="22" on="1"/>
        <pt x="271" y="22" on="0"/>
        <pt x="305" y="63" on="1"/>
        <pt x="336" y="102" on="0"/>
      </contour>
    </TTGlyph>
    <TTGlyph name="paragraph" xMin="45" yMin="-63" xMax="321" yMax="475">
      <contour>
        <pt x="321" y="-63" on="1"/>
        <pt x="287" y="-63" on="1"/>
        <pt x="287" y="443" on="1"/>
        <pt x="239" y="443" on="1"/>
        <pt x="239" y="-63" on="1"/>
        <pt x="204" y="-63" on="1"/>
        <pt x="204" y="180" on="1"/>
        <pt x="200" y="180" on="1"/>
        <pt x="140" y="180" on="0"/>
        <pt x="96" y="215" on="1"/>
        <pt x="45" y="255" on="0"/>
        <pt x="45" y="321" on="1"/>
        <pt x="45" y="475" on="0"/>
        <pt x="243" y="475" on="1"/>
        <pt x="296" y="475" on="0"/>
        <pt x="321" y="470" on="1"/>
      </contour>
    </TTGlyph>
    <TTGlyph name="parenleft" xMin="20" yMin="-58" xMax="170" yMax="532">
      <contour>
        <pt x="169" y="-58" on="1"/>
        <pt x="131" y="-58" on="1"/>
        <pt x="20" y="63" on="0"/>
        <pt x="20" y="234" on="1"/>
        <pt x="20" y="396" on="0"/>
        <pt x="130" y="532" on="1"/>
        <pt x="170" y="532" on="1"/>
        <pt x="58" y="404" on="0"/>
        <pt x="58" y="234" on="1"/>
        <pt x="58" y="75" on="0"/>
      </contour>
    </TTGlyph>
    <TTGlyph name="parenright" xMin="20" yMin="-58" xMax="169" yMax="532">
      <contour>
        <pt x="169" y="237" on="1"/>
        <pt x="169" y="71" on="0"/>
        <pt x="58" y="-58" on="1"/>
        <pt x="20" y="-58" on="1"/>
        <pt x="131" y="81" on="0"/>
        <pt x="131" y="237" on="1"/>
        <pt x="131" y="395" on="0"/>
        <pt x="20" y="532" on="1"/>
        <pt x="58" y="532" on="1"/>
        <pt x="169" y="407" on="0"/>
      </contour>
    </TTGlyph>
    <TTGlyph name="partialdiff" xMin="28" yMin="-5" xMax="288" yMax="453">
      <contour>
        <pt x="288" y="282" on="1"/>
        <pt x="288" y="177" on="0"/>
        <pt x="255" y="100" on="1"/>
        <pt x="209" y="-5" on="0"/>
        <pt x="113" y="-5" on="1"/>
        <pt x="77" y="-5" on="0"/>
        <pt x="54" y="21" on="1"/>
        <pt x="28" y="50" on="0"/>
        <pt x="28" y="101" on="1"/>
        <pt x="28" y="188" on="0"/>
        <pt x="92" y="239" on="1"/>
        <pt x="147" y="283" on="0"/>
        <pt x="227" y="283" on="1"/>
        <pt x="240" y="283" on="0"/>
        <pt x="247" y="282" on="1"/>
        <pt x="245" y="415" on="0"/>
        <pt x="192" y="415" on="1"/>
        <pt x="148" y="415" on="0"/>
        <pt x="125" y="346" on="1"/>
        <pt x="92" y="365" on="1"/>
        <pt x="128" y="453" on="0"/>
        <pt x="191" y="453" on="1"/>
        <pt x="288" y="453" on="0"/>
      </contour>
      <contour>
        <pt x="246" y="247" on="1"/>
        <pt x="239" y="248" on="0"/>
        <pt x="227" y="248" on="1"/>
        <pt x="153" y="248" on="0"/>
        <pt x="110" y="201" on="1"/>
        <pt x="71" y="159" on="0"/>
        <pt x="71" y="101" on="1"/>
        <pt x="71" y="36" on="0"/>
        <pt x="124" y="36" on="1"/>
        <pt x="179" y="36" on="0"/>
        <pt x="215" y="119" on="1"/>
        <pt x="243" y="183" on="0"/>
      </contour>
    </TTGlyph>
    <TTGlyph name="percent" xMin="34" yMin="-9" xMax="550" yMax="476">
      <contour>
        <pt x="453" y="476" on="1"/>
        <pt x="163" y="-9" on="1"/>
        <pt x="129" y="-9" on="1"/>
        <pt x="419" y="476" on="1"/>
      </contour>
      <contour>
        <pt x="248" y="334" on="1"/>
        <pt x="248" y="192" on="0"/>
        <pt x="141" y="192" on="1"/>
        <pt x="34" y="192" on="0"/>
        <pt x="34" y="334" on="1"/>
        <pt x="34" y="476" on="0"/>
        <pt x="141" y="476" on="1"/>
        <pt x="248" y="476" on="0"/>
      </contour>
      <contour>
        <pt x="212" y="334" on="1"/>
        <pt x="212" y="444" on="0"/>
        <pt x="141" y="444" on="1"/>
        <pt x="70" y="444" on="0"/>
        <pt x="70" y="334" on="1"/>
        <pt x="70" y="224" on="0"/>
        <pt x="141" y="224" on="1"/>
        <pt x="212" y="224" on="0"/>
      </contour>
      <contour>
        <pt x="550" y="139" on="1"/>
        <pt x="550" y="-3" on="0"/>
        <pt x="443" y="-3" on="1"/>
        <pt x="336" y="-3" on="0"/>
        <pt x="336" y="139" on="1"/>
        <pt x="336" y="281" on="0"/>
        <pt x="443" y="281" on="1"/>
        <pt x="550" y="281" on="0"/>
      </contour>
      <contour>
        <pt x="514" y="139" on="1"/>
        <pt x="514" y="249" on="0"/>
        <pt x="443" y="249" on="1"/>
        <pt x="372" y="249" on="0"/>
        <pt x="372" y="139" on="1"/>
        <pt x="372" y="29" on="0"/>
        <pt x="443" y="29" on="1"/>
        <pt x="514" y="29" on="0"/>
      </contour>
    </TTGlyph>
    <TTGlyph name="period" xMin="46" yMin="-6" xMax="115" yMax="63">
      <contour>
        <pt x="115" y="28" on="1"/>
        <pt x="115" y="14" on="0"/>
        <pt x="94" y="-6" on="0"/>
        <pt x="80" y="-6" on="1"/>
        <pt x="66" y="-6" on="0"/>
        <pt x="46" y="14" on="0"/>
        <pt x="46" y="28" on="1"/>
        <pt x="46" y="42" on="0"/>
        <pt x="66" y="63" on="0"/>
        <pt x="80" y="63" on="1"/>
        <pt x="94" y="63" on="0"/>
        <pt x="115" y="42" on="0"/>
      </contour>
    </TTGlyph>
    <TTGlyph name="periodcentered" xMin="46" yMin="147" xMax="115" yMax="216">
      <contour>
        <pt x="115" y="181" on="1"/>
        <pt x="115" y="167" on="0"/>
        <pt x="94" y="147" on="0"/>
        <pt x="80" y="147" on="1"/>
        <pt x="66" y="147" on="0"/>
        <pt x="46" y="167" on="0"/>
        <pt x="46" y="181" on="1"/>
        <pt x="46" y="195" on="0"/>
        <pt x="66" y="216" on="0"/>
        <pt x="80" y="216" on="1"/>
        <pt x="94" y="216" on="0"/>
        <pt x="115" y="195" on="0"/>
      </contour>
    </TTGlyph>
    <TTGlyph name="perthousand" xMin="34" yMin="-9" xMax="794" yMax="476">
      <contour>
        <pt x="414" y="476" on="1"/>
        <pt x="448" y="476" on="1"/>
        <pt x="158" y="-9" on="1"/>
        <pt x="124" y="-9" on="1"/>
      </contour>
      <contour>
        <pt x="794" y="139" on="1"/>
        <pt x="794" y="-3" on="0"/>
        <pt x="687" y="-3" on="1"/>
        <pt x="580" y="-3" on="0"/>
        <pt x="580" y="139" on="1"/>
        <pt x="580" y="281" on="0"/>
        <pt x="687" y="281" on="1"/>
        <pt x="794" y="281" on="0"/>
      </contour>
      <contour>
        <pt x="248" y="334" on="1"/>
        <pt x="248" y="192" on="0"/>
        <pt x="141" y="192" on="1"/>
        <pt x="34" y="192" on="0"/>
        <pt x="34" y="334" on="1"/>
        <pt x="34" y="476" on="0"/>
        <pt x="141" y="476" on="1"/>
        <pt x="248" y="476" on="0"/>
      </contour>
      <contour>
        <pt x="212" y="334" on="1"/>
        <pt x="212" y="444" on="0"/>
        <pt x="141" y="444" on="1"/>
        <pt x="70" y="444" on="0"/>
        <pt x="70" y="334" on="1"/>
        <pt x="70" y="224" on="0"/>
        <pt x="141" y="224" on="1"/>
        <pt x="212" y="224" on="0"/>
      </contour>
      <contour>
        <pt x="758" y="139" on="1"/>
        <pt x="758" y="249" on="0"/>
        <pt x="687" y="249" on="1"/>
        <pt x="616" y="249" on="0"/>
        <pt x="616" y="139" on="1"/>
        <pt x="616" y="29" on="0"/>
        <pt x="687" y="29" on="1"/>
        <pt x="758" y="29" on="0"/>
      </contour>
      <contour>
        <pt x="546" y="139" on="1"/>
        <pt x="546" y="-3" on="0"/>
        <pt x="439" y="-3" on="1"/>
        <pt x="332" y="-3" on="0"/>
        <pt x="332" y="139" on="1"/>
        <pt x="332" y="281" on="0"/>
        <pt x="439" y="281" on="1"/>
        <pt x="546" y="281" on="0"/>
      </contour>
      <contour>
        <pt x="510" y="139" on="1"/>
        <pt x="510" y="249" on="0"/>
        <pt x="439" y="249" on="1"/>
        <pt x="368" y="249" on="0"/>
        <pt x="368" y="139" on="1"/>
        <pt x="368" y="29" on="0"/>
        <pt x="439" y="29" on="1"/>
        <pt x="510" y="29" on="0"/>
      </contour>
    </TTGlyph>
    <TTGlyph name="plus" xMin="38" yMin="0" xMax="373" yMax="357">
      <contour>
        <pt x="373" y="165" on="1"/>
        <pt x="223" y="165" on="1"/>
        <pt x="223" y="0" on="1"/>
        <pt x="188" y="0" on="1"/>
        <pt x="188" y="165" on="1"/>
        <pt x="38" y="165" on="1"/>
        <pt x="38" y="198" on="1"/>
        <pt x="188" y="198" on="1"/>
        <pt x="188" y="357" on="1"/>
        <pt x="223" y="357" on="1"/>
        <pt x="223" y="198" on="1"/>
        <pt x="373" y="198" on="1"/>
      </contour>
    </TTGlyph>
    <TTGlyph name="plusminus" xMin="38" yMin="0" xMax="373" yMax="357">
      <contour>
        <pt x="373" y="201" on="1"/>
        <pt x="223" y="201" on="1"/>
        <pt x="223" y="68" on="1"/>
        <pt x="188" y="68" on="1"/>
        <pt x="188" y="201" on="1"/>
        <pt x="38" y="201" on="1"/>
        <pt x="38" y="233" on="1"/>
        <pt x="188" y="233" on="1"/>
        <pt x="188" y="357" on="1"/>
        <pt x="223" y="357" on="1"/>
        <pt x="223" y="233" on="1"/>
        <pt x="373" y="233" on="1"/>
      </contour>
      <contour>
        <pt x="373" y="0" on="1"/>
        <pt x="38" y="0" on="1"/>
        <pt x="38" y="32" on="1"/>
        <pt x="373" y="32" on="1"/>
      </contour>
    </TTGlyph>
    <TTGlyph name="product" xMin="54" yMin="-55" xMax="392" yMax="476">
      <contour>
        <pt x="392" y="-55" on="1"/>
        <pt x="353" y="-55" on="1"/>
        <pt x="353" y="443" on="1"/>
        <pt x="93" y="443" on="1"/>
        <pt x="93" y="-55" on="1"/>
        <pt x="54" y="-55" on="1"/>
        <pt x="54" y="476" on="1"/>
        <pt x="392" y="476" on="1"/>
      </contour>
    </TTGlyph>
    <TTGlyph name="q" xMin="49" yMin="-167" xMax="373" yMax="347">
      <contour>
        <pt x="370" y="-167" on="1"/>
        <pt x="331" y="-167" on="1"/>
        <pt x="331" y="63" on="1"/>
        <pt x="287" y="-9" on="0"/>
        <pt x="202" y="-9" on="1"/>
        <pt x="131" y="-9" on="0"/>
        <pt x="89" y="42" on="1"/>
        <pt x="49" y="89" on="0"/>
        <pt x="49" y="164" on="1"/>
        <pt x="49" y="246" on="0"/>
        <pt x="135" y="347" on="0"/>
        <pt x="208" y="347" on="1"/>
        <pt x="288" y="347" on="0"/>
        <pt x="335" y="278" on="1"/>
        <pt x="335" y="312" on="0"/>
        <pt x="337" y="338" on="1"/>
        <pt x="373" y="338" on="1"/>
        <pt x="370" y="313" on="0"/>
        <pt x="370" y="255" on="1"/>
      </contour>
      <contour>
        <pt x="331" y="145" on="1"/>
        <pt x="331" y="202" on="1"/>
        <pt x="331" y="250" on="0"/>
        <pt x="263" y="314" on="0"/>
        <pt x="213" y="314" on="1"/>
        <pt x="151" y="314" on="0"/>
        <pt x="86" y="235" on="0"/>
        <pt x="86" y="165" on="1"/>
        <pt x="86" y="102" on="0"/>
        <pt x="117" y="63" on="1"/>
        <pt x="151" y="22" on="0"/>
        <pt x="209" y="22" on="1"/>
        <pt x="257" y="22" on="0"/>
        <pt x="292" y="55" on="1"/>
        <pt x="331" y="90" on="0"/>
      </contour>
    </TTGlyph>
    <TTGlyph name="question" xMin="31" yMin="-6" xMax="247" yMax="483">
      <contour>
        <pt x="138" y="123" on="1"/>
        <pt x="104" y="123" on="1"/>
        <pt x="99" y="138" on="0"/>
        <pt x="99" y="158" on="1"/>
        <pt x="99" y="211" on="0"/>
        <pt x="208" y="333" on="0"/>
        <pt x="208" y="376" on="1"/>
        <pt x="208" y="448" on="0"/>
        <pt x="126" y="448" on="1"/>
        <pt x="79" y="448" on="0"/>
        <pt x="46" y="422" on="1"/>
        <pt x="31" y="452" on="1"/>
        <pt x="79" y="483" on="0"/>
        <pt x="133" y="483" on="1"/>
        <pt x="190" y="483" on="0"/>
        <pt x="220" y="450" on="1"/>
        <pt x="247" y="421" on="0"/>
        <pt x="247" y="378" on="1"/>
        <pt x="247" y="325" on="0"/>
        <pt x="184" y="258" on="1"/>
        <pt x="135" y="206" on="0"/>
        <pt x="135" y="155" on="1"/>
        <pt x="135" y="137" on="0"/>
      </contour>
      <contour>
        <pt x="154" y="28" on="1"/>
        <pt x="154" y="14" on="0"/>
        <pt x="133" y="-6" on="0"/>
        <pt x="119" y="-6" on="1"/>
        <pt x="105" y="-6" on="0"/>
        <pt x="85" y="14" on="0"/>
        <pt x="85" y="28" on="1"/>
        <pt x="85" y="42" on="0"/>
        <pt x="105" y="63" on="0"/>
        <pt x="119" y="63" on="1"/>
        <pt x="133" y="63" on="0"/>
        <pt x="154" y="42" on="0"/>
      </contour>
    </TTGlyph>
    <TTGlyph name="questiondown" xMin="34" yMin="-153" xMax="250" yMax="341">
      <contour>
        <pt x="250" y="-122" on="1"/>
        <pt x="202" y="-153" on="0"/>
        <pt x="148" y="-153" on="1"/>
        <pt x="91" y="-153" on="0"/>
        <pt x="61" y="-120" on="1"/>
        <pt x="34" y="-91" on="0"/>
        <pt x="34" y="-48" on="1"/>
        <pt x="34" y="5" on="0"/>
        <pt x="97" y="72" on="1"/>
        <pt x="146" y="124" on="0"/>
        <pt x="146" y="175" on="1"/>
        <pt x="146" y="193" on="0"/>
        <pt x="143" y="207" on="1"/>
        <pt x="177" y="207" on="1"/>
        <pt x="182" y="192" on="0"/>
        <pt x="182" y="172" on="1"/>
        <pt x="182" y="119" on="0"/>
        <pt x="73" y="-3" on="0"/>
        <pt x="73" y="-46" on="1"/>
        <pt x="73" y="-118" on="0"/>
        <pt x="155" y="-118" on="1"/>
        <pt x="202" y="-118" on="0"/>
        <pt x="235" y="-92" on="1"/>
      </contour>
      <contour>
        <pt x="198" y="304" on="1"/>
        <pt x="198" y="289" on="0"/>
        <pt x="176" y="267" on="0"/>
        <pt x="161" y="267" on="1"/>
        <pt x="146" y="267" on="0"/>
        <pt x="124" y="289" on="0"/>
        <pt x="124" y="304" on="1"/>
        <pt x="124" y="319" on="0"/>
        <pt x="146" y="341" on="0"/>
        <pt x="161" y="341" on="1"/>
        <pt x="176" y="341" on="0"/>
        <pt x="198" y="319" on="0"/>
      </contour>
    </TTGlyph>
    <TTGlyph name="quotedbl" xMin="37" yMin="338" xMax="171" yMax="499">
      <contour>
        <pt x="161" y="338" on="1"/>
        <pt x="134" y="338" on="1"/>
        <pt x="124" y="499" on="1"/>
        <pt x="171" y="499" on="1"/>
      </contour>
      <contour>
        <pt x="74" y="338" on="1"/>
        <pt x="47" y="338" on="1"/>
        <pt x="37" y="499" on="1"/>
        <pt x="84" y="499" on="1"/>
      </contour>
    </TTGlyph>
    <TTGlyph name="quotedblbase" xMin="78" yMin="-111" xMax="289" yMax="70">
      <contour>
        <pt x="173" y="31" on="1"/>
        <pt x="173" y="-29" on="0"/>
        <pt x="135" y="-75" on="1"/>
        <pt x="112" y="-101" on="0"/>
        <pt x="93" y="-111" on="1"/>
        <pt x="78" y="-94" on="1"/>
        <pt x="134" y="-58" on="0"/>
        <pt x="138" y="-4" on="1"/>
        <pt x="134" y="-5" on="0"/>
        <pt x="131" y="-5" on="1"/>
        <pt x="114" y="-5" on="0"/>
        <pt x="97" y="17" on="0"/>
        <pt x="97" y="31" on="1"/>
        <pt x="97" y="47" on="0"/>
        <pt x="119" y="70" on="0"/>
        <pt x="134" y="70" on="1"/>
        <pt x="151" y="70" on="0"/>
        <pt x="173" y="48" on="0"/>
      </contour>
      <contour>
        <pt x="289" y="31" on="1"/>
        <pt x="289" y="-29" on="0"/>
        <pt x="251" y="-75" on="1"/>
        <pt x="228" y="-101" on="0"/>
        <pt x="209" y="-111" on="1"/>
        <pt x="194" y="-94" on="1"/>
        <pt x="250" y="-58" on="0"/>
        <pt x="254" y="-4" on="1"/>
        <pt x="250" y="-5" on="0"/>
        <pt x="247" y="-5" on="1"/>
        <pt x="230" y="-5" on="0"/>
        <pt x="213" y="17" on="0"/>
        <pt x="213" y="31" on="1"/>
        <pt x="213" y="47" on="0"/>
        <pt x="235" y="70" on="0"/>
        <pt x="250" y="70" on="1"/>
        <pt x="267" y="70" on="0"/>
        <pt x="289" y="48" on="0"/>
      </contour>
    </TTGlyph>
    <TTGlyph name="quotedblleft" xMin="78" yMin="334" xMax="289" yMax="515">
      <contour>
        <pt x="270" y="373" on="1"/>
        <pt x="270" y="357" on="0"/>
        <pt x="248" y="334" on="0"/>
        <pt x="233" y="334" on="1"/>
        <pt x="217" y="334" on="0"/>
        <pt x="194" y="357" on="0"/>
        <pt x="194" y="373" on="1"/>
        <pt x="194" y="433" on="0"/>
        <pt x="233" y="479" on="1"/>
        <pt x="255" y="505" on="0"/>
        <pt x="274" y="515" on="1"/>
        <pt x="289" y="498" on="1"/>
        <pt x="233" y="462" on="0"/>
        <pt x="229" y="408" on="1"/>
        <pt x="235" y="409" on="0"/>
        <pt x="234" y="409" on="1"/>
        <pt x="248" y="409" on="0"/>
        <pt x="270" y="387" on="0"/>
      </contour>
      <contour>
        <pt x="154" y="373" on="1"/>
        <pt x="154" y="357" on="0"/>
        <pt x="132" y="334" on="0"/>
        <pt x="117" y="334" on="1"/>
        <pt x="101" y="334" on="0"/>
        <pt x="78" y="357" on="0"/>
        <pt x="78" y="373" on="1"/>
        <pt x="78" y="433" on="0"/>
        <pt x="117" y="479" on="1"/>
        <pt x="139" y="505" on="0"/>
        <pt x="158" y="515" on="1"/>
        <pt x="173" y="498" on="1"/>
        <pt x="117" y="462" on="0"/>
        <pt x="113" y="408" on="1"/>
        <pt x="119" y="409" on="0"/>
        <pt x="118" y="409" on="1"/>
        <pt x="132" y="409" on="0"/>
        <pt x="154" y="387" on="0"/>
      </contour>
    </TTGlyph>
    <TTGlyph name="quotedblright" xMin="78" yMin="322" xMax="289" yMax="503">
      <contour>
        <pt x="173" y="464" on="1"/>
        <pt x="173" y="404" on="0"/>
        <pt x="135" y="358" on="1"/>
        <pt x="112" y="332" on="0"/>
        <pt x="93" y="322" on="1"/>
        <pt x="78" y="339" on="1"/>
        <pt x="134" y="375" on="0"/>
        <pt x="138" y="429" on="1"/>
        <pt x="132" y="428" on="0"/>
        <pt x="133" y="428" on="1"/>
        <pt x="119" y="428" on="0"/>
        <pt x="97" y="450" on="0"/>
        <pt x="97" y="464" on="1"/>
        <pt x="97" y="480" on="0"/>
        <pt x="119" y="503" on="0"/>
        <pt x="134" y="503" on="1"/>
        <pt x="151" y="503" on="0"/>
        <pt x="173" y="481" on="0"/>
      </contour>
      <contour>
        <pt x="289" y="464" on="1"/>
        <pt x="289" y="404" on="0"/>
        <pt x="251" y="358" on="1"/>
        <pt x="228" y="332" on="0"/>
        <pt x="209" y="322" on="1"/>
        <pt x="194" y="339" on="1"/>
        <pt x="250" y="375" on="0"/>
        <pt x="254" y="429" on="1"/>
        <pt x="248" y="428" on="0"/>
        <pt x="249" y="428" on="1"/>
        <pt x="235" y="428" on="0"/>
        <pt x="213" y="450" on="0"/>
        <pt x="213" y="464" on="1"/>
        <pt x="213" y="480" on="0"/>
        <pt x="235" y="503" on="0"/>
        <pt x="250" y="503" on="1"/>
        <pt x="267" y="503" on="0"/>
        <pt x="289" y="481" on="0"/>
      </contour>
    </TTGlyph>
    <TTGlyph name="quoteleft" xMin="73" yMin="334" xMax="168" yMax="515">
      <contour>
        <pt x="149" y="373" on="1"/>
        <pt x="149" y="357" on="0"/>
        <pt x="127" y="334" on="0"/>
        <pt x="112" y="334" on="1"/>
        <pt x="96" y="334" on="0"/>
        <pt x="73" y="357" on="0"/>
        <pt x="73" y="373" on="1"/>
        <pt x="73" y="433" on="0"/>
        <pt x="112" y="479" on="1"/>
        <pt x="134" y="505" on="0"/>
        <pt x="153" y="515" on="1"/>
        <pt x="168" y="498" on="1"/>
        <pt x="112" y="462" on="0"/>
        <pt x="108" y="408" on="1"/>
        <pt x="114" y="409" on="0"/>
        <pt x="113" y="409" on="1"/>
        <pt x="127" y="409" on="0"/>
        <pt x="149" y="387" on="0"/>
      </contour>
    </TTGlyph>
    <TTGlyph name="quoteright" xMin="73" yMin="322" xMax="168" yMax="503">
      <contour>
        <pt x="168" y="464" on="1"/>
        <pt x="168" y="404" on="0"/>
        <pt x="130" y="358" on="1"/>
        <pt x="107" y="332" on="0"/>
        <pt x="88" y="322" on="1"/>
        <pt x="73" y="339" on="1"/>
        <pt x="129" y="375" on="0"/>
        <pt x="133" y="429" on="1"/>
        <pt x="127" y="428" on="0"/>
        <pt x="128" y="428" on="1"/>
        <pt x="114" y="428" on="0"/>
        <pt x="92" y="450" on="0"/>
        <pt x="92" y="464" on="1"/>
        <pt x="92" y="480" on="0"/>
        <pt x="114" y="503" on="0"/>
        <pt x="129" y="503" on="1"/>
        <pt x="146" y="503" on="0"/>
        <pt x="168" y="481" on="0"/>
      </contour>
    </TTGlyph>
    <TTGlyph name="quotesinglbase" xMin="73" yMin="-111" xMax="168" yMax="70">
      <contour>
        <pt x="168" y="31" on="1"/>
        <pt x="168" y="-29" on="0"/>
        <pt x="130" y="-75" on="1"/>
        <pt x="107" y="-101" on="0"/>
        <pt x="88" y="-111" on="1"/>
        <pt x="73" y="-94" on="1"/>
        <pt x="129" y="-58" on="0"/>
        <pt x="133" y="-4" on="1"/>
        <pt x="129" y="-5" on="0"/>
        <pt x="126" y="-5" on="1"/>
        <pt x="109" y="-5" on="0"/>
        <pt x="92" y="17" on="0"/>
        <pt x="92" y="31" on="1"/>
        <pt x="92" y="47" on="0"/>
        <pt x="114" y="70" on="0"/>
        <pt x="129" y="70" on="1"/>
        <pt x="146" y="70" on="0"/>
        <pt x="168" y="48" on="0"/>
      </contour>
    </TTGlyph>
    <TTGlyph name="quotesingle" xMin="37" yMin="338" xMax="83" yMax="499">
      <contour>
        <pt x="74" y="338" on="1"/>
        <pt x="47" y="338" on="1"/>
        <pt x="37" y="499" on="1"/>
        <pt x="83" y="499" on="1"/>
      </contour>
    </TTGlyph>
</ttFont>
